<svg width="1440" height="540" viewBox="0 0 1440 540" fill="none" xmlns="http://www.w3.org/2000/svg">
<path d="M0 4.57764e-05H1440V540H0V4.57764e-05Z" fill="#F6F5EE"/>
<path d="M928.843 264.281C915.384 240.168 924.02 209.711 948.132 196.252L1243.52 31.3699C1267.63 17.9108 1298.09 26.5468 1311.55 50.659L1424.34 252.719C1437.8 276.832 1429.16 307.289 1405.05 320.748L1109.66 485.63C1085.55 499.089 1055.09 490.453 1041.63 466.341L928.843 264.281Z" fill="#D9D9D9"/>
<path d="M766.192 176.283C762.772 170.606 764.602 163.232 770.279 159.812L937.314 59.192C942.991 55.7722 950.365 57.6021 953.785 63.2791L1052.86 227.744C1056.28 233.421 1054.45 240.795 1048.77 244.215L881.735 344.835C876.058 348.255 868.684 346.425 865.264 340.748L766.192 176.283Z" fill="#D9D9D9"/>
</svg>
