<svg width="253" height="194" viewBox="0 0 253 194" fill="none" xmlns="http://www.w3.org/2000/svg">
<g clip-path="url(#clip0_30_713)">
<path d="M253 0H0V194H253V0Z" fill="#A1DEFA"/>
<path d="M52.9735 37.8704C47.6636 38.0078 43.4781 42.5054 43.5982 47.9212C43.6662 50.8733 45.0435 53.6491 47.33 55.4549C48.8148 56.6157 49.6829 58.4069 49.6971 60.3081L50.2047 61.4026H55.875L56.7179 60.3081C56.7179 58.4215 57.5733 56.6302 59.0455 55.4824C63.2579 52.186 64.0738 46.033 60.8497 41.7132C58.9775 39.2252 56.049 37.7896 52.9735 37.8704Z" fill="#FFE395"/>
<path d="M49.6971 60.321V62.8236C49.6971 64.8073 51.261 66.4062 53.2012 66.4062C55.1398 66.4062 56.7052 64.8073 56.7052 62.8236V60.321H49.6971Z" fill="#3C2C5B"/>
<path d="M49.6971 60.3081H56.7179" stroke="black" stroke-linecap="round" stroke-linejoin="round"/>
<path d="M49.6971 62.2902H56.7052" stroke="black" stroke-linecap="round" stroke-linejoin="round"/>
<path d="M52.0247 60.3081V57.4499C52.0247 55.5357 51.2878 53.6911 49.9643 52.3364C48.9618 51.3114 48.4131 49.9308 48.4131 48.4806C48.4131 47.4556 49.2291 46.636 50.2189 46.636C51.2214 46.636 52.0247 47.4686 52.0247 48.4806V49.5476C52.0247 50.204 52.5449 50.7375 53.1869 50.7375C53.8289 50.7375 54.3507 50.204 54.3507 49.5476V48.4806C54.3507 47.4556 55.1666 46.636 56.1565 46.636H56.1834C57.1859 46.636 57.9892 47.4686 57.9892 48.4806C57.9892 49.9308 57.4263 51.3243 56.4237 52.3509C55.1002 53.7186 54.3507 55.5503 54.3507 57.4774L54.365 60.3211" stroke="#080306" stroke-width="0.2" stroke-linecap="round" stroke-linejoin="round"/>
<path d="M223.837 40.1968L230.511 108.433C231.025 113.697 226.291 117.973 219.904 117.991L123.53 118.248C117.167 118.264 111.598 114.015 111.084 108.752L104.41 40.5152C103.894 35.2514 108.63 30.9753 114.993 30.9591L211.366 30.7021C217.729 30.6843 223.322 34.9329 223.837 40.1968Z" fill="white"/>
<path d="M121.666 45.5754H155.684C157.847 45.5754 159.803 47.3764 160.041 49.588C160.28 51.7996 158.713 53.6022 156.55 53.6022H122.533C120.369 53.6022 118.413 51.7996 118.173 49.588C117.934 47.3764 119.503 45.5754 121.666 45.5754Z" fill="#FFA0DC"/>
<path d="M123.458 62.1625H143.345C145.508 62.1625 147.464 63.9634 147.703 66.175C147.942 68.3866 146.375 70.1892 144.212 70.1892H124.324C122.161 70.1892 120.205 68.3866 119.966 66.175C119.728 63.9634 121.295 62.1625 123.458 62.1625Z" fill="#F0DBE8"/>
<path d="M156.428 62.1625H162.707C164.871 62.1625 166.828 63.9634 167.067 66.175C167.306 68.3866 165.739 70.1892 163.576 70.1892H157.295C155.132 70.1892 153.176 68.3866 152.937 66.175C152.698 63.9634 154.265 62.1625 156.428 62.1625Z" fill="#3C2C5B"/>
<path d="M125.249 78.7494H130.134C132.297 78.7494 134.253 80.5504 134.492 82.762C134.73 84.9736 133.163 86.7761 131 86.7761H126.116C123.953 86.7761 121.997 84.9736 121.758 82.762C121.519 80.5504 123.086 78.7494 125.249 78.7494Z" fill="#F0DBE8"/>
<path d="M143.217 78.7494H172.525C174.689 78.7494 176.645 80.5504 176.883 82.762C177.122 84.9736 175.555 86.7761 173.392 86.7761H144.085C141.922 86.7761 139.964 84.9736 139.726 82.762C139.487 80.5504 141.054 78.7494 143.217 78.7494Z" fill="#3C2C5B"/>
<path d="M185.609 78.7494H210.728C212.892 78.7494 214.849 80.5504 215.088 82.762C215.327 84.9736 213.76 86.7761 211.597 86.7761H186.475C184.312 86.7761 182.356 84.9736 182.117 82.762C181.879 80.5504 183.446 78.7494 185.609 78.7494Z" fill="white"/>
<path d="M127.041 95.3364H142.741C144.904 95.3364 146.862 97.1374 147.101 99.349C147.339 101.561 145.771 103.363 143.608 103.363H127.907C125.744 103.363 123.788 101.561 123.549 99.349C123.311 97.1374 124.878 95.3364 127.041 95.3364Z" fill="#030303"/>
<path d="M155.824 95.3364H159.314C161.477 95.3364 163.433 97.1374 163.672 99.349C163.911 101.561 162.344 103.363 160.181 103.363H156.692C154.529 103.363 152.572 101.561 152.333 99.349C152.094 97.1374 153.661 95.3364 155.824 95.3364Z" fill="#F0DBE8"/>
<path d="M172.397 95.3364H193.158C195.321 95.3364 197.277 97.1374 197.516 99.349C197.754 101.561 196.187 103.363 194.024 103.363H173.264C171.101 103.363 169.145 101.561 168.906 99.349C168.667 97.1374 170.234 95.3364 172.397 95.3364Z" fill="#FFA0DC"/>
<path d="M165.631 77.4206L165.701 76.4344C162.654 73.2173 160.584 71.274 159.548 70.6451C156.515 68.8005 152.445 67.428 150.823 67.428C150.348 67.428 150.083 67.5428 150.054 67.7853C149.929 68.8005 153.187 70.359 153.663 70.5724C152.711 71.0881 152.935 72.2893 152.976 72.4607C151.928 73.4177 152.515 74.3764 152.613 74.5187C152.488 74.6609 151.691 75.6762 152.78 76.7917C153.452 77.4788 154.096 77.6211 154.501 77.6211C154.752 77.6211 154.92 77.5645 154.977 77.5499C156.039 79.38 158.025 79.9507 158.206 79.9943C158.248 80.0946 158.542 80.78 159.017 81.7662L159.983 81.9958L165.631 77.4206Z" fill="#E59763"/>
<path d="M192.939 71.5311V71.502C193.36 69.6299 193.988 66.6989 194.604 63.4106C195.121 60.5944 194.772 58.2793 193.569 56.7063C192.492 55.2901 190.786 54.5044 188.507 54.3476C188.284 54.333 188.074 54.333 187.864 54.333C183.431 54.333 181.837 57.4063 180.928 60.0948C180.789 60.5232 180.636 60.9516 180.509 61.3801C180.342 61.3946 179.25 61.5094 179.111 62.0671C178.971 62.6103 179.698 63.396 179.81 63.5108C179.293 65.2698 179.138 66.298 179.097 66.8703C179.069 67.2987 179.083 68.3721 179.851 69.229C180.538 69.9872 181.627 70.359 183.096 70.359C183.501 70.359 183.934 70.3299 184.382 70.2733L184.159 71.6022L192.939 71.5311Z" fill="#E59763"/>
<path opacity="0.2" d="M186.172 69.8158C186.172 69.8158 185.221 70.1294 184.606 70.2297L184.382 70.2733L184.173 71.5456L184.858 72.4025L186.172 69.8158Z" fill="#030202"/>
<path d="M198.422 99.9796C201.567 99.6369 203.763 97.5643 204.28 94.4053C204.754 91.5309 203.064 83.4686 199.834 78.6218C196.744 73.9901 192.954 73.1171 192.576 73.0459C192.604 72.9182 192.743 72.3605 192.939 71.502L192.954 71.4729L184.187 71.4454L183.977 72.6321C182.06 72.7323 180.201 73.1462 178.411 73.8607C175.656 74.9762 170.833 81.1519 170.47 81.6094C170.231 81.3378 168.079 78.9225 165.701 76.4199L165.687 76.4054L159.004 81.7388L159.017 81.7662C160.682 85.213 165.016 93.2187 169.225 93.3755C169.323 93.3755 169.434 93.3755 169.532 93.3755C172.272 93.3755 174.761 91.9739 176.369 90.8018C177.936 89.6588 178.985 88.4997 179.195 88.2717L181.893 99.8082L198.422 99.9796Z" fill="#FFC930"/>
<path opacity="0.2" d="M198.422 99.9796C199.441 99.8794 200.435 99.5657 201.315 99.0371L201.358 99.008L201.315 98.9789C198.98 97.2781 198.532 94.8903 198.169 92.96C197.917 91.602 197.708 90.4445 196.883 89.9013L196.855 89.8722L195.33 97.1779L198.422 99.9796Z" fill="#505050"/>
<path opacity="0.2" d="M180.816 86.4562L179.195 88.2717L181.893 99.8373L186.157 99.9796L180.816 86.4562Z" fill="#505050"/>
<path d="M205.441 77.2201C205.831 71.8447 203.036 69.9015 200.336 68.0003C198.254 66.542 196.282 65.1695 195.792 62.3387C194.786 56.5914 193.08 54.6902 188.493 54.1616C188.186 54.1325 187.878 54.1034 187.571 54.1034C184.046 54.1034 182.424 56.5058 181.782 57.964C181.782 57.964 182.033 59.6793 184.522 59.6793C184.704 59.6793 184.9 59.6647 184.877 59.689C184.704 60.9096 184.952 62.232 185.669 63.354L185.677 63.3685L185.711 63.3556C185.71 63.354 187.193 62.7962 188.521 62.7962C189.625 62.7962 190.311 63.168 190.563 63.9117C191.29 66.1265 187.947 68.4287 187.921 68.4578H187.906V68.4707C187.892 68.5144 186.801 73.2463 188.466 77.2056L188.479 77.2201H205.441Z" fill="#010005"/>
<path d="M197.232 57.8072C194.011 57.8072 191.402 55.1381 191.402 51.8449C191.402 48.5534 194.011 45.8843 197.232 45.8843C200.453 45.8843 203.064 48.5534 203.064 51.8449C203.064 55.1381 200.453 57.8072 197.232 57.8072Z" fill="#010005"/>
<path d="M188.213 69.9581C187.35 69.9581 186.648 69.2419 186.648 68.3576C186.648 67.4717 187.35 66.7555 188.213 66.7555C189.08 66.7555 189.78 67.4717 189.78 68.3576C189.78 69.2419 189.08 69.9581 188.213 69.9581Z" fill="white"/>
<path d="M181.251 97.0922V97.0631H184.257H195.344H195.359C202.629 102.839 204.182 108.129 205.831 113.733C206.769 116.921 207.734 120.209 209.775 123.811C210.796 125.626 211.929 126.971 213.243 128.543C215.411 131.131 218.108 134.361 221.94 141.395C222.038 141.581 222.136 141.767 222.234 141.953L222.205 143.497L211.244 148.515L210.026 147.914C208.6 145.628 206.714 143.225 204.881 140.896C203.735 139.438 202.545 137.921 201.469 136.435L201.413 136.35C199.078 133.118 197.065 130.331 194.519 124.912C194.464 125.67 194.423 126.456 194.408 127.256C194.339 131.217 194.799 133.475 195.373 136.35C195.945 139.237 196.673 142.824 197.065 149.416V149.53L196.072 151.045L185.109 150.888L184.005 149.572C183.613 146.284 182.955 142.567 182.313 138.965C181.893 136.549 181.488 134.248 181.194 132.274C179.978 123.911 178.803 116.02 181.251 97.0922Z" fill="#61CCFF"/>
<path opacity="0.2" d="M198.463 132.117C198.448 132.088 197.75 129.186 197.61 123.969C197.568 122.425 197.568 121.038 197.568 119.822C197.568 115.719 197.89 113.618 196.38 112.189L194.478 124.841C196.464 129 197.568 130.703 197.568 130.703L198.463 132.117Z" fill="#343434"/>
<path d="M196.478 110.574C196.239 115.076 194.842 119.609 194.519 124.912" stroke="#343434" stroke-width="0.4" stroke-linecap="round" stroke-linejoin="round"/>
<path d="M196.211 164.84L196.617 164.14C196.995 160.624 197.386 155.234 197.065 149.558V149.53H183.991L184.005 149.631C184.537 154.104 184.439 156.807 183.711 158.008C182.481 160.023 181.124 161.167 179.935 162.168C179.138 162.826 178.454 163.397 177.936 164.126L178.035 165.055L196.211 164.84Z" fill="#FFC930"/>
<path d="M196.211 167.299V167.272C196.211 167.257 196.407 166.07 196.617 164.14V164.111H177.936L177.922 164.126C177.293 164.999 176.999 165.999 176.999 167.272V167.299H196.211Z" fill="#271F0A"/>
<path d="M226.876 156.563L227.086 155.577C226.29 152.075 224.806 146.856 222.234 141.953L222.219 141.924L209.999 147.886L210.012 147.914C212.041 151.175 212.838 153.734 212.515 155.978C212.194 158.251 211.481 159.837 210.852 161.238C210.404 162.224 210.055 163.11 209.887 164.012L210.615 164.612L226.876 156.563Z" fill="#FFC930"/>
<path d="M227.743 158.836C227.743 158.808 227.547 157.551 227.099 155.591L227.086 155.562L209.887 163.998C209.691 165.084 209.859 166.142 210.419 167.299L210.433 167.328L227.743 158.836Z" fill="#271F0A"/>
<path d="M180.636 65.0838C180.859 65.2406 181.558 65.2697 181.991 64.7686" stroke="#030202" stroke-width="0.4" stroke-linecap="round" stroke-linejoin="round"/>
<path d="M181.991 62.7671C182.23 62.7671 182.411 62.5666 182.411 62.3387C182.411 62.1091 182.215 61.9103 181.991 61.9103C181.754 61.9103 181.572 62.1091 181.572 62.3387C181.572 62.5666 181.768 62.7671 181.991 62.7671Z" fill="#171314"/>
<path d="M184.312 70.3007C185.25 70.173 185.99 69.958 185.99 69.958" stroke="#030202" stroke-width="0.4" stroke-linecap="round" stroke-linejoin="round"/>
<path d="M186.535 66.07L187.794 65.4977" stroke="#030202" stroke-width="0.4" stroke-linecap="round" stroke-linejoin="round"/>
<path d="M197.232 88.5142L195.344 97.0922H181.292" stroke="#505050" stroke-width="0.4" stroke-linecap="round" stroke-linejoin="round"/>
<path d="M198.422 93.5178L196.296 92.8032" stroke="#505050" stroke-width="0.4" stroke-linecap="round" stroke-linejoin="round"/>
<path d="M179.209 88.2426C180.244 87.2273 181.222 86.0844 181.222 86.0844" stroke="#505050" stroke-width="0.4" stroke-linecap="round" stroke-linejoin="round"/>
<path d="M170.47 81.666V84.1541" stroke="#505050" stroke-width="0.4" stroke-linecap="round" stroke-linejoin="round"/>
<path d="M165.687 76.449L159.06 81.7533" stroke="#505050" stroke-width="0.4" stroke-linecap="round" stroke-linejoin="round"/>
<path d="M184.295 156.092L186.954 156.421" stroke="#271F0A" stroke-width="0.1" stroke-linecap="round" stroke-linejoin="round"/>
<path d="M183.727 158.099L185.781 159.594" stroke="#271F0A" stroke-width="0.1" stroke-linecap="round" stroke-linejoin="round"/>
<path d="M212.191 152.298L215.061 151.559" stroke="#271F0A" stroke-width="0.1" stroke-linecap="round" stroke-linejoin="round"/>
<path d="M212.733 155.147L215.619 154.848" stroke="#271F0A" stroke-width="0.1" stroke-linecap="round" stroke-linejoin="round"/>
<path d="M197.036 149.558H184.032" stroke="#271F0A" stroke-width="0.1" stroke-linecap="round" stroke-linejoin="round"/>
<path d="M210.055 147.901L222.205 141.968" stroke="#271F0A" stroke-width="0.1" stroke-linecap="round" stroke-linejoin="round"/>
<path d="M153.747 70.5724C154.627 70.5304 155.494 70.6451 156.333 70.9297" stroke="#030202" stroke-width="0.4" stroke-linecap="round" stroke-linejoin="round"/>
<path d="M153.019 72.4606C154.096 72.2165 155.633 72.7888 155.633 72.7888" stroke="#030202" stroke-width="0.4" stroke-linecap="round" stroke-linejoin="round"/>
<path d="M152.655 74.5186C153.816 74.3618 155.075 74.7902 155.075 74.7902" stroke="#030202" stroke-width="0.4" stroke-linecap="round" stroke-linejoin="round"/>
<path d="M222.827 137.203L220.202 121.741L235.325 124.425L231.816 128.011L238.158 134.495L232.676 140.1L226.334 133.616L222.827 137.203Z" fill="#FF4F32"/>
<path d="M70.187 151.204L82.0938 144.926C82.108 144.926 82.108 144.926 82.108 144.941L82.4828 146.386C82.7848 147.991 83.0299 149.259 83.2038 149.671L82.4828 157.704C82.4828 157.719 82.4827 157.719 82.4685 157.719H72.9114L71.6132 157.085C71.6132 157.085 71.6132 157.085 71.599 157.071C71.0519 155.522 70.5759 154.005 70.187 152.502V151.204Z" fill="#A66241"/>
<path d="M51.8365 156.864L51.4902 156.083C51.4902 156.083 51.4902 156.083 51.4902 156.068C51.6784 154.476 51.865 152.943 52.1544 151.47L52.8311 149.437L52.8454 149.42L66.0789 149.627C66.0931 149.627 66.0931 149.642 66.0931 149.642L65.7753 151.454C65.4305 152.634 65.2139 153.68 65.1127 154.505L61.6102 161.507C61.6102 161.507 61.596 161.521 61.596 161.507L51.8365 156.864Z" fill="#A66241"/>
<path d="M42.1071 121.184L43.0147 116.866L43.029 116.851L58.1932 117.692L59.1024 118.178C59.289 118.193 71.3824 119.224 75.9664 124.015C79.6001 127.831 80.0318 133.092 81.4296 140.652C81.8044 142.685 82.1649 144.705 82.4827 146.355C82.4827 146.355 82.4827 146.37 82.4685 146.37L70.2012 152.487C70.1869 152.487 70.1869 152.487 70.1869 152.471C69.8691 151.234 69.5813 150.085 69.3362 149.008C67.9953 142.967 67.8514 139.326 67.8514 134.817C67.8514 134.801 67.8514 134.801 67.8372 134.801L52.9466 134.846C45.8974 134.904 40.6223 128.244 42.1071 121.184Z" fill="#343434"/>
<path opacity="0.15" d="M67.8657 134.832L70.4605 128.155C70.4605 128.14 70.4747 128.14 70.489 128.155C74.6698 131.603 73.8475 139.001 69.3647 148.979C69.3647 148.994 69.3362 148.994 69.3362 148.979C68.0096 142.981 67.8514 139.311 67.8657 134.832Z" fill="black"/>
<path d="M35.9655 123.719C36.8748 119.666 38.3153 117.073 38.4022 116.911H38.4165L46.835 117.47C46.835 117.47 64.3205 119.46 69.6968 125.988C74.0784 131.294 67.9384 144.189 65.7753 151.44L65.761 151.454H52.1686C52.1544 151.454 52.1544 151.44 52.1544 151.44C53.3356 145.191 55.2821 139.695 57.6034 134.95C57.6034 134.933 57.6034 134.933 57.5876 134.933H46.503C37.999 134.933 34.6831 129.466 35.9655 123.719Z" fill="#343434"/>
<path opacity="0.15" d="M59.8804 130.661L57.6176 134.919L57.6034 134.934H48.7958C53.5949 134.95 58.122 130.145 59.8804 130.661C59.8946 130.661 59.8804 130.646 59.8804 130.661Z" fill="black"/>
<path d="M62.6618 121.376C65.5602 122.569 68.1392 124.073 69.7252 125.988C72.796 129.716 70.6771 137.16 68.3843 143.806" stroke="black" stroke-width="0.2" stroke-linecap="round" stroke-linejoin="round"/>
<path d="M65.7895 151.454H52.1686" stroke="black" stroke-width="0.4" stroke-linecap="round" stroke-linejoin="round"/>
<path d="M82.4828 146.37L70.187 152.516" stroke="black" stroke-width="0.4" stroke-linecap="round" stroke-linejoin="round"/>
<path d="M58.1789 82.2916C58.1078 81.4073 58.2517 80.3177 58.0635 79.2555C57.8485 78.0624 57.2571 76.913 56.5218 75.9398C55.1382 74.0838 51.0001 73.5228 47.4976 75.0862C44.3699 76.4555 44.558 79.3299 44.558 82.2916L44.1675 88.2313V91.0604V91.6214L44.4711 95.9541C44.4711 95.9541 44.4711 95.9686 44.4853 95.9686L53.2786 97.3687C53.2929 97.3687 53.2929 97.3687 53.2929 97.3541V90.7517V89.4389C53.2929 89.4244 53.3071 89.4244 53.3071 89.4244C53.538 89.4842 56.0316 90.0888 57.3867 88.8052C59.2463 87.1109 58.3371 84.1637 58.1789 82.2916Z" fill="#A66241"/>
<path opacity="0.2" d="M50.755 88.3929L53.2786 90.737C53.2929 90.7516 53.3071 90.737 53.3071 90.7225V89.4388C53.3071 89.4388 53.3071 89.4243 53.2929 89.4243C53.1632 89.3952 52.0674 89.101 50.785 88.3638C50.755 88.3638 50.7407 88.3783 50.755 88.3929Z" fill="#171717"/>
<path d="M56.9535 75.3949C55.5841 73.5228 50.8704 72.2699 47.3679 73.8332C44.2402 75.2025 44.1675 79.27 44.1675 82.2334V88.2312C44.1675 88.2458 44.1833 88.2458 44.1833 88.2458C45.393 88.1568 46.5314 87.5377 47.3537 86.6243V86.6097C47.1956 86.4044 44.6292 82.9706 46.6326 81.2602C48.3768 79.7712 50.4956 82.4985 50.6838 82.7637C50.6838 82.7782 50.698 82.7637 50.7123 82.7637L51.9235 79.9345C51.9235 79.9345 51.9235 79.9199 51.9377 79.9199L58.035 79.2555C58.0493 79.2555 58.0493 79.2409 58.0493 79.2409C57.9623 77.8555 57.7172 76.4409 56.9535 75.3949Z" fill="#17151C"/>
<path d="M65.2139 101.008C63.8161 99.1809 61.5818 96.4989 59.7222 94.5831C56.9677 91.7685 53.8542 91.1493 53.3071 91.0604C53.2929 91.0604 53.2929 91.0604 53.2929 91.075C53.2786 91.3401 53.0905 94.7303 49.6465 94.7303C46.3022 94.7303 44.2829 91.2819 44.1675 91.075C44.1675 91.075 44.1533 91.0604 44.1533 91.075C42.1213 91.636 40.2476 92.5785 38.5746 93.8459C36.8305 95.1425 33.5446 98.7396 30.9071 103.47V103.485L37.0044 108.186C37.0044 108.186 37.0044 108.186 37.0044 108.2L37.7112 118.266C37.7112 118.28 37.7112 118.28 37.7255 118.28H59.0723C59.0866 118.28 59.0866 118.266 59.0866 118.266L58.2659 110.396C58.2659 110.381 58.2801 110.381 58.2944 110.381C58.6549 110.897 59.0866 111.354 59.5341 111.841H59.5483L60.9177 110.441L65.2139 101.008Z" fill="#0A4866"/>
<path opacity="0.2" d="M40.9544 108.422L39.4395 111.501L37.7397 118.251C37.7397 118.266 37.7397 118.266 37.7539 118.266H42.4534C42.4676 118.266 42.4676 118.266 42.4676 118.251L42.0201 106.535C42.0201 106.521 42.0059 106.521 41.9917 106.535L40.9544 108.422Z" fill="#2F2F2F"/>
<path d="M85.0333 89.1301C85.0333 87.5684 78.4743 90.383 78.0141 90.5884C77.9999 90.5884 77.9857 90.5883 77.9999 90.5738C78.0568 90.3539 78.3747 88.9684 77.8544 88.8359C77.2789 88.6888 75.6929 89.8673 73.5455 92.6528C71.512 95.2751 66.8995 102.393 66.6544 102.793C66.6544 102.807 66.6402 102.807 66.626 102.793C66.5548 102.704 66.2085 102.261 65.6899 101.583C65.5444 101.407 65.4005 101.215 65.2424 101.008C65.2424 100.993 65.2282 101.008 65.2139 101.008L59.5625 111.827V111.841C60.1112 112.415 60.8465 113.063 61.7399 113.653C63.2247 114.627 65.1554 115.451 67.5052 115.451C73.9203 115.451 77.6252 100.993 77.7248 100.61C77.7248 100.61 77.7248 100.596 77.7406 100.596C78.6909 100.448 79.3835 99.653 79.4547 99.5786H79.4689C80.0887 99.7419 80.7529 99.6966 81.3284 99.4315C82.8132 98.7832 82.5112 97.7663 82.4828 97.6629V97.6483C83.6924 96.2629 82.3673 95.2896 82.2092 95.1732C82.1934 95.1732 82.1934 95.1571 82.2092 95.1425C82.323 95.0552 83.0156 94.4651 82.6266 93.39C82.3531 92.6237 81.0122 92.0191 80.7813 91.9302C80.7671 91.9302 80.7671 91.9156 80.7813 91.9011C81.1845 91.7394 85.0333 90.1033 85.0333 89.1301Z" fill="#A66241"/>
<path opacity="0.2" d="M65.4306 104.649L66.6118 102.822V102.807C66.5691 102.747 66.2085 102.291 65.6899 101.627C65.6741 101.612 65.6598 101.627 65.6598 101.627L65.4005 104.634C65.4005 104.648 65.4306 104.663 65.4306 104.649Z" fill="#2F2F2F"/>
<path opacity="0.2" d="M57.7172 104.678L58.2801 110.323C58.6549 110.868 59.1024 111.354 59.5625 111.841C59.5625 111.841 60.7168 113.049 61.7399 113.653L57.733 104.663C57.733 104.663 57.7172 104.663 57.7172 104.678Z" fill="#2F2F2F"/>
<path d="M66.6987 102.733L65.4306 104.648" stroke="#171717" stroke-width="0.4" stroke-linecap="round" stroke-linejoin="round"/>
<path d="M57.7172 104.678L58.2801 110.323" stroke="#2F2F2F" stroke-width="0.4" stroke-linecap="round" stroke-linejoin="round"/>
<path d="M47.9309 83.1322L49.0109 84.2218" stroke="#171717" stroke-width="0.4" stroke-linecap="round" stroke-linejoin="round"/>
<path d="M53.3498 89.4389C52.0816 89.0719 50.755 88.3929 50.755 88.3929" stroke="#171717" stroke-width="0.4" stroke-linecap="round" stroke-linejoin="round"/>
<path d="M54.7049 85.6381C54.9358 85.9759 55.3105 86.1974 55.7138 86.2265" stroke="#171717" stroke-width="0.4" stroke-linecap="round" stroke-linejoin="round"/>
<path d="M58.424 116.35C58.4968 115.745 54.4029 114.287 50.6554 113.417C46.8493 112.518 39.887 111.561 39.4554 111.502C39.4395 111.502 39.4395 111.487 39.4395 111.487C39.5265 111.325 40.1891 110.072 40.9386 108.436V108.422L30.9214 103.484H30.9071C29.6231 105.783 28.053 108.82 27.3319 111.502C25.1703 119.74 30.9214 120.181 33.804 120.33C36.6724 120.477 44.1975 119.902 44.313 119.887C44.4126 119.916 50.6553 121.803 52.5149 121.803C54.229 121.803 54.259 121.051 54.2448 120.933C54.2448 120.919 54.2448 120.919 54.259 120.919C54.4456 120.933 56.234 120.993 56.1186 119.755C56.1186 119.74 56.1186 119.74 56.1328 119.74C56.3194 119.711 58.5252 119.297 57.2713 118.266C56.5929 117.706 53.2344 116.364 52.6145 116.099C52.6003 116.099 52.6003 116.07 52.6145 116.07C54.259 116.246 58.2801 117.514 58.424 116.35Z" fill="#A66241"/>
<path d="M39.4395 111.501L42.2225 111.899" stroke="#171717" stroke-width="0.4" stroke-linecap="round" stroke-linejoin="round"/>
<path d="M39.4395 111.502L42.0201 106.535" stroke="#2F2F2F" stroke-width="0.4" stroke-linecap="round" stroke-linejoin="round"/>
<path d="M54.259 120.904L49.6465 119.297" stroke="#171717" stroke-width="0.4" stroke-linecap="round" stroke-linejoin="round"/>
<path d="M56.1328 119.74L50.5099 117.234" stroke="#171717" stroke-width="0.4" stroke-linecap="round" stroke-linejoin="round"/>
<path d="M52.6145 116.07L51.2167 115.569" stroke="#171717" stroke-width="0.4" stroke-linecap="round" stroke-linejoin="round"/>
<path d="M77.9857 90.6045L77.1776 92.6075C77.1776 92.6075 77.4085 95.6 76.2558 97.2215" stroke="#171717" stroke-width="0.4" stroke-linecap="round" stroke-linejoin="round"/>
<path d="M82.2092 95.1731C80.6232 96.2046 79.1526 96.0865 78.849 95.7616C78.4174 95.3202 78.5612 94.2888 80.0033 93.6987" stroke="#171717" stroke-width="0.4" stroke-linecap="round" stroke-linejoin="round"/>
<path d="M82.4828 97.6483C81.6178 98.0913 79.714 98.5472 79.1384 97.81C78.5613 97.0744 79.4262 96.1901 79.4262 96.1901" stroke="#171717" stroke-width="0.4" stroke-linecap="round" stroke-linejoin="round"/>
<path d="M79.4547 99.564C78.9803 99.1954 78.5612 98.6651 78.9218 98.1785C78.9803 98.0912 79.0514 98.0168 79.1384 97.957" stroke="#171717" stroke-width="0.4" stroke-linecap="round" stroke-linejoin="round"/>
<path d="M56.0885 83.5881C56.1755 83.8096 56.2909 84.1637 56.234 84.3544C56.1755 84.4725 56.0743 84.5759 55.9446 84.6212" stroke="#171717" stroke-width="0.4" stroke-linecap="round" stroke-linejoin="round"/>
<path d="M54.0282 83.0579C54.2653 83.0579 54.4598 82.8607 54.4598 82.6165C54.4598 82.3708 54.2653 82.1736 54.0282 82.1736C53.7878 82.1736 53.5949 82.3708 53.5949 82.6165C53.5949 82.8607 53.7878 83.0579 54.0282 83.0579Z" fill="#17151C"/>
<path d="M57.1274 82.8364C57.3646 82.8364 57.5591 82.6392 57.5591 82.3951C57.5591 82.151 57.3646 81.9537 57.1274 81.9537C56.8871 81.9537 56.6941 82.151 56.6941 82.3951C56.6941 82.6392 56.8871 82.8364 57.1274 82.8364Z" fill="#17151C"/>
<path opacity="0.2" d="M78.7051 98.5908C78.7779 98.1786 78.9945 98.0315 79.1526 97.8698C79.1526 97.8698 79.1526 97.8552 79.1526 97.8407C79.0372 97.7663 78.5897 97.118 79.355 96.1303C79.355 96.1157 79.355 96.1157 79.355 96.1012C79.1953 96.0268 77.9414 95.364 79.0799 94.2727V94.2582C78.936 94.1256 77.3658 92.7708 77.1776 92.6075C77.1634 92.6075 77.1634 92.6075 77.1492 92.6237C77.1492 93.2558 77.3943 95.6582 76.2558 97.2215V97.2361C77.1492 98.9594 78.5755 98.6361 78.7051 98.5908C78.7051 98.607 78.7051 98.607 78.7051 98.5908Z" fill="#171717"/>
<path d="M69.624 163.657C68.212 161.256 65.07 160.606 65.04 155.729C65.04 155.464 65.04 155.169 65.07 154.873C65.0843 154.755 65.0843 154.654 65.0985 154.536C65.0985 154.521 65.0985 154.521 65.0843 154.521L61.9708 154.505C60.8465 154.505 59.9958 155.522 60.1824 156.657L60.6726 159.767C60.6726 159.782 60.6583 159.796 60.6441 159.782C60.2978 159.442 56.8965 156.319 51.5045 156.083C51.4903 156.083 51.4903 156.083 51.4903 156.097C51.3748 157.143 51.2894 158.175 51.2167 159.281C51.1882 159.693 51.174 160.107 51.1455 160.504C51.1013 161.521 51.0443 162.596 51.0443 163.673L60.4575 164.645L69.624 163.657Z" fill="#CECECE"/>
<path d="M69.624 163.657H51.0443C51.0301 163.657 51.0301 163.657 51.0301 163.673C51.0159 164.541 51.0159 165.44 51.0443 166.341C51.0443 166.355 51.0443 166.355 51.0586 166.355H70.3166C70.3309 166.355 70.3309 166.355 70.3309 166.341C70.3309 165.603 70.2154 164.999 70.0431 164.468C69.9134 164.174 69.7837 163.924 69.624 163.657Z" fill="#61CCFF"/>
<path d="M65.3578 158.382L63.3544 159.222" stroke="black" stroke-width="0.4" stroke-linecap="round" stroke-linejoin="round"/>
<path d="M66.3524 160.076L64.6652 161.372" stroke="black" stroke-width="0.4" stroke-linecap="round" stroke-linejoin="round"/>
<path d="M60.6583 159.796L61.4363 163.642" stroke="black" stroke-width="0.4" stroke-linecap="round" stroke-linejoin="round"/>
<path d="M91.2034 155.478C88.8821 153.96 85.7259 154.786 83.5628 150.437C83.4631 150.203 83.2465 149.76 83.218 149.671C83.218 149.657 83.2038 149.657 83.2038 149.671L80.9537 150.733C79.801 151.293 79.412 152.782 80.1472 153.871L81.7332 156.201C81.7475 156.215 81.7332 156.23 81.719 156.23C81.2431 156.068 76.7159 154.697 71.6132 157.085L71.599 157.1C71.9311 158.042 72.2774 158.986 72.6664 159.943C72.8245 160.327 72.9826 160.71 73.1423 161.093C73.5455 162.022 74.0215 163.054 74.4816 164.011C74.4959 164.04 74.6413 164.158 74.684 164.203H74.6983L91.1749 155.671C91.2176 155.64 91.246 155.507 91.2034 155.478Z" fill="#CECECE"/>
<path d="M91.7947 155.95C91.6066 155.758 91.4042 155.611 91.2033 155.478H91.1891L74.5117 163.996C74.5117 163.996 74.4959 164.011 74.5117 164.011C74.8864 164.777 75.2754 165.558 75.6929 166.34C75.6929 166.34 75.7071 166.355 75.7071 166.34L92.9332 157.555C92.9332 157.555 92.9475 157.541 92.9332 157.541C92.6012 156.849 92.2122 156.333 91.7947 155.95Z" fill="#61CCFF"/>
<path d="M85.2499 152.767L83.8521 154.49" stroke="black" stroke-width="0.4" stroke-linecap="round" stroke-linejoin="round"/>
<path d="M86.8502 153.813L86.0564 155.654" stroke="black" stroke-width="0.4" stroke-linecap="round" stroke-linejoin="round"/>
<path d="M81.7759 156.23L84.083 159.119" stroke="black" stroke-width="0.4" stroke-linecap="round" stroke-linejoin="round"/>
<path d="M36.1822 123.13H40.1179L39.4838 126.947C39.2245 128.465 38.2299 129.584 36.7166 129.584H36.5285" stroke="black" stroke-width="0.4" stroke-linecap="round" stroke-linejoin="round"/>
<path d="M57.6034 134.933C57.6034 134.933 59.3317 131.692 59.8804 130.661" stroke="black" stroke-width="0.5" stroke-linecap="round" stroke-linejoin="round"/>
<path d="M39.7858 138.534L39.4933 161.722" stroke="#331E1A" stroke-linecap="round" stroke-linejoin="round"/>
<path d="M39.4933 161.722L45.2143 166.293" stroke="#331E1A" stroke-width="4" stroke-linecap="round" stroke-linejoin="round"/>
<path d="M39.4933 161.722L33.8356 166.293" stroke="#331E1A" stroke-width="4" stroke-linecap="round" stroke-linejoin="round"/>
<path d="M26.3563 134.751H53.4937C54.5104 134.751 55.3437 135.601 55.3437 136.642C55.3437 137.682 54.5104 138.534 53.4937 138.534H26.3563C25.3395 138.534 24.5062 137.682 24.5062 136.642C24.5062 135.601 25.3395 134.751 26.3563 134.751Z" fill="#FF4F32"/>
</g>
<defs>
<clipPath id="clip0_30_713">
<rect width="253" height="194" rx="8" fill="white"/>
</clipPath>
</defs>
</svg>
