<svg width="253" height="194" viewBox="0 0 253 194" fill="none" xmlns="http://www.w3.org/2000/svg">
<g clip-path="url(#clip0_30_491)">
<path d="M253 0H0V194H253V0Z" fill="#22A699"/>
<path d="M192.272 95.9217L197.743 97.2635L193.094 100.497L194.723 106.01L189.631 103.488L185.773 107.675L185.362 101.936L179.891 100.61L184.556 97.3767L182.943 91.88L188.003 94.3697L191.877 90.1825L192.272 95.9217Z" fill="#FFB6B6"/>
<path d="M78.8791 138.196L80.6659 127.688L70.3878 129.514L72.7596 131.955L68.4428 136.369L72.1746 140.184L76.4914 135.771L78.8791 138.196Z" fill="#F24C3D"/>
<path d="M163.644 34.9766L173.938 36.8034L172.151 26.2951L169.763 28.7363L165.446 24.3228L161.714 28.1381L166.031 32.5516L163.644 34.9766Z" fill="#F2BE22"/>
<path d="M134.001 27.0145H62.2997C57.4436 27.0145 53.5174 31.0287 53.5174 35.9919V104.867C53.5174 109.832 57.4436 113.846 62.2997 113.846H134.001C138.856 113.846 142.782 109.832 142.782 104.867V35.9919C142.782 31.0287 138.84 27.0145 134.001 27.0145Z" fill="#7B7479"/>
<path d="M63.1187 42.9564C65.1143 42.9564 66.7303 41.3042 66.7303 39.264C66.7303 37.2254 65.1143 35.5731 63.1187 35.5731C61.1248 35.5731 59.5087 37.2254 59.5087 39.264C59.5087 41.3042 61.1248 42.9564 63.1187 42.9564Z" fill="white"/>
<path d="M73.604 42.9564C75.598 42.9564 77.214 41.3042 77.214 39.264C77.214 37.2254 75.598 35.5731 73.604 35.5731C71.6085 35.5731 69.9924 37.2254 69.9924 39.264C69.9924 41.3042 71.6085 42.9564 73.604 42.9564Z" fill="white"/>
<path d="M84.1035 42.9564C86.0975 42.9564 87.7135 41.3042 87.7135 39.264C87.7135 37.2254 86.0975 35.5731 84.1035 35.5731C82.108 35.5731 80.4935 37.2254 80.4935 39.264C80.4935 41.3042 82.108 42.9564 84.1035 42.9564Z" fill="white"/>
<path d="M167.021 49.145H204.065C206.322 49.145 208.154 51.0187 208.154 53.3273V79.6224C208.154 81.931 206.322 83.8047 204.065 83.8047H167.021C164.765 83.8047 162.932 81.931 162.932 79.6224V53.3273C162.932 51.0187 164.765 49.145 167.021 49.145Z" fill="#FFC930"/>
<path d="M170.007 55.1785H201.08C201.69 55.1785 202.183 55.6845 202.183 56.3085V60.3647C202.183 60.9888 201.69 61.4932 201.08 61.4932H170.007C169.396 61.4932 168.901 60.9888 168.901 60.3647V56.3085C168.901 55.6845 169.396 55.1785 170.007 55.1785Z" fill="#7B7479"/>
<path d="M170.007 64.8606H189.138C189.75 64.8606 190.243 65.3666 190.243 65.9906V70.0452C190.243 70.6709 189.75 71.1753 189.138 71.1753H170.007C169.396 71.1753 168.901 70.6709 168.901 70.0452V65.9906C168.901 65.3666 169.396 64.8606 170.007 64.8606Z" fill="white"/>
<path d="M195.261 64.8606H201.08C201.69 64.8606 202.183 65.3666 202.183 65.9906V70.0452C202.183 70.6709 201.69 71.1753 201.08 71.1753H195.261C194.649 71.1753 194.155 70.6709 194.155 70.0452V65.9906C194.155 65.3666 194.649 64.8606 195.261 64.8606Z" fill="#7B7479"/>
<path d="M200.887 79.8762C200.743 79.8762 200.626 79.7566 200.626 79.6095C200.626 79.5383 200.654 79.4688 200.702 79.4187C201.992 78.1011 201.992 75.9606 200.702 74.6414C200.599 74.5364 200.599 74.3682 200.702 74.2631C200.805 74.1581 200.969 74.1581 201.072 74.2631C202.568 75.7925 202.568 78.2757 201.072 79.8051C201.024 79.8471 200.956 79.8762 200.887 79.8762Z" fill="#211800"/>
<path d="M199.974 79.0469C199.83 79.0469 199.713 78.9289 199.713 78.7818C199.713 78.7106 199.74 78.6411 199.789 78.591C200.634 77.7293 200.634 76.3261 199.789 75.4628C199.687 75.3577 199.687 75.1895 199.789 75.0828C199.892 74.9778 200.057 74.9778 200.159 75.0828C201.209 76.1563 201.209 77.9039 200.159 78.9774C200.112 79.0194 200.042 79.055 199.974 79.0469Z" fill="#211800"/>
<path d="M199.117 78.2272C198.972 78.2272 198.856 78.1076 198.856 77.9605C198.856 77.8894 198.883 77.8198 198.931 77.7713C199.329 77.3639 199.329 76.6979 198.931 76.2905C198.828 76.1854 198.828 76.0173 198.931 75.9122C199.034 75.8055 199.2 75.8055 199.302 75.9122C199.906 76.5281 199.906 77.5385 199.302 78.1561C199.253 78.1981 199.185 78.2272 199.117 78.2272Z" fill="#211800"/>
<path d="M198.335 77.3364C198.501 77.3364 198.637 77.1974 198.637 77.0277C198.637 76.8563 198.501 76.7189 198.335 76.7189C198.167 76.7189 198.033 76.8563 198.033 77.0277C198.033 77.1974 198.167 77.3364 198.335 77.3364Z" fill="#211800"/>
<path d="M125.932 138.516L118.741 136.215V132.586H116.304L103.717 144.066L116.304 157.017H118.741V153.388L125.932 151.087V138.516Z" fill="#CECDCE"/>
<path opacity="0.3" d="M119.563 136.476L118.741 136.215V153.388L121.559 152.487L119.563 136.476Z" fill="#141414"/>
<path d="M111.432 154.527H99.0195V163.185H111.432V154.527Z" fill="white"/>
<path d="M108.067 154.527H95.6545V163.185H108.067V154.527Z" fill="#CECDCE"/>
<path d="M113.984 161.524H126.165V169.708H113.984L106.42 166.032L113.984 161.524Z" fill="#CECDCE"/>
<path d="M113.984 161.524H85.0981V169.708H113.984V161.524Z" fill="#FFC930"/>
<path d="M116.304 132.586H87.4194V157.017H116.304V132.586Z" fill="#FFC930"/>
<path d="M112.824 136.144H90.8982V153.461H112.824V136.144Z" fill="white"/>
<path d="M112.243 163.304H102.267V165.438H112.243V163.304Z" fill="black"/>
<path d="M118.741 136.215V153.388" stroke="#141414" stroke-linecap="round" stroke-linejoin="round"/>
<path d="M94.0306 139.583H101.919" stroke="#FFC930" stroke-linecap="round" stroke-linejoin="round"/>
<path d="M94.0306 141.955H97.7434" stroke="#FFC930" stroke-linecap="round" stroke-linejoin="round"/>
<path d="M94.0306 145.513H99.8307" stroke="#FFC930" stroke-linecap="round" stroke-linejoin="round"/>
<path d="M78.2687 47.9601H84.1794C85.3733 47.9601 86.3378 48.9463 86.3378 50.1685V81.459H76.1103V50.1685C76.1261 48.9463 77.0907 47.9601 78.2687 47.9601Z" fill="white"/>
<path d="M95.0647 69.2953H100.974C102.169 69.2953 103.134 70.2815 103.134 71.5037V81.4591H92.9063V71.5037C92.9063 70.2815 93.8709 69.2953 95.0647 69.2953Z" fill="#231F20"/>
<path d="M119.944 64.4437V81.4591H109.655V64.4437C109.655 63.2069 110.635 62.2046 111.845 62.2046H117.754C118.964 62.2046 119.944 63.2069 119.944 64.4437Z" fill="#FFC930"/>
<path d="M73.3858 81.459H122.639" stroke="#231F20" stroke-width="4" stroke-linecap="round" stroke-linejoin="round"/>
<path opacity="0.2" d="M55.8356 62.8318C50.4593 68.1668 43.3437 67.5201 43.3437 67.5201V81.2618C43.3437 91.2851 53.7799 95.3268 55.8356 95.3268C57.8912 95.3268 68.3274 91.2851 68.3274 81.2618V67.5201C68.3274 67.5201 61.2118 68.1668 55.8356 62.8318Z" fill="#215067"/>
<path d="M53.7009 60.8433C48.3246 66.1783 41.209 65.5316 41.209 65.5316V79.2733C41.209 89.2966 51.6452 93.3383 53.7009 93.3383C55.7565 93.3383 66.1927 89.2966 66.1927 79.2733V65.5316C66.1927 65.5316 59.0771 66.1783 53.7009 60.8433Z" fill="#61CCFF"/>
<path d="M53.7008 83.7514C57.2998 83.7514 60.2156 80.7703 60.2156 77.0907C60.2156 73.4128 57.2998 70.4301 53.7008 70.4301C50.1035 70.4301 47.1861 73.4128 47.1861 77.0907C47.1861 80.7703 50.1035 83.7514 53.7008 83.7514Z" fill="#FFC930"/>
<path d="M51.5662 76.8483L53.3055 78.6266L55.8355 75.5549" stroke="#020202" stroke-linecap="round" stroke-linejoin="round"/>
<path d="M193.651 161.41L174.598 169.624C174.583 169.624 174.583 169.624 174.583 169.608C174.314 168.866 174.187 168.075 174.203 167.301L174.266 167.091L193.271 158.925C193.287 158.925 193.319 159.07 193.319 159.07C193.603 160.522 193.667 161.296 193.651 161.41C193.667 161.41 193.667 161.41 193.651 161.41Z" fill="#CECDCE"/>
<path d="M193.319 159.054C192.862 156.519 192.229 153.986 191.535 151.501C191.409 151.081 191.268 150.597 191.126 150.145L191.11 150.129L183.517 150.242L177.345 152.646C177.329 152.646 177.329 152.662 177.329 152.662C177.85 153.711 178.292 154.873 178.575 156.004C178.813 157.004 178.844 157.843 178.607 158.537C177.377 162.071 174.345 164.024 174.203 167.285L193.319 159.054Z" fill="#231F20"/>
<path d="M156.477 169.64H135.782C135.766 169.64 135.766 169.64 135.766 169.624C135.798 168.85 136.003 168.059 136.335 167.349C136.335 167.349 136.335 167.333 136.351 167.333L147.18 166.413L157.061 167.333C157.077 167.333 157.077 167.349 157.077 167.349C156.76 168.785 156.525 169.543 156.477 169.64C156.493 169.64 156.493 169.64 156.477 169.64Z" fill="#CECDCE"/>
<path d="M144.844 156.084C144.828 156.084 144.828 156.084 144.844 156.084C144.844 157.633 144.702 158.925 144.355 159.893C144.213 160.312 143.992 160.7 143.709 161.038C141.245 163.815 137.694 164.379 136.337 167.333H157.078C157.598 164.863 158.041 162.427 158.31 159.942C158.342 159.635 158.389 159.263 158.419 158.909C158.419 158.909 158.419 158.893 158.405 158.893L151.949 156.278L144.844 156.084Z" fill="#231F20"/>
<path d="M140.061 48.1476C139.776 48.7943 140.771 49.6495 140.866 49.7303V49.7465C140.296 51.5863 139.982 53.8124 140.771 55.088C141.718 56.6852 143.691 57.1379 145.979 56.8307C145.995 56.8307 145.995 56.8307 145.995 56.8469L145.821 57.8961L154.472 59.4772C154.488 59.4772 154.488 59.4772 154.488 59.461C154.599 58.9938 155.971 58.1871 156.05 57.6698C156.129 57.2511 156.177 56.7984 156.256 56.3473C156.697 53.8124 156.65 50.9558 156.966 49.0513C157.549 45.4526 158.103 42.79 154.03 40.095C151.615 38.4977 148.679 38.2552 145.995 38.9649C145.995 38.9649 142.365 39.6908 142.207 44.1464C142.207 44.1625 141.465 47.2601 141.402 47.4541C141.402 47.4541 141.402 47.4702 141.386 47.4702C141.307 47.5026 140.265 47.6319 140.061 48.1476Z" fill="#D08058"/>
<path opacity="0.15" d="M145.853 57.8961C146.074 57.8476 147.874 57.4111 149.2 55.7815C149.216 55.7653 149.2 55.7491 149.185 55.7491C147.826 56.475 146.153 56.7984 146.027 56.8307C146.027 56.8307 146.011 56.8307 146.011 56.8469L145.837 57.8799C145.821 57.8799 145.837 57.8961 145.853 57.8961Z" fill="black"/>
<path d="M164.274 66.6585C162.538 62.3177 159.475 59.6227 155.908 58.8807C155.892 58.8807 155.892 58.8645 155.892 58.8645L156.066 57.686C156.066 57.6698 156.066 57.6698 156.05 57.6698L145.885 57.7021C145.869 57.7021 145.853 57.7183 145.853 57.7345L145.663 58.7514C145.663 58.7675 145.663 58.7675 145.647 58.7675C145.459 58.7837 143.328 58.913 140.534 59.5581C136.288 60.5264 130.478 68.4028 125.901 74.0192H125.885L118.94 70.8068H118.924L115.452 75.3254L114.062 81.8293V81.8454C117.613 84.3157 122.159 86.8328 126.043 86.752C132.578 86.5903 138.386 79.9572 138.782 79.5061C138.797 79.49 138.813 79.5061 138.813 79.5223L140.296 87.7204C140.296 87.7204 140.296 87.7689 140.312 87.7689L158.324 88.0276L162.317 91.5454C162.317 91.5454 162.317 91.5454 162.333 91.5454C162.475 91.5454 164.969 91.4646 166.343 88.0276C167.242 85.5411 166.058 71.1625 164.274 66.6585Z" fill="#0E2954"/>
<path opacity="0.2" d="M143.517 74.3086L142.98 87.7204C142.98 87.7366 142.98 87.7366 142.964 87.7366H140.296C140.296 87.7366 140.281 87.7366 140.281 87.7204L138.797 79.49V79.4738L143.486 74.2762C143.502 74.2762 143.517 74.2924 143.517 74.3086Z" fill="black"/>
<path d="M142.222 44.1625C144.148 46.5665 147.385 48.922 147.573 49.0675H147.589C147.779 48.9058 151.283 46.0346 153.114 47.7936C155.546 50.0197 152.119 53.3452 151.063 53.9094C151.047 53.9094 151.047 53.9256 151.063 53.9418C153.241 56.2504 156.05 56.3474 156.256 56.3474C156.256 56.3474 156.272 56.3474 156.272 56.3312C156.713 53.9418 157.282 50.8426 157.549 49.213C158.134 45.6143 158.34 41.7569 154.283 39.062C151.868 37.4647 148.489 37.4 145.821 38.1097H145.805C145.695 37.9642 143.974 35.8028 141.544 37.1414C139.428 38.5624 140.233 41.6761 142.222 44.1625Z" fill="#231F20"/>
<path d="M143.203 48.568C143.464 48.568 143.677 48.3514 143.677 48.083C143.677 47.8162 143.464 47.5996 143.203 47.5996C142.94 47.5996 142.73 47.8162 142.73 48.083C142.73 48.3514 142.94 48.568 143.203 48.568Z" fill="#231F20"/>
<path d="M101.545 64.9318C101.561 64.9318 101.576 64.9157 101.561 64.8995C100.692 64.3838 100.455 62.5117 101.545 62.8512C105.27 63.9958 109.579 66.3044 112.878 67.9825L112.893 67.9986L111.584 73.4856L108.711 77.343C108.711 77.343 108.711 77.343 108.695 77.343C106.817 77.4076 103.88 76.6494 101.765 74.9875C101.765 74.9875 101.765 74.9875 101.75 74.9875C98.6083 74.7288 95.4032 74.2923 95.2624 73.5018C95.0885 72.5496 98.8455 72.4526 99.9809 72.4364C99.9967 72.4364 99.9967 72.4041 99.9809 72.4041C98.7981 71.9692 92.1837 71.3548 94.1571 68.6599V68.6437C93.289 67.2889 94.5034 66.5954 94.8987 66.563C94.9146 66.563 94.9146 66.5469 94.9146 66.5469C94.8355 66.3852 94.3311 65.3845 95.0252 64.7394C95.498 64.3191 100.487 64.7718 101.545 64.9318Z" fill="#D08058"/>
<path d="M112.878 67.9987L108.711 77.343V77.3592C110.495 78.9888 112.057 80.4584 114.046 81.8131C114.062 81.8131 114.062 81.8131 114.062 81.8131L118.924 70.8069C118.924 70.7907 118.924 70.7907 118.924 70.7907L112.909 67.9825C112.878 67.9825 112.878 67.9825 112.878 67.9987Z" fill="#FCFBFC"/>
<path opacity="0.2" d="M158.308 87.7203L160.344 78.3437C160.344 78.3275 160.375 78.3275 160.375 78.3437L160.707 90.3506C160.707 90.3668 160.691 90.3668 160.676 90.3668L158.308 87.7203Z" fill="black"/>
<path d="M189.263 144.431C188.506 142.254 187.715 140.285 186.894 138.477C183.517 130.973 179.949 126.517 177.77 123.355C173.446 117.124 171.599 107.523 167.873 99.792C164.227 92.1581 158.481 87.8497 158.308 87.7203C158.308 87.7203 158.308 87.7203 158.293 87.7203H153.098L140.312 87.7365C140.296 87.7365 140.296 87.7365 140.296 87.7527C140.249 88.3169 138.592 107.103 140.976 130.069C141.497 135.087 142.728 140.962 143.66 146.303C144.307 149.983 144.779 153.373 144.827 156.068C144.827 156.068 144.827 156.084 144.843 156.084L153.114 157.811L158.403 158.876C158.418 158.876 158.418 158.876 158.418 158.86C158.623 156.907 158.813 154.744 158.955 152.227C159.034 150.129 159.05 148.159 159.018 146.303C158.813 137.798 157.172 132.117 156.319 128.245C155.514 124.55 155.987 120.304 156.602 115.915C156.634 115.915 156.602 115.915 156.634 115.915C158.971 120.868 161.56 126.05 164.29 131.102C166.485 135.184 169.515 139.703 172.277 143.948C174.314 147.11 176.129 150.064 177.329 152.63L177.345 152.646L191.11 150.129C191.126 150.129 191.126 150.112 191.126 150.112C190.604 148.418 190.005 146.562 189.263 144.431Z" fill="#338EBA"/>
<path opacity="0.2" d="M160.755 124.339C160.77 124.356 160.786 124.356 160.786 124.323L159.744 112.913C159.539 110.637 159.098 108.362 158.418 106.183L157.85 104.343C157.85 104.327 157.818 104.327 157.818 104.343C157.802 108.119 157.156 112.042 156.602 115.867C156.602 115.867 156.602 115.867 156.602 115.883C157.929 118.659 159.319 121.499 160.755 124.339Z" fill="#24343B"/>
<path d="M143.249 50.9558C143.09 51.4085 142.365 51.7625 141.924 51.6025" stroke="black" stroke-linecap="round" stroke-linejoin="round"/>
<path d="M149.185 55.7491C148.222 56.2503 146.485 56.7499 145.995 56.8469" stroke="black" stroke-linecap="round" stroke-linejoin="round"/>
<path d="M151.079 50.2137L149.642 51.3923" stroke="black" stroke-linecap="round" stroke-linejoin="round"/>
<path d="M138.783 79.5061L143.487 74.2924" stroke="black" stroke-linecap="round" stroke-linejoin="round"/>
<path d="M94.9146 66.5792C94.9146 66.5792 100.028 67.0141 103.344 67.7562" stroke="black" stroke-linecap="round" stroke-linejoin="round"/>
<path d="M101.545 64.8995L104.07 65.336" stroke="black" stroke-linecap="round" stroke-linejoin="round"/>
<path d="M94.1729 68.6923C94.1729 68.6923 99.6187 69.8061 102.444 70.3558" stroke="black" stroke-linecap="round" stroke-linejoin="round"/>
<path d="M156.634 115.931C157.266 111.557 157.755 108.685 157.85 104.359" stroke="#354D58" stroke-linecap="round" stroke-linejoin="round"/>
<path d="M182.097 156.665L178.718 156.649" stroke="#CECDCE" stroke-linecap="round" stroke-linejoin="round"/>
<path d="M181.781 159.36L178.512 158.763" stroke="#CECDCE" stroke-linecap="round" stroke-linejoin="round"/>
<path d="M147.338 161.216L144.354 159.893" stroke="#CECDCE" stroke-linecap="round" stroke-linejoin="round"/>
<path d="M145.995 163.573L143.154 161.62" stroke="#CECDCE" stroke-linecap="round" stroke-linejoin="round"/>
<path d="M144.545 87.7527C144.545 87.7527 144.624 111.831 146.675 126.954C148.728 142.076 150.859 153.26 150.448 157.198" stroke="#24343B" stroke-linecap="round" stroke-linejoin="round"/>
<path d="M158.308 87.7204L160.344 78.3438" stroke="black" stroke-linecap="round" stroke-linejoin="round"/>
</g>
<defs>
<clipPath id="clip0_30_491">
<rect width="253" height="194" rx="8" fill="white"/>
</clipPath>
</defs>
</svg>
