<svg width="195" height="158" viewBox="0 0 195 158" fill="none" xmlns="http://www.w3.org/2000/svg">
<g clip-path="url(#clip0_17_2)">
<path d="M102.802 146.57C85.9234 146.57 69.9964 141.238 56.7426 131.152L57.1468 130.651C70.2843 140.648 86.0715 145.933 102.802 145.933C119.545 145.933 135.342 140.641 148.485 130.629L148.889 131.13C135.63 141.231 119.693 146.57 102.802 146.57Z" fill="#3F3D56"/>
<path d="M177.819 124.949C178.473 124.99 178.834 124.173 178.339 123.697L178.29 123.5C178.297 123.485 178.303 123.469 178.31 123.453C178.971 121.867 181.213 121.878 181.869 123.466C182.452 124.876 183.193 126.288 183.375 127.778C183.457 128.436 183.42 129.107 183.275 129.752C184.639 126.757 185.357 123.485 185.357 120.196C185.357 119.369 185.312 118.543 185.22 117.718C185.144 117.044 185.04 116.374 184.905 115.709C184.175 112.12 182.594 108.7 180.314 105.845C179.217 105.242 178.303 104.3 177.751 103.172C177.553 102.765 177.397 102.327 177.323 101.88C177.448 101.897 177.794 99.9868 177.7 99.8696C177.874 99.6044 178.185 99.4726 178.375 99.2138C179.319 97.9266 180.62 98.1514 181.299 99.9005C182.75 100.637 182.764 101.858 181.874 103.032C181.308 103.779 181.23 104.79 180.733 105.59C180.784 105.655 180.837 105.719 180.888 105.785C181.826 106.994 182.637 108.293 183.321 109.659C183.127 108.141 183.413 106.313 183.899 105.135C184.453 103.793 185.49 102.662 186.404 101.501C187.501 100.107 189.752 100.716 189.945 102.483C189.947 102.5 189.949 102.517 189.951 102.534C189.815 102.611 189.682 102.693 189.552 102.779C188.811 103.272 189.067 104.426 189.945 104.563L189.965 104.566C189.916 105.057 189.832 105.544 189.709 106.023C190.882 110.581 188.351 112.24 184.737 112.315C184.658 112.356 184.58 112.397 184.5 112.436C184.866 113.472 185.159 114.535 185.376 115.613C185.57 116.565 185.705 117.527 185.781 118.493C185.875 119.713 185.866 120.938 185.764 122.155L185.77 122.112C186.03 120.771 186.754 119.519 187.805 118.652C189.371 117.358 191.584 116.882 193.273 115.843C194.087 115.342 195.129 115.989 194.987 116.937L194.98 116.982C194.728 117.085 194.483 117.204 194.246 117.338C194.11 117.415 193.977 117.497 193.847 117.583C193.106 118.075 193.362 119.23 194.24 119.366L194.26 119.369C194.274 119.371 194.287 119.373 194.301 119.375C193.869 120.405 193.268 121.361 192.516 122.186C191.783 126.164 188.635 126.542 185.267 125.383H185.265C184.897 126.995 184.359 128.57 183.668 130.071H177.962C177.941 130.007 177.923 129.941 177.904 129.878C178.432 129.911 178.964 129.88 179.483 129.783C179.06 129.261 178.637 128.734 178.213 128.212C178.203 128.202 178.195 128.192 178.187 128.181C177.972 127.914 177.755 127.649 177.54 127.382L177.54 127.381C177.527 126.561 177.625 125.743 177.819 124.949Z" fill="#F2F2F2"/>
<path d="M17.1943 124.949C16.5401 124.99 16.1786 124.173 16.6735 123.697L16.7228 123.5C16.7163 123.485 16.7098 123.469 16.7032 123.453C16.0416 121.867 13.7995 121.878 13.1435 123.466C12.5613 124.876 11.8201 126.288 11.6376 127.778C11.5558 128.436 11.5926 129.107 11.7378 129.752C10.3736 126.757 9.65574 123.485 9.65574 120.196C9.65574 119.369 9.70074 118.543 9.79277 117.718C9.86845 117.044 9.97276 116.374 10.1078 115.709C10.8379 112.12 12.4189 108.7 14.6993 105.845C15.7956 105.242 16.7098 104.3 17.262 103.172C17.4604 102.765 17.6158 102.327 17.6894 101.88C17.5647 101.897 17.219 99.9868 17.3131 99.8696C17.1393 99.6044 16.8281 99.4726 16.6382 99.2138C15.6938 97.9266 14.3927 98.1514 13.7135 99.9005C12.2625 100.637 12.2485 101.858 13.1388 103.032C13.7052 103.779 13.783 104.79 14.28 105.59C14.2289 105.655 14.1757 105.719 14.1246 105.785C13.1869 106.994 12.376 108.293 11.6923 109.659C11.8855 108.141 11.6003 106.313 11.114 105.135C10.5604 103.793 9.52282 102.662 8.6091 101.501C7.51157 100.107 5.26098 100.716 5.06761 102.483C5.06574 102.5 5.06392 102.517 5.06213 102.534C5.19785 102.611 5.33081 102.693 5.46069 102.779C6.2015 103.272 5.94548 104.426 5.0677 104.563L5.04782 104.566C5.09691 105.057 5.18077 105.544 5.30347 106.023C4.13128 110.581 6.66196 112.24 10.2754 112.315C10.3552 112.356 10.4329 112.397 10.5127 112.436C10.1466 113.472 9.85411 114.535 9.63733 115.613C9.44304 116.565 9.30804 117.527 9.23238 118.493C9.13828 119.713 9.14647 120.938 9.24874 122.155L9.2426 122.112C8.98287 120.771 8.25885 119.519 7.20758 118.652C5.64152 117.358 3.42898 116.882 1.73948 115.843C0.926207 115.342 -0.115947 115.989 0.0259914 116.937L0.0329008 116.982C0.284462 117.085 0.529883 117.204 0.767134 117.338C0.902853 117.415 1.03581 117.497 1.16569 117.583C1.9065 118.075 1.65048 119.23 0.772698 119.366L0.752806 119.369C0.738493 119.371 0.726216 119.373 0.711922 119.375C1.14347 120.405 1.74475 121.361 2.4974 122.186C3.23034 126.164 6.37835 126.542 9.74573 125.383H9.74778C10.1159 126.995 10.6538 128.57 11.3451 130.071H17.0513C17.0718 130.007 17.0902 129.941 17.1086 129.878C16.5809 129.911 16.0492 129.88 15.5297 129.783C15.953 129.261 16.3764 128.734 16.7998 128.212C16.81 128.202 16.8182 128.192 16.8263 128.181C17.0411 127.914 17.2579 127.649 17.4726 127.382L17.4728 127.381C17.4862 126.561 17.3882 125.743 17.1943 124.949Z" fill="#F2F2F2"/>
<path d="M47.7089 130.873L47.4428 131.187C37.0498 122.276 31.0891 109.295 31.0891 95.5732C31.0891 83.0736 35.9309 71.3224 44.7225 62.4843C53.5143 53.6462 65.2036 48.7788 77.6375 48.7788C90.0715 48.7788 101.761 53.6462 110.553 62.4843C119.344 71.3224 124.186 83.0736 124.186 95.5732C124.186 109.295 118.225 122.276 107.832 131.187L107.566 130.873" fill="#F2F2F2"/>
<path d="M149.597 130.691L149.186 130.206C165.094 116.568 174.218 96.6991 174.218 75.6959C174.218 36.2023 142.256 4.0719 102.97 4.0719C63.684 4.0719 31.7224 36.2023 31.7224 75.6959C31.7224 96.6991 40.8459 116.568 56.7537 130.206L56.3427 130.691C40.2938 116.931 31.0891 96.8859 31.0891 75.6959C31.0891 56.3938 38.5659 38.2475 52.1421 24.5995C65.7184 10.9516 83.7693 3.43524 102.97 3.43524C122.171 3.43524 140.222 10.9516 153.798 24.5995C167.374 38.2475 174.851 56.3938 174.851 75.6959C174.851 96.886 165.646 116.931 149.597 130.691Z" fill="#3F3D56"/>
<path d="M125.079 130.563C125.079 130.773 125.247 130.942 125.456 130.942H194.579C194.788 130.942 194.956 130.773 194.956 130.563C194.956 130.353 194.788 130.184 194.579 130.184H125.456C125.247 130.184 125.079 130.353 125.079 130.563Z" fill="#CCCCCC"/>
<path d="M103.287 3.75357H102.653V25.8462H103.287V3.75357Z" fill="#3F3D56"/>
<path d="M53.7936 74.6459H31.8172V75.2825H53.7936V74.6459Z" fill="#3F3D56"/>
<path d="M56.0525 21.3204L55.5618 21.723L69.4569 38.839L69.9476 38.4364L56.0525 21.3204Z" fill="#3F3D56"/>
<path d="M62.1995 104.339L45.1767 118.312L45.5772 118.805L62.6 104.832L62.1995 104.339Z" fill="#3F3D56"/>
<path d="M174.123 74.6459H152.146V75.2825H174.123V74.6459Z" fill="#3F3D56"/>
<path d="M149.887 21.32L135.993 38.4368L136.484 38.8394L150.378 21.7226L149.887 21.32Z" fill="#3F3D56"/>
<path d="M143.739 104.341L143.338 104.834L160.365 118.803L160.765 118.31L143.739 104.341Z" fill="#3F3D56"/>
<path d="M102.97 82.3809C107.867 82.3809 111.836 78.3903 111.836 73.4677C111.836 68.545 107.867 64.5544 102.97 64.5544C98.0732 64.5544 94.1036 68.545 94.1036 73.4677C94.1036 78.3903 98.0732 82.3809 102.97 82.3809Z" fill="#3F3D56"/>
<path d="M143.819 107.529C145.567 107.529 146.985 106.104 146.985 104.346C146.985 102.588 145.567 101.162 143.819 101.162C142.07 101.162 140.652 102.588 140.652 104.346C140.652 106.104 142.07 107.529 143.819 107.529Z" fill="#3F3D56"/>
<path d="M150.785 78.8792C152.534 78.8792 153.952 77.454 153.952 75.6959C153.952 73.9378 152.534 72.5126 150.785 72.5126C149.036 72.5126 147.618 73.9378 147.618 75.6959C147.618 77.454 149.036 78.8792 150.785 78.8792Z" fill="#3F3D56"/>
<path d="M135.586 41.9531C137.334 41.9531 138.752 40.5279 138.752 38.7698C138.752 37.0117 137.334 35.5865 135.586 35.5865C133.837 35.5865 132.419 37.0117 132.419 38.7698C132.419 40.5279 133.837 41.9531 135.586 41.9531Z" fill="#3F3D56"/>
<path d="M102.653 29.8566C104.402 29.8566 105.82 28.4314 105.82 26.6733C105.82 24.9152 104.402 23.49 102.653 23.49C100.905 23.49 99.4868 24.9152 99.4868 26.6733C99.4868 28.4314 100.905 29.8566 102.653 29.8566Z" fill="#3F3D56"/>
<path d="M70.0378 41.9531C71.7866 41.9531 73.2044 40.5279 73.2044 38.7698C73.2044 37.0117 71.7866 35.5865 70.0378 35.5865C68.289 35.5865 66.8712 37.0117 66.8712 38.7698C66.8712 40.5279 68.289 41.9531 70.0378 41.9531Z" fill="#3F3D56"/>
<path d="M53.8883 77.9243C55.6372 77.9243 57.0549 76.4991 57.0549 74.741C57.0549 72.9829 55.6372 71.5577 53.8883 71.5577C52.1395 71.5577 50.7218 72.9829 50.7218 74.741C50.7218 76.4991 52.1395 77.9243 53.8883 77.9243Z" fill="#3F3D56"/>
<path d="M62.7547 107.211C64.5035 107.211 65.9213 105.785 65.9213 104.027C65.9213 102.269 64.5035 100.844 62.7547 100.844C61.0059 100.844 59.5881 102.269 59.5881 104.027C59.5881 105.785 61.0059 107.211 62.7547 107.211Z" fill="#3F3D56"/>
<path d="M85.5733 77.3011C87.3221 77.3011 88.7399 75.8759 88.7399 74.1178C88.7399 72.3597 87.3221 70.9345 85.5733 70.9345C83.8245 70.9345 82.4067 72.3597 82.4067 74.1178C82.4067 75.8759 83.8245 77.3011 85.5733 77.3011Z" fill="#3F3D56"/>
<path d="M158.653 68.6138L87.7882 71.6817C86.5652 71.7347 85.6164 72.7743 85.669 74.0038L85.669 74.0038C85.7217 75.2333 86.7559 76.1871 87.9789 76.1342L158.844 73.0663C160.067 73.0134 161.016 71.9737 160.963 70.7442C160.911 69.5147 159.877 68.5609 158.653 68.6138Z" fill="#8A6733"/>
<path d="M127.317 155.256L123.624 155.255L121.867 140.935L127.318 140.935L127.317 155.256Z" fill="#A0616A"/>
<path d="M114.664 155.171C114.549 155.366 114.488 155.994 114.488 156.221C114.488 156.917 115.049 157.481 115.742 157.481H127.179C127.651 157.481 128.034 157.096 128.034 156.621V156.143C128.034 156.143 128.6 154.704 127.435 152.931C127.435 152.931 125.987 154.319 123.824 152.144L123.186 150.983L118.568 154.378L116.008 154.694C115.448 154.764 114.952 154.684 114.664 155.171Z" fill="#2F2E41"/>
<path d="M146.764 155.256L143.071 155.255L141.314 140.935L146.765 140.935L146.764 155.256Z" fill="#A0616A"/>
<path d="M134.111 155.171C133.996 155.366 133.935 155.994 133.935 156.221C133.935 156.917 134.497 157.481 135.189 157.481H146.626C147.098 157.481 147.481 157.096 147.481 156.621V156.143C147.481 156.143 148.047 154.704 146.882 152.931C146.882 152.931 145.434 154.319 143.271 152.144L142.633 150.983L138.015 154.378L135.456 154.694C134.896 154.764 134.399 154.684 134.111 155.171Z" fill="#2F2E41"/>
<path d="M155.349 39.9792L155.74 56.7978L152.119 71.9351L148.748 70.8089L149.73 57.0192L148.866 38.4379L155.349 39.9792Z" fill="#A0616A"/>
<path d="M152.192 74.3521C152.505 72.183 151.72 70.2734 150.439 70.0867C149.158 69.9001 147.866 71.5072 147.553 73.6763C147.24 75.8453 148.025 77.755 149.306 77.9416C150.588 78.1282 151.88 76.5211 152.192 74.3521Z" fill="#A0616A"/>
<path d="M146.827 24.7643C146.827 24.7643 153.04 24.7501 154.09 28.41C155.181 32.2155 156.921 46.4089 156.168 46.4097L148.411 47.3953L146.827 24.7643Z" fill="#8A6733"/>
<path d="M122.816 41.7717L119.392 58.239L112.442 72.152L109.414 70.2847L113.49 57.0807L118.752 38.7887L122.816 41.7717Z" fill="#A0616A"/>
<path d="M111.967 74.5223C112.762 72.4815 112.429 70.4424 111.224 69.9678C110.018 69.4933 108.397 70.7629 107.602 72.8037C106.807 74.8444 107.139 76.8835 108.344 77.3581C109.55 77.8327 111.171 76.563 111.967 74.5223Z" fill="#A0616A"/>
<path d="M121.709 25.4415C121.709 25.4415 125.107 26.9647 126.057 30.6518C126.921 34.0058 129.057 48.7651 122.78 48.0723L114.863 47.4356C114.807 39.6022 118.171 32.2165 121.709 25.4415Z" fill="#8A6733"/>
<path d="M120.703 73.4676L119.436 84.9275L120.069 117.129L121.336 147.32H128.036L135.586 92.249L140.483 147.32H148.262L150.468 110.075C150.468 110.075 152.052 75.3776 149.202 72.5126C146.352 69.6477 120.703 73.4676 120.703 73.4676Z" fill="#2F2E41"/>
<path d="M141.76 18.8742H131.387L129.094 22.0575C129.094 22.0575 124.661 22.6942 121.811 25.5591L121.494 56.1187L119.436 76.102L150.466 75.2184L148.568 64.2361L149.833 25.6907C149.833 25.6907 146.51 21.7392 144.294 22.3758L141.76 18.8742Z" fill="#8A6733"/>
<path d="M133.941 17.1722C138.227 17.1722 141.703 13.6787 141.703 9.36933C141.703 5.05991 138.227 1.56644 133.941 1.56644C129.654 1.56644 126.179 5.05991 126.179 9.36933C126.179 13.6787 129.654 17.1722 133.941 17.1722Z" fill="#A0616A"/>
<path d="M140.609 2.10343C139.741 1.33465 138.549 0.892088 137.412 0.970525C136.723 1.01806 136.054 0.80018 135.442 0.477716C135.4 0.455885 135.358 0.436009 135.315 0.418198C134.929 0.257939 134.501 0.239982 134.083 0.250149C133.323 0.268692 132.423 -0.49814 131.828 0.565317C129.573 0.138521 129.365 1.45549 128.316 2.23154C128.019 2.05527 126.096 2.37638 125.894 2.69352C125.74 2.93503 125.633 3.18109 125.56 3.42002C125.514 3.57329 125.795 4.13247 125.774 4.2768C125.752 4.42112 125.428 4.15057 125.426 4.2798C125.418 4.6257 125.466 4.90647 125.507 5.06305C125.61 5.4627 124.554 4.9507 124.208 5.17247C123.861 5.39425 124.214 6.42036 123.876 6.65372C123.471 6.93213 123.739 7.23986 124.091 7.60375C124.334 7.85453 124.617 8.13198 124.748 8.44487C125.069 9.21181 123.305 9.89139 124.117 9.72933C124.955 9.56208 125.228 10.8732 125.933 10.3881C127.528 9.29089 127.47 9.38092 128.862 10.7287C129.249 11.1029 130.008 9.63737 130.519 9.80184C131.482 10.1118 132.269 11.1504 132.905 12.7206C132.995 12.9428 132.142 16.5684 132.102 16.8051C132.011 17.3564 134.565 16.1124 134.558 16.7137C134.549 17.5073 135.952 16.507 136.356 17.2025C136.407 17.1391 139.253 15.8377 139.39 15.7366L141.362 13.8201C142.655 11.5959 143.149 8.91325 142.733 6.37119C142.471 4.77014 141.82 3.17581 140.609 2.10343Z" fill="#2F2E41"/>
<path d="M102.597 157.621C102.597 157.831 102.764 158 102.973 158H172.096C172.305 158 172.473 157.831 172.473 157.621C172.473 157.411 172.305 157.242 172.096 157.242H102.973C102.764 157.242 102.597 157.411 102.597 157.621Z" fill="#CCCCCC"/>
<path d="M0 130.563C0 130.773 0.167837 130.942 0.37684 130.942H69.4997C69.7087 130.942 69.8765 130.773 69.8765 130.563C69.8765 130.353 69.7087 130.184 69.4997 130.184H0.37684C0.167837 130.184 0 130.353 0 130.563Z" fill="#CCCCCC"/>
</g>
<defs>
<clipPath id="clip0_17_2">
<rect width="195" height="158" fill="white"/>
</clipPath>
</defs>
</svg>
