<svg width="196" height="126" viewBox="0 0 196 126" fill="none" xmlns="http://www.w3.org/2000/svg">
<g clip-path="url(#clip0_17_52)">
<path d="M180.839 60.8423H21.9044C19.7741 60.8423 18.0409 59.141 18.0409 57.0496V3.79243C18.0409 1.70127 19.7741 0 21.9044 0H180.839C182.969 0 184.702 1.70127 184.702 3.79243V57.0496C184.702 59.141 182.969 60.8423 180.839 60.8423ZM21.9044 0.452142C20.0281 0.452142 18.5015 1.95064 18.5015 3.79243V57.0496C18.5015 58.8915 20.0281 60.3901 21.9044 60.3901H180.839C182.715 60.3901 184.242 58.8915 184.242 57.0496V3.79243C184.242 1.95064 182.715 0.452142 180.839 0.452142H21.9044Z" fill="#3F3D56"/>
<path d="M196 124.465H0V124.846H196V124.465Z" fill="#E6E6E6"/>
<path d="M196 105.023H0V105.403H196V105.023Z" fill="#E6E6E6"/>
<path d="M89.3227 62.8008C89.4635 64.5371 90.4902 65.8731 91.6158 65.785C92.7414 65.6969 93.5395 64.2182 93.3985 62.4814C93.3518 61.7868 93.1364 61.1133 92.7703 60.5173L92.0793 53.1683L88.5729 53.5601L89.6264 60.7633C89.3608 61.4089 89.2567 62.1076 89.3227 62.8008Z" fill="#FFB6B6"/>
<path d="M85.134 28.5151C85.134 28.5151 88.4117 26.8119 90.0737 29.3571C91.7357 31.9023 92.8828 59.4293 92.8828 59.4293L88.2762 59.9121L87.403 40.5146L85.134 28.5151Z" fill="#E6E6E6"/>
<path d="M78.331 103.587L80.9996 103.586L82.2691 93.4823L78.3304 93.4826L78.331 103.587Z" fill="#FFB6B6"/>
<path d="M87.4741 103.527C87.5572 103.665 87.6011 104.108 87.6011 104.268C87.6011 104.759 87.1956 105.157 86.6953 105.157H78.4308C78.0895 105.157 77.8129 104.885 77.8129 104.55V104.213C77.8129 104.213 77.404 103.197 78.2458 101.946C78.2458 101.946 79.2919 102.926 80.8551 101.392L81.3161 100.572L84.653 102.967L86.5026 103.191C86.9072 103.24 87.266 103.183 87.4741 103.527Z" fill="#2F2E41"/>
<path d="M93.7742 103.153L96.3597 102.504L95.0421 92.4062L91.226 93.3634L93.7742 103.153Z" fill="#FFB6B6"/>
<path d="M102.618 100.874C102.733 100.987 102.887 101.406 102.928 101.561C103.051 102.037 102.759 102.521 102.274 102.642L94.2668 104.65C93.9361 104.733 93.5996 104.537 93.5152 104.213L93.43 103.885C93.43 103.885 92.7779 103.001 93.278 101.584C93.278 101.584 94.5386 102.279 95.6663 100.413L95.9063 99.5067L99.7433 101.017L101.592 100.784C101.996 100.733 102.329 100.591 102.618 100.874Z" fill="#2F2E41"/>
<path d="M76.1231 26.343L75.9966 25.4416L77.5005 21.8363L81.6325 21.3856L82.5247 26.5471L76.1231 26.343Z" fill="#FFB6B6"/>
<path opacity="0.1" d="M76.1231 26.343L75.9966 25.4416L77.5005 21.8363L81.6325 21.3856L82.5247 26.5471L76.1231 26.343Z" fill="black"/>
<path d="M71.3024 51.8059L69.4659 56.7633L70.8433 59.4674L77.73 98.6758H82.3086L81.403 63.9741L91.9627 98.6758H96.4942L92.8502 75.2409L90.1262 53.6086L88.474 52.6067L80.4847 48.2006L71.3024 51.8059Z" fill="#2F2E41"/>
<path d="M83.0099 55.1859L80.2552 55.6366L76.5822 47.0739H84.8464L83.0099 55.1859Z" fill="#E6E6E6"/>
<path d="M88.5193 52.9326L83.0099 55.186L81.1734 51.1299L80.2552 55.6366L70.6137 52.5901L71.9911 47.0739L70.6137 29.047L75.4758 25.8652L76.1231 25.4416L82.0917 25.8923L82.6151 26.1717L86.2237 28.1457L87.142 43.0178L88.5193 52.9326Z" fill="#2F2E41"/>
<path d="M82.6151 26.1717L80.0256 36.9338L75.4758 25.8652L76.1231 25.4416L82.0917 25.8923L82.6151 26.1717Z" fill="#E6E6E6"/>
<path d="M78.1892 25.4416L77.2709 26.9939L78.1892 27.5114L77.73 36.9617L79.5665 39.4124L81.403 35.7904L80.0256 27.5114L80.4847 25.4416H78.1892Z" fill="#2F2E41"/>
<path d="M79.5665 24.5403C81.9754 24.5403 83.9281 22.6235 83.9281 20.2589C83.9281 17.8944 81.9754 15.9775 79.5665 15.9775C77.1577 15.9775 75.2049 17.8944 75.2049 20.2589C75.2049 22.6235 77.1577 24.5403 79.5665 24.5403Z" fill="#FFB6B6"/>
<path d="M76.7791 20.6345L77.7215 21.0382L78.1328 18.6158C78.1328 18.6158 79.778 17.8084 81.0119 18.2121C82.2458 18.6158 84.3022 18.2121 84.3022 18.2121C84.3022 18.2121 84.3022 14.1748 81.4232 14.1748C78.5441 14.1748 75.6651 14.5786 75.6651 15.7897C75.6651 17.0009 74.4312 18.2121 74.4312 18.2121C74.4312 18.2121 72.786 20.6345 74.4312 22.2494C76.0764 23.8643 76.8989 23.8643 76.8989 23.8643L76.7791 20.6345Z" fill="#2F2E41"/>
<path d="M68.316 62.6742C68.2682 64.4152 69.1446 65.8507 70.2734 65.8804C71.4022 65.9101 72.3557 64.5229 72.4033 62.7812C72.432 62.0857 72.2907 61.3936 71.9911 60.7628L72.0988 53.3833L68.5699 53.4075L68.8383 60.6798C68.5044 61.2941 68.3253 61.978 68.316 62.6742Z" fill="#FFB6B6"/>
<path d="M72.682 28.1372C72.682 28.1372 69.6977 27.2359 68.3203 29.9399C66.943 32.6439 68.7795 60.1349 68.7795 60.1349H73.4122L72.1827 40.756L72.682 28.1372Z" fill="#E6E6E6"/>
<path d="M187.162 79.3528L176.033 76.0087C175.787 75.9347 175.528 75.9077 175.272 75.9291L118.869 80.6411C118.065 80.7082 117.863 81.773 118.588 82.12L120.395 82.9839H120.347V124.344H122.049V83.775L127.711 86.4828C128.145 86.69 128.628 86.7746 129.108 86.727L129.71 86.6673V124.344H131.412V86.4985L175.037 82.173V124.344H176.74V82.0042L183.975 81.2868V124.344H185.678V81.118L186.998 80.9872C187.924 80.8953 188.052 79.6204 187.162 79.3528Z" fill="#3F3D56"/>
<path d="M135.243 80.4773C136.307 80.4773 152.054 78.5973 152.054 78.5973L154.395 81.7306L138.009 84.864L135.243 80.4773Z" fill="white"/>
<path d="M152.526 122.738L149.79 122.733L148.507 112.372L152.545 112.379L152.526 122.738Z" fill="#A0616A"/>
<path d="M143.152 122.661C143.067 122.802 143.021 123.256 143.021 123.42C143.02 123.923 143.435 124.332 143.948 124.333L152.421 124.347C152.771 124.348 153.055 124.07 153.055 123.726L153.056 123.38C153.056 123.38 153.477 122.34 152.616 121.056C152.616 121.056 151.542 122.059 149.942 120.483L149.471 119.642L146.046 122.092L144.149 122.318C143.734 122.367 143.367 122.309 143.152 122.661Z" fill="#2F2E41"/>
<path d="M167.21 117.92L165.051 119.518L157.744 112.106L160.93 109.747L167.21 117.92Z" fill="#A0616A"/>
<path d="M159.778 123.348C159.796 123.509 160.036 123.893 160.135 124.023C160.441 124.42 161.016 124.499 161.421 124.199L168.105 119.249C168.381 119.045 168.436 118.66 168.228 118.389L168.018 118.116C168.018 118.116 167.718 117.05 166.259 116.542C166.259 116.542 166.022 117.961 163.804 117.656L162.921 117.269L161.712 121.205L160.354 122.494C160.058 122.776 159.732 122.945 159.778 123.348Z" fill="#2F2E41"/>
<path d="M161.492 64.3714C161.492 66.848 159.447 68.8557 156.924 68.8557C154.401 68.8557 152.356 66.848 152.356 64.3714C152.356 61.8949 154.401 59.8872 156.924 59.8872C159.447 59.8872 161.492 61.8949 161.492 64.3714Z" fill="#A0616A"/>
<path d="M161.062 90.2264C161.062 90.2264 144.242 89.2919 143.29 91.161C142.338 93.0301 148.437 118.704 148.437 118.704L153.878 117.585L151.224 99.5719C151.224 99.5719 165.259 103.221 167.164 98.8595C169.068 94.4983 168.519 92.8743 168.519 92.8743L161.062 90.2264Z" fill="#2F2E41"/>
<path d="M165.371 87.0891C165.371 87.0891 148.899 90.5554 148.484 92.6051C148.07 94.6548 160.87 117.83 160.87 117.83L165.816 115.338L158.402 98.6562C158.402 98.6562 172.921 98.5304 173.582 93.8301C174.243 89.1298 173.277 87.7061 173.277 87.7061L165.371 87.0891Z" fill="#2F2E41"/>
<path d="M167.25 69.5106H159.336L153.921 78.233C153.921 78.233 152.652 83.8698 153.921 84.4781C155.191 85.0864 155.191 91.6283 155.191 91.6283L168.52 92.8743C168.52 92.8743 170.424 73.2488 169.789 71.3797C169.154 69.5106 167.25 69.5106 167.25 69.5106Z" fill="#8A6733"/>
<path d="M154.715 75.2736L153.921 84.4781L144.997 80.7604L142.867 79.7089C142.45 79.175 141.909 78.7469 141.289 78.4604C139.746 77.7225 138.109 77.9053 137.63 78.8685C137.152 79.8317 138.014 81.2105 139.556 81.9479C140.169 82.2511 140.846 82.4058 141.532 82.3992L147.763 85.8735L147.771 85.8599L147.798 85.9084L157.571 89.9149L159.819 77.8316L154.715 75.2736Z" fill="#A0616A"/>
<path d="M153.762 64.9936C153.762 64.9936 149.002 65.6166 150.906 61.5669C150.906 61.5669 150.616 59.3716 152.031 59.2232C153.445 59.0748 155.349 56.5826 155.349 56.5826C155.349 56.5826 159.715 54.402 161.975 56.5826C164.235 58.7632 170.9 71.5354 170.9 71.5354L166.457 76.2082C166.457 76.2082 163.786 69.3156 160.678 70.114C157.571 70.9124 154.715 73.2929 154.715 73.2929C154.715 73.2929 151.561 71.7438 152.979 70.3935C154.397 69.0433 153.762 64.9936 153.762 64.9936Z" fill="#2F2E41"/>
<path d="M160.11 71.847C160.11 71.847 157.888 69.0433 156.301 71.2239C154.715 73.4046 153.445 76.2082 153.445 76.2082L159.792 78.3888L160.11 71.847Z" fill="#8A6733"/>
<path d="M184.209 123.724L176.834 100.717L176.835 100.717H176.853L176.823 100.679L176.822 100.678L176.297 99.0394L176.297 99.0392C177.097 98.3624 177.642 97.3952 177.751 96.2818L174.38 78.0834C174.612 75.6937 172.745 73.6048 170.3 73.5192L162.695 73.5004C160.533 73.4252 158.66 74.9584 158.345 77.0599L158.177 78.1753L155.847 93.7355C155.761 94.2953 155.796 94.8468 155.93 95.3627L154.253 95.5779L153.744 95.6447L151.733 95.9017L151.727 95.9038L151.476 95.9351H151.203V102.62H151.22V123.985C151.22 124.123 151.335 124.235 151.476 124.235C151.618 124.235 151.733 124.123 151.733 123.985V102.62H154.717L157.694 123.96C157.713 124.085 157.821 124.177 157.949 124.177C157.96 124.177 157.973 124.177 157.983 124.175C158.124 124.156 158.221 124.029 158.202 123.891L155.236 102.62H169.551C170.973 102.62 172.29 102.177 173.362 101.419L179.038 123.921C179.068 124.034 179.172 124.11 179.286 124.11C179.307 124.11 179.328 124.108 179.35 124.102C179.487 124.068 179.57 123.931 179.535 123.796L173.804 101.077C173.88 101.015 173.957 100.948 174.029 100.879L176.307 100.748L183.72 123.875C183.754 123.982 183.855 124.051 183.964 124.051C183.99 124.051 184.015 124.047 184.041 124.04C184.176 123.998 184.251 123.856 184.209 123.724ZM175.81 99.3964C175.829 99.386 175.846 99.3734 175.863 99.363L175.918 99.5337L175.81 99.3964Z" fill="#E6E6E6"/>
<path d="M39.5129 84.7257L44.4758 81.6277L46.4935 82.8224L39.5129 90.6959V84.7257Z" fill="#FFB6B6"/>
<path d="M32.7262 72.7344C32.7262 72.7344 29.4298 73.4958 30.981 77.8735C32.5323 82.2513 37.5738 91.3876 39.1251 90.8165C40.6763 90.2455 40.8702 84.5354 40.8702 84.5354C40.8702 84.5354 40.6763 84.7257 39.9007 83.9644C39.1251 83.203 39.1251 83.5507 39.1251 82.7107C39.1251 81.8706 38.4907 81.2479 38.4907 81.2479L37.7677 79.7769C37.7677 79.7769 37.7677 72.9247 34.8591 72.5441C31.9505 72.1634 32.7262 72.7344 32.7262 72.7344Z" fill="#E6E6E6"/>
<path d="M48.127 82.6176C49.4144 81.354 49.8134 79.6969 49.0183 78.9164C48.2232 78.1359 46.535 78.5276 45.2477 79.7913C43.9604 81.0549 43.5614 82.712 44.3565 83.4925C45.1516 84.273 46.8397 83.8813 48.127 82.6176Z" fill="#FFB6B6"/>
<path d="M19.8867 97.9543L23.2731 103.456L43.0081 102.31L37.7532 95.6618L19.8867 97.9543Z" fill="#E6E6E6"/>
<path d="M25.7835 123.688C25.6686 123.688 25.5684 123.605 25.5524 123.49L19.6553 81.2129C19.6378 81.0874 19.7272 80.9718 19.855 80.9547C19.9827 80.9366 20.1005 81.0252 20.118 81.1507L26.0152 123.428C26.0327 123.553 25.9433 123.669 25.8155 123.686C25.8047 123.687 25.7941 123.688 25.7835 123.688Z" fill="#E6E6E6"/>
<path d="M19.8867 123.742C19.7578 123.742 19.6532 123.639 19.6532 123.512V81.19C19.6532 81.0634 19.7578 80.9608 19.8867 80.9608C20.0157 80.9608 20.1203 81.0634 20.1203 81.19V123.512C20.1203 123.639 20.0157 123.742 19.8867 123.742Z" fill="#E6E6E6"/>
<path d="M49.489 123.573C49.3897 123.573 49.2976 123.511 49.2663 123.413L35.3117 79.8752C35.273 79.7544 35.3414 79.6256 35.4644 79.5876C35.5874 79.5498 35.7186 79.6168 35.7572 79.7375L49.7118 123.275C49.7505 123.396 49.6822 123.525 49.5591 123.563C49.5358 123.57 49.5122 123.573 49.489 123.573Z" fill="#E6E6E6"/>
<path d="M45.2266 123.627C45.1223 123.627 45.0273 123.558 45.0004 123.454L35.3081 85.0292C35.2763 84.9065 35.3519 84.7817 35.4769 84.7505C35.6023 84.7195 35.729 84.7935 35.7608 84.9161L45.4531 123.341C45.4849 123.464 45.4094 123.589 45.2844 123.62C45.265 123.625 45.2457 123.627 45.2266 123.627Z" fill="#E6E6E6"/>
<path d="M19.8867 81.8642L36.06 81.6201L39.0377 98.2982H20.1202L19.8867 81.8642Z" fill="#E6E6E6"/>
<path d="M44.741 106.388L40.665 113.432L45.3976 114.455L47.3706 109.445L44.741 106.388Z" fill="#FFB6B6"/>
<path d="M42.129 112.102C42.129 112.102 41.9706 110.954 41.0395 111.318C40.1084 111.683 37.4211 113.037 37.4211 113.037C37.4211 113.037 44.4302 124.217 45.7604 123.696C47.0906 123.175 45.4982 120.015 45.4982 120.015L45.8497 114.429L42.129 112.102Z" fill="#2F2E41"/>
<path d="M26.7151 92.7199C26.7151 92.7199 25.2608 99.2866 29.7206 101.571C34.1805 103.855 49.4021 98.2397 49.4021 98.2397L42.4215 108.507L47.2691 110.421C47.2691 110.421 58.3217 96.146 57.5461 93.862C56.7705 91.5779 51.535 91.3876 51.535 91.3876L39.7068 91.9586L36.6043 91.0069L26.7151 92.7199Z" fill="#2F2E41"/>
<path d="M38.711 109.515L32.3032 114.62L36.3322 117.263L40.0272 113.301L38.711 109.515Z" fill="#FFB6B6"/>
<path d="M34.1598 113.904C34.1598 113.904 34.4381 112.777 33.4357 112.784C32.4333 112.791 29.428 113.093 29.428 113.093C29.428 113.093 31.8124 126.01 33.2444 126C34.6765 125.99 34.3647 122.478 34.3647 122.478L36.7628 117.4L34.1598 113.904Z" fill="#2F2E41"/>
<path d="M26.9877 90.3446C26.9877 90.3446 23.1989 95.9416 26.5062 99.6621C29.8136 103.383 46.0732 103.59 46.0732 103.59L35.7651 110.659L39.5707 114.174C39.5707 114.174 55.1575 104.825 55.2817 102.421C55.406 100.016 50.6 97.969 50.6 97.969L39.371 94.2759L36.834 92.2813L26.9877 90.3446Z" fill="#2F2E41"/>
<path d="M36.7211 77.3806C36.7211 77.3806 33.0369 76.0483 31.2917 76.0483C31.125 76.0483 30.9601 76.0673 30.7953 76.1016C29.6784 76.3338 28.6507 77.276 28.1582 77.7899C27.9662 77.9916 27.8557 78.1268 27.8557 78.1268C27.8557 78.1268 27.8674 77.9954 27.8906 77.7651C28.005 76.5546 28.4277 72.5822 29.1859 70.0393C29.4574 69.1314 29.7696 68.4062 30.1283 68.0541C30.964 67.2318 31.3499 66.2459 31.5283 65.5112C31.6795 64.8811 31.6795 64.4376 31.6795 64.4376L30.266 63.84L30.0042 62.1612C29.9576 62.3591 29.7424 62.7455 29.0192 63.486C28.9571 63.5488 28.8892 63.6021 28.8175 63.6477C27.7743 64.2911 25.6471 63.1719 24.5011 62.4676C24.9782 60.8402 25.843 59.3518 27.4136 59.1082C31.0978 58.5372 31.0978 56.4434 33.4247 58.7275C33.6167 58.9159 33.8106 59.0968 34.0045 59.2719C34.7491 60.6689 35.0205 62.5419 35.1175 63.8438C35.1873 64.7555 35.1698 65.3893 35.1698 65.3893C35.1698 65.3893 36.1394 71.0995 37.6906 72.2415C39.2419 73.3836 36.7211 77.3806 36.7211 77.3806Z" fill="#2F2E41"/>
<path d="M29.5466 68.2443L26.9266 72.0167L32.843 73.5738V68.2443H29.5466Z" fill="#FFB6B6"/>
<path opacity="0.1" d="M29.5466 68.2443L26.9266 72.0167L32.843 73.5738V68.2443H29.5466Z" fill="black"/>
<path d="M33.2109 71.8779L27.5877 69.5938C27.5877 69.5938 20.0254 72.8296 20.6071 79.1107C21.1888 85.3919 26.6181 96.2412 26.6181 96.2412L37.4769 91.6731L36.3134 79.4914L33.2109 71.8779Z" fill="#E6E6E6"/>
<path d="M30.7999 69.9286C33.5398 69.9286 35.761 67.7483 35.761 65.0588C35.761 62.3693 33.5398 60.189 30.7999 60.189C28.06 60.189 25.8388 62.3693 25.8388 65.0588C25.8388 67.7483 28.06 69.9286 30.7999 69.9286Z" fill="#FFB6B6"/>
<path d="M37.4967 63.2956C36.5272 64.2472 35.7516 65.1989 35.7516 65.1989L35.3637 63.6762C35.3637 63.6762 35.2745 63.7409 35.1175 63.8437C34.5028 64.2549 32.8527 65.2884 31.5283 65.5111C30.9388 65.6101 30.4153 65.5473 30.074 65.1989C29.3507 64.4585 29.1355 64.0721 29.089 63.8742L28.8272 65.553L27.4136 66.1506C27.4136 66.1506 27.4136 68.2405 28.9649 69.7671C29.0405 69.8413 29.1142 69.9327 29.1859 70.0392C29.9266 71.1356 30.4579 73.8194 30.7953 76.1015C31.0939 78.1305 31.2374 79.8398 31.2374 79.8398C31.2374 79.8398 29.7696 78.0354 28.1582 77.7898C28.069 77.7765 27.9798 77.767 27.8906 77.7651C27.8615 77.7613 27.8305 77.7613 27.8014 77.7613C26.0563 77.7613 22.3721 79.0936 22.3721 79.0936C22.3721 79.0936 19.8513 75.0965 21.4025 73.9545C22.9538 72.8125 23.9233 67.1023 23.9233 67.1023C23.9233 67.1023 23.8593 64.6584 24.5011 62.4676C24.9782 60.8402 25.843 59.3517 27.4136 59.1081C31.0978 58.5371 31.0978 56.4434 33.4247 58.7274C33.6167 58.9159 33.8106 59.0967 34.0045 59.2718C36.1723 61.2285 38.3867 62.4219 37.4967 63.2956Z" fill="#2F2E41"/>
<path d="M15.7379 88.8459H13.8954V124.565H15.7379V88.8459Z" fill="#3F3D56"/>
<path d="M60.4176 88.8459H58.5752V124.565H60.4176V88.8459Z" fill="#3F3D56"/>
<path d="M48.6719 73.6992H36.4656V85.6809H48.6719V73.6992Z" fill="#8A6733"/>
<path d="M29.4298 86.4388L34.3927 83.3408L36.4104 84.5354L29.4298 92.409V86.4388Z" fill="#FFB6B6"/>
<path d="M22.6431 74.4475C22.6431 74.4475 19.3467 75.2088 20.8979 79.5866C22.4492 83.9644 27.4907 93.1006 29.042 92.5296C30.5932 91.9586 30.7871 86.2485 30.7871 86.2485C30.7871 86.2485 30.5932 86.4388 29.8176 85.6774C29.042 84.9161 29.042 85.2638 29.042 84.4238C29.042 83.5837 28.4076 82.961 28.4076 82.961L27.6846 81.49C27.6846 81.49 27.6846 74.6378 24.776 74.2571C21.8675 73.8765 22.6431 74.4475 22.6431 74.4475Z" fill="#E6E6E6"/>
<path d="M38.0439 84.3307C39.3313 83.0671 39.7303 81.41 38.9352 80.6295C38.1401 79.849 36.4519 80.2407 35.1646 81.5043C33.8773 82.768 33.4783 84.4251 34.2734 85.2055C35.0685 85.986 36.7566 85.5944 38.0439 84.3307Z" fill="#FFB6B6"/>
<path d="M64.1026 87.4895H8.368V91.5588H64.1026V87.4895Z" fill="#3F3D56"/>
<path d="M120.728 54.9352H112.497C111.845 54.9352 111.316 55.4545 111.316 56.095V59.4273C111.316 60.0678 111.845 60.587 112.497 60.587H120.728C121.381 60.587 121.91 60.0678 121.91 59.4273V56.095C121.91 55.4545 121.381 54.9352 120.728 54.9352Z" fill="#3F3D56"/>
<path d="M138.002 58.2676H129.77C129.118 58.2676 128.589 58.7868 128.589 59.4273V59.4273C128.589 60.0678 129.118 60.587 129.77 60.587H138.002C138.654 60.587 139.183 60.0678 139.183 59.4273C139.183 58.7868 138.654 58.2676 138.002 58.2676Z" fill="#8A6733"/>
</g>
<defs>
<clipPath id="clip0_17_52">
<rect width="196" height="126" fill="white"/>
</clipPath>
</defs>
</svg>
