<svg width="254" height="194" viewBox="0 0 254 194" fill="none" xmlns="http://www.w3.org/2000/svg">
<g clip-path="url(#clip0_30_580)">
<path d="M254 0H0V194H254V0Z" fill="#C4D7B2"/>
<path d="M194.35 109.525L214.621 111.05" stroke="#231F20" stroke-linecap="round" stroke-linejoin="round"/>
<path d="M186.979 116.101L195.35 127.369" stroke="#231F20" stroke-linecap="round" stroke-linejoin="round"/>
<path d="M55.7758 79.1726L45.3423 76.6245" stroke="#231F20" stroke-linecap="round" stroke-linejoin="round"/>
<path d="M65.7011 89.8102L50.144 94.7212" stroke="#231F20" stroke-linecap="round" stroke-linejoin="round"/>
<path d="M68.325 100.099L62.7694 106.656" stroke="#231F20" stroke-linecap="round" stroke-linejoin="round"/>
<path d="M64.2321 141.069H53.881V151.615H64.2321V141.069Z" fill="#404D96"/>
<path d="M59.0713 149.014C60.5201 149.014 61.6953 147.817 61.6953 146.341C61.6953 144.865 60.5201 143.668 59.0713 143.668C57.6226 143.668 56.4474 144.865 56.4474 146.341C56.4474 147.817 57.6226 149.014 59.0713 149.014Z" fill="black"/>
<path d="M87.2383 110.589V140.043C87.2398 140.876 87.0782 141.701 86.7657 142.47C86.4533 143.24 85.9947 143.94 85.4164 144.529C84.8382 145.118 84.1511 145.585 83.3956 145.904C82.6402 146.222 81.8303 146.387 81.0142 146.385H59.1009" stroke="#222222" stroke-linecap="round" stroke-linejoin="round"/>
<path d="M202.925 73.1878H200.719V34.3989H163.381V73.1878H161.175V75.4414H163.381H200.719H202.925V73.1878Z" fill="white"/>
<path d="M165.585 73.1958V52.304H198.515V73.1958H165.585Z" fill="#404D96"/>
<path d="M165.585 50.0487V36.6445H198.515V50.0487H165.585Z" fill="#404D96"/>
<path d="M143.608 54.586L152.975 47.2853L139.781 49.523L145.069 32.4304L129.559 47.5402L125.419 31.116L122.487 44.2319" stroke="#231F20" stroke-linecap="round" stroke-linejoin="round"/>
<path d="M78.9032 45.6018H92.1737C93.08 45.6018 93.9489 45.9676 94.5909 46.6201C95.2313 47.271 95.5935 48.1547 95.5982 49.078V56.3407C95.5966 57.264 95.2376 58.1492 94.5987 58.8033C93.9598 59.4574 93.0924 59.8264 92.1861 59.8295H78.9032C77.997 59.8295 77.128 59.4637 76.4876 58.8112C75.8456 58.1603 75.4834 57.2766 75.4803 56.3534V49.0891C75.4787 48.6314 75.5673 48.1784 75.7399 47.754C75.9109 47.3312 76.1627 46.9463 76.4814 46.6217C76.7985 46.2986 77.1762 46.0421 77.5928 45.8663C78.0078 45.6905 78.454 45.6018 78.9032 45.6018Z" fill="white"/>
<path d="M94.5381 58.7986L85.5393 51.4757L76.5389 58.7986" stroke="#0D0D0D" stroke-width="0.2" stroke-linecap="round" stroke-linejoin="round"/>
<path opacity="0.3" d="M85.5268 56.8918L94.5272 46.5615H76.5389L85.5268 56.8918Z" fill="black"/>
<path d="M85.5268 53.8844L94.5272 46.5615C93.8867 45.9455 93.0411 45.6034 92.1628 45.6018H78.9032C78.0249 45.605 77.1793 45.947 76.5389 46.5615L85.5268 53.8844Z" fill="white"/>
<path d="M76.5389 46.5615L85.5268 53.8844L94.5272 46.5615" stroke="#0D0D0D" stroke-width="0.2" stroke-linecap="round" stroke-linejoin="round"/>
<path d="M91.2923 47.3392C91.3048 45.9914 91.5939 44.6612 92.1411 43.4322C92.6882 42.2049 93.481 41.1058 94.4681 40.2079C94.5862 41.7662 93.8805 42.965 94.5862 44.0435C94.9391 41.4067 96.2324 41.4067 97.0563 38.4104C99.4098 41.7662 97.291 44.0435 98.5859 46.6803C98.5859 46.6803 99.4098 45.6019 99.1735 42.965C100.35 43.8044 101.292 45.4942 101.292 47.3392C101.292 48.6916 100.765 49.9871 99.8279 50.942C98.889 51.897 97.6175 52.4338 96.2915 52.4338C94.9655 52.4338 93.694 51.897 92.7566 50.942C91.8177 49.9871 91.2923 48.6916 91.2923 47.3392Z" fill="#404D96"/>
<path d="M131.172 114.696C130.215 114.696 129.388 114.313 128.844 113.643C128.281 112.956 128.074 112.018 128.281 111.042L129.688 103.64C130.083 101.631 132.016 99.9868 133.987 99.9868H161.343C162.3 99.9868 163.127 100.368 163.671 101.038C164.234 101.727 164.441 102.665 164.234 103.64L162.826 111.042C162.433 113.051 160.499 114.696 158.526 114.696H131.172Z" fill="#231F20"/>
<path d="M131.565 129.233C131.547 129.233 131.509 129.233 131.491 129.233C131.284 129.195 131.154 128.984 131.191 128.792L133.894 114.639C133.931 114.428 134.138 114.294 134.326 114.332C134.533 114.37 134.664 114.58 134.626 114.772L131.923 128.927C131.904 129.099 131.735 129.233 131.565 129.233Z" fill="#231F20"/>
<path d="M153.157 129.233C153.138 129.233 153.101 129.233 153.082 129.233C152.876 129.195 152.744 128.984 152.782 128.792L155.486 114.639C155.523 114.428 155.73 114.294 155.918 114.332C156.123 114.37 156.255 114.58 156.218 114.772L153.515 128.927C153.496 129.099 153.326 129.233 153.157 129.233Z" fill="#231F20"/>
<path d="M108.32 168.254C108.301 168.254 108.264 168.254 108.245 168.254C108.039 168.215 107.908 168.006 107.945 167.814L114.553 132.81C114.591 132.599 114.797 132.465 114.986 132.504C115.192 132.542 115.323 132.753 115.286 132.943L108.677 167.947C108.659 168.12 108.489 168.254 108.32 168.254Z" fill="#231F20"/>
<path d="M124.166 168.254C124.148 168.254 124.11 168.254 124.092 168.254C123.885 168.215 123.754 168.006 123.792 167.814L130.4 132.81C130.437 132.599 130.644 132.465 130.832 132.504C131.039 132.542 131.169 132.753 131.132 132.943L124.524 167.947C124.505 168.12 124.336 168.254 124.166 168.254Z" fill="#231F20"/>
<path d="M161.943 168.254C161.773 168.254 161.604 168.12 161.567 167.947L154.957 132.943C154.92 132.732 155.052 132.542 155.259 132.504C155.465 132.465 155.652 132.599 155.689 132.81L162.299 167.814C162.336 168.025 162.206 168.215 161.999 168.254C161.98 168.254 161.962 168.254 161.943 168.254Z" fill="#231F20"/>
<path d="M146.097 168.254C145.927 168.254 145.758 168.12 145.72 167.947L139.111 132.943C139.074 132.732 139.206 132.542 139.412 132.504C139.619 132.465 139.806 132.599 139.845 132.81L146.453 167.814C146.49 168.025 146.359 168.215 146.153 168.254C146.153 168.254 146.115 168.254 146.097 168.254Z" fill="#231F20"/>
<path d="M114.143 133.059C112.997 133.059 112.077 132.121 112.077 130.954C112.077 129.787 112.997 128.851 114.143 128.851H156.011C157.157 128.851 158.077 129.787 158.077 130.954C158.077 132.121 157.157 133.059 156.011 133.059H114.143Z" fill="#231F20"/>
<path d="M138.55 133.059C137.406 133.059 136.485 132.121 136.485 130.954C136.485 129.787 137.406 128.851 138.55 128.851H156.011C157.157 128.851 158.077 129.787 158.077 130.954C158.077 132.121 157.157 133.059 156.011 133.059H138.55Z" fill="#FFC930"/>
<path d="M106.036 59.4337V59.4179C107.171 58.1716 109.574 55.7549 109.619 55.6488C109.783 55.4967 110.664 47.089 112.394 47.3171C113.081 47.3171 113.394 47.8935 113.499 48.1675C113.529 48.2293 113.604 48.2435 113.649 48.2134C113.991 47.9854 115.096 47.3471 116.722 47.3471C118.752 47.3772 119.767 47.8175 119.871 48.5777C119.871 48.5777 119.871 48.5935 119.885 48.5935C120.109 48.6236 121.228 49.0496 120.945 49.7939C120.945 49.8098 120.945 49.8098 120.961 49.8098C121.14 49.8699 122.273 50.3577 121.87 51.0102V51.026C121.99 51.0862 122.901 51.6642 122.602 52.2724C121.931 53.4744 117.737 53.2162 117.185 54.5845C116.961 55.085 116.991 55.7089 117.02 56.4849C117.348 60.1179 115.826 62.2764 113.543 65.7431C113.543 65.7431 113.529 65.7589 113.529 65.7431C113.276 65.6512 108.395 63.8269 108.216 63.7667C108.216 63.7667 108.216 63.7667 108.202 63.7667L106.036 59.4337Z" fill="#A56250"/>
<path d="M100.664 159.427L100.083 155.17C100.248 153.406 99.9336 152.327 99.2776 149.833C99.2776 149.819 99.1719 148.921 99.1579 148.785C99.1579 148.769 99.1579 148.769 99.1719 148.769L113.916 148.739C113.916 148.739 113.932 148.739 113.932 148.754L114.469 149.849C114.797 153.087 114.931 156.356 114.856 159.563L114.065 161.159L114.051 161.175L100.664 159.427C100.664 159.443 100.664 159.443 100.664 159.427Z" fill="#A56250"/>
<path d="M100.083 155.186C100.083 155.17 100.083 155.17 100.083 155.186L105.708 155.17C106.753 155.17 107.53 156.142 107.35 157.162L106.918 159.533C106.918 159.549 106.918 159.549 106.932 159.549H114.843C114.856 159.549 114.856 159.549 114.856 159.563C114.811 161.387 114.662 163.212 114.483 165.006C114.483 165.006 114.483 165.022 114.469 165.022L95.934 166.724C95.934 166.724 95.934 166.724 95.92 166.724L92.8608 165.036C92.8452 165.036 92.8452 165.022 92.8608 165.022C94.9049 162.057 99.5901 161.281 100.083 155.186Z" fill="#FFC930"/>
<path d="M114.483 165.052C114.364 166.176 114.214 167.303 114.036 168.413C114.036 168.413 114.036 168.427 114.022 168.427H98.7242H91.8597C91.8457 168.427 91.8457 168.427 91.8457 168.413C91.8457 166.983 92.2328 165.918 92.8452 165.036H92.8608L114.483 165.052Z" fill="white"/>
<path d="M96.0832 118.058C101.008 112.099 113.857 108.176 120.319 106.52C122.661 105.926 124.05 105.637 124.079 105.637H133.435H133.451C133.585 105.774 137.017 109.332 138.062 115.306C139.316 122.665 133.749 129.218 126.392 129.218H109.663C109.649 129.218 109.649 129.233 109.649 129.233C112.066 135.604 113.723 142.764 114.454 149.819C114.454 149.833 114.454 149.833 114.438 149.833H99.2916C99.2916 149.833 99.2776 149.833 99.2776 149.819C96.9195 141.229 90.7405 124.535 96.0832 118.058Z" fill="#404D96"/>
<path opacity="0.3" d="M110.007 119.548C103.574 120.035 100.605 122.559 102.486 132.151C105.098 145.454 109.887 151.217 109.694 155.444C109.38 162.103 102.276 163.106 102.276 168.427L120.498 167.591C120.513 167.591 120.498 167.607 120.498 167.591C120.513 166.664 121.662 118.651 110.007 119.548Z" fill="black"/>
<path d="M113.276 160.081L112.439 155.17C112.455 153.392 112.186 152.069 111.528 149.833C111.528 149.803 111.514 148.815 111.514 148.693C111.514 148.679 111.514 148.679 111.528 148.679L126.557 148.481C126.557 148.481 126.557 148.481 126.571 148.481L128.572 149.819C128.572 149.819 128.572 149.819 128.572 149.833C129.137 152.905 129.556 156.142 129.795 159.533L129.616 161.327C129.616 161.343 129.601 161.343 129.601 161.343L113.276 160.081C113.276 160.095 113.276 160.095 113.276 160.081Z" fill="#A56250"/>
<path d="M106.694 165.006C108.469 162.011 112.41 161.251 112.439 155.186C112.439 155.17 112.439 155.17 112.455 155.17H117.931C118.96 155.17 119.722 156.112 119.557 157.116L119.17 159.533C119.17 159.549 119.17 159.549 119.184 159.549H129.779C129.795 159.549 129.795 159.549 129.795 159.563C129.915 161.311 129.989 163.152 130.003 165.006C130.003 165.006 130.003 165.022 129.989 165.022C129.734 165.098 124.617 166.405 119.245 166.405C113.335 166.405 107.112 165.098 106.694 165.006C106.694 165.022 106.678 165.006 106.694 165.006Z" fill="#FFC930"/>
<path d="M106.604 118.058C113.319 109.94 134.466 105.668 134.6 105.637L148.016 106.124C148.016 106.124 148.03 106.124 148.03 106.139C148.075 106.26 148.508 107.736 148.955 109.803C149.269 111.277 149.583 113.041 149.733 114.835C150.448 123.257 144.27 129.233 136.928 129.233H121.737C121.721 129.233 121.721 129.248 121.721 129.248C124.661 135.148 127.093 142.019 128.572 149.819C128.572 149.833 128.572 149.833 128.556 149.833H111.544C111.544 149.833 111.528 149.833 111.528 149.819C108.813 140.787 101.127 124.687 106.604 118.058Z" fill="#404D96"/>
<path opacity="0.3" d="M118.797 124.049C118.02 121.145 129.958 129.218 132.913 129.218C129.094 129.218 121.99 129.218 121.721 129.218H121.707C121.632 129.05 120.394 126.558 118.797 124.049Z" fill="black"/>
<path d="M130.003 165.036C130.019 166.146 130.003 167.272 129.974 168.413C129.974 168.427 129.974 168.427 129.958 168.427H120.676H105.844C105.828 168.427 105.828 168.427 105.828 168.413C105.828 166.968 106.156 165.904 106.678 165.036H106.694H130.003C130.003 165.022 130.003 165.022 130.003 165.036Z" fill="white"/>
<path d="M159.403 96.6057C157.73 91.6805 147.374 79.1378 141.659 75.9134V75.8992C137.957 74.089 133.585 73.9227 133.481 73.9227L125.646 74.0447L122.616 74.5911C120.706 74.2727 114.454 73.6646 110.963 73.3605C109.679 73.2386 108.768 73.1626 108.604 73.1626C108.589 73.1626 108.589 73.1467 108.589 73.1325C108.813 72.8126 111.41 69.072 113.513 65.7732V65.7589L106.036 59.4337H106.022C102.753 62.8085 99.2325 66.5032 97.7402 68.3736C96.2324 70.2581 95.5158 72.8585 95.8143 75.2752C96.1578 78.0736 97.8149 80.6724 100.605 82.7866C101.858 83.7289 103.217 84.5349 104.605 85.2191C110.185 87.9699 116.111 88.7301 116.394 88.7618C116.394 88.7618 116.409 88.7618 116.409 88.776L120.319 106.504L120.333 106.519L148.135 106.534C148.15 106.534 148.15 106.519 148.15 106.519L148.001 105.835C149.24 105.926 150.448 105.972 151.553 105.972C155.268 105.972 157.791 105.424 158.657 104.421C159.566 103.387 160.88 100.97 159.403 96.6057Z" fill="white"/>
<path d="M116.021 149.848L99.2776 149.833" stroke="black" stroke-linecap="round" stroke-linejoin="round"/>
<path d="M99.0382 158.849L101.247 159.761" stroke="#1B1912" stroke-linecap="round" stroke-linejoin="round"/>
<path d="M97.6796 160.689L99.4859 162.209" stroke="#1B1912" stroke-linecap="round" stroke-linejoin="round"/>
<path d="M111.842 158.803L114.065 159.761" stroke="#1B1912" stroke-linecap="round" stroke-linejoin="round"/>
<path d="M110.603 160.871L112.306 162.209" stroke="#1B1912" stroke-linecap="round" stroke-linejoin="round"/>
<path d="M122.632 73.2687L122.646 72.1586C122.646 72.1443 122.632 72.1443 122.632 72.1443C122.379 72.2045 119.573 72.7826 117.752 71.0643C115.498 68.7379 116.991 64.1927 116.826 61C116.782 60.2098 116.796 59.4338 116.871 58.7496C117.364 54.0208 120.706 53.2464 126.259 53.3366C132.734 53.5647 133.198 57.0171 133.392 59.3879C133.451 61.426 133.435 65.3631 133.406 68.5399C133.376 71.1403 133.435 72.7525 133.435 72.8728V72.8887L132.302 73.8769C132.302 73.8769 132.302 73.8769 132.287 73.8769L122.661 73.2846C122.646 73.2846 122.632 73.2846 122.632 73.2687Z" fill="#A56250"/>
<path opacity="0.3" d="M122.661 72.1443C122.646 72.1443 122.646 72.1443 122.661 72.1443L122.646 73.2845V74.013C122.646 74.0289 122.646 74.0289 122.661 74.0289L123.392 74.0447H123.408L125.96 70.8963C125.974 70.8821 125.96 70.8663 125.945 70.8821C124.527 71.5963 122.795 72.0983 122.661 72.1443Z" fill="black"/>
<path d="M131.825 68.7078C130.914 68.7078 129.691 68.4639 128.945 67.4155V67.3997C129.153 67.2033 132.481 63.8126 130.914 61.7745C130.496 61.2281 129.915 60.9541 129.212 60.9541C127.72 60.9541 126.078 62.1862 125.974 62.2765H125.96C125.825 62.2305 124.362 60.8021 124.9 58.5374C124.9 58.5216 124.884 58.5057 124.87 58.5216C123.094 59.8598 121.409 60.1021 121.079 58.0813C121.079 58.0655 121.065 58.0655 121.049 58.0655C120.05 58.7655 119.11 59.1456 118.214 59.1456C117.348 59.1297 116.871 58.8415 116.842 58.7655C116.842 58.7655 116.842 58.7655 116.842 58.7496C117.065 54.0208 120.975 52.0903 126.109 52.1964C136.987 52.1964 133.467 68.1155 133.376 68.5257C133.376 68.5257 133.376 68.5399 133.361 68.5399C133.317 68.5557 132.646 68.7078 131.825 68.7078Z" fill="black"/>
<path d="M125.721 74.485L123.498 77.4037C123.498 77.4195 123.467 77.4037 123.467 77.4037L122.616 74.5911L122.632 73.2988C122.632 73.2846 122.632 73.2846 122.646 73.2846L133.421 72.8728C133.435 72.8728 133.435 72.8728 133.435 72.8886L133.481 73.9069V73.9228L128.287 77.7695H128.273L125.75 74.485C125.736 74.485 125.736 74.485 125.721 74.485Z" fill="#F5F5F5"/>
<path d="M120.934 66.2518C120.703 66.811 120.092 67.1045 119.513 66.8841" stroke="black" stroke-linecap="round" stroke-linejoin="round"/>
<path d="M119.781 63.4166L119.736 63.8426C119.706 64.1309 119.826 64.4048 120.05 64.587" stroke="black" stroke-linecap="round" stroke-linejoin="round"/>
<path d="M122.11 62.2463C122.721 62.2622 122.721 63.1744 122.11 63.1886C121.497 63.1744 121.497 62.2622 122.11 62.2463Z" fill="black"/>
<path d="M118.035 62.2463C118.648 62.2622 118.648 63.1744 118.035 63.1886C117.423 63.1744 117.423 62.2622 118.035 62.2463Z" fill="black"/>
<path d="M125.646 79.8679C126.944 79.898 126.944 81.8443 125.646 81.8744C124.348 81.8443 124.348 79.898 125.646 79.8679Z" fill="#252525"/>
<path d="M125.646 86.8756C126.944 86.9057 126.944 88.852 125.646 88.8821C124.348 88.852 124.348 86.9057 125.646 86.8756Z" fill="#252525"/>
<path d="M125.646 93.8992C126.944 93.9308 126.944 95.8756 125.646 95.9073C124.348 95.8756 124.348 93.9308 125.646 93.8992Z" fill="#252525"/>
<path d="M116.409 88.7459L115.767 84.8533" stroke="#252525" stroke-width="0.2" stroke-linecap="round" stroke-linejoin="round"/>
<path d="M108.604 73.1467L106.484 76.0512" stroke="#252525" stroke-width="0.2" stroke-linecap="round" stroke-linejoin="round"/>
<path d="M122.646 72.1444C124.452 71.8403 125.974 70.6842 125.974 70.6842" stroke="black" stroke-width="0.5" stroke-linecap="round" stroke-linejoin="round"/>
<path d="M127.57 64.5427L128.929 63.4626" stroke="black" stroke-width="0.5" stroke-linecap="round" stroke-linejoin="round"/>
<path d="M113.543 48.2736C112.991 48.5634 111.365 49.6118 110.603 50.7219" stroke="black" stroke-width="0.5" stroke-linecap="round" stroke-linejoin="round"/>
<path d="M119.842 48.5935C118.782 48.4415 117.588 48.2895 116.528 48.4415C115.17 48.6395 113.812 49.5216 113.812 49.5216" stroke="black" stroke-width="0.5" stroke-linecap="round" stroke-linejoin="round"/>
<path d="M121.856 51.026C120.647 51.026 118.349 51.0561 115.946 52.4402" stroke="black" stroke-width="0.5" stroke-linecap="round" stroke-linejoin="round"/>
<path d="M120.945 49.8097C120.199 49.8097 117.438 49.3695 114.886 50.9041" stroke="black" stroke-width="0.5" stroke-linecap="round" stroke-linejoin="round"/>
<path opacity="0.3" d="M106.47 76.0353L108.575 73.1467C108.575 73.1467 108.575 73.1467 108.589 73.1467C108.693 73.1467 109.724 73.2386 110.931 73.3447C110.947 73.3447 110.947 73.3605 110.931 73.3748L106.5 76.0512C106.47 76.067 106.455 76.0512 106.47 76.0353Z" fill="#252525"/>
<path opacity="0.3" d="M116.394 88.7617C116.021 88.7301 110.171 87.9557 104.664 85.2492C104.65 85.2492 104.65 85.2191 104.664 85.2191C112.424 84.9293 115.528 84.8532 115.752 84.839C115.767 84.839 115.767 84.839 115.767 84.8532L116.409 88.7459L116.394 88.7617Z" fill="#252525"/>
<path opacity="0.3" d="M149.701 114.789C149.717 114.805 149.733 114.789 149.733 114.774C149.627 113.405 149.314 111.415 148.955 109.788C148.657 108.328 148.254 106.884 148.15 106.534C148.105 106.367 148.016 105.911 148.001 105.835C148.001 105.835 148.001 105.82 147.985 105.82C145.389 105.622 142.644 105.287 140.241 104.815C138.674 104.511 137.241 104.193 136.182 103.935C136.167 103.935 136.182 103.949 136.182 103.965L135.735 106.504C135.735 106.519 135.735 106.55 135.749 106.55H138.645C144.255 109.028 149.285 114.333 149.701 114.789Z" fill="#252525"/>
<path opacity="0.3" d="M141.226 94.8874C141.6 94.8874 141.837 94.9033 141.928 94.9033C141.942 94.9033 141.942 94.8874 141.942 94.8732C140.942 93.5651 139.66 91.9386 138.615 90.0683C138.615 90.0541 138.584 90.0541 138.584 90.0683L137.734 95.0252C137.734 95.0395 137.734 95.0553 137.749 95.0553C138.062 95.0395 138.376 95.0252 138.658 95.0094C139.764 94.9334 140.659 94.8874 141.226 94.8874Z" fill="#252525"/>
<path d="M137.72 95.0553C135.108 95.2533 131.825 95.7094 129.347 96.8338C125.87 98.3399 119.035 103.721 121.676 103.859C122.155 103.859 123.498 103.219 124.154 102.885C124.228 102.855 124.303 102.947 124.244 103.007C123.392 103.965 121.065 106.778 123.213 106.884C123.602 106.884 123.975 106.792 124.05 106.778C124.064 106.778 124.064 106.778 124.064 106.792C124.452 108.45 126.526 107.522 126.974 107.036C126.989 107.02 127.005 107.036 127.005 107.052C127.005 107.568 127.645 107.932 128.317 107.902C129.734 107.796 134.123 103.675 134.331 103.447H134.346C134.421 103.479 135.122 103.675 136.212 103.935C137.272 104.193 138.69 104.527 140.256 104.815C140.27 104.815 140.27 104.815 140.27 104.801C140.286 104.587 140.465 102.079 140.062 99.6622C139.689 97.3817 138.733 95.1773 138.674 95.0252C138.674 95.0252 138.674 95.0252 138.659 95.0252C138.36 95.0094 138.048 95.0395 137.72 95.0553Z" fill="#A56250"/>
<path d="M138.615 90.0841C139.764 91.9544 140.614 93.2008 141.973 94.9032" stroke="#252525" stroke-width="0.5" stroke-linecap="round" stroke-linejoin="round"/>
<path d="M127.378 99.9663C126.318 100.772 125.02 102.141 124.05 103.067" stroke="black" stroke-width="0.5" stroke-linecap="round" stroke-linejoin="round"/>
<path d="M129.481 101.198C129.481 101.198 125.273 105.409 124.064 106.792" stroke="black" stroke-width="0.5" stroke-linecap="round" stroke-linejoin="round"/>
<path d="M131.586 102.567L126.989 107.02" stroke="black" stroke-width="0.5" stroke-linecap="round" stroke-linejoin="round"/>
<path d="M106.708 165.022C108.485 162.011 112.41 161.251 112.439 155.17C112.439 154.836 112.439 154.47 112.41 154.09C112.335 152.996 112.037 151.551 111.514 149.849C108.799 140.803 101.112 124.687 106.59 118.058C109.172 114.926 113.916 112.373 118.782 110.396" stroke="#060606" stroke-width="0.2" stroke-linecap="round" stroke-linejoin="round"/>
<path d="M128.572 149.849H111.528" stroke="black" stroke-linecap="round" stroke-linejoin="round"/>
<path d="M138.659 95.0094C141.823 94.7054 149.045 95.2074 149.045 95.2074" stroke="#252525" stroke-width="0.5" stroke-linecap="round" stroke-linejoin="round"/>
<path d="M140.257 104.785C143.241 105.485 148.001 105.835 148.001 105.835" stroke="#252525" stroke-width="0.5" stroke-linecap="round" stroke-linejoin="round"/>
<path d="M177.561 109.121H173.64V168.425H177.561V109.121Z" fill="#231F20"/>
<path d="M82.0433 109.121H78.1229V168.425H82.0433V109.121Z" fill="#231F20"/>
<path d="M73.3336 106.904H182.496C182.754 106.903 183.009 106.953 183.248 107.053C183.486 107.153 183.702 107.3 183.884 107.486C184.066 107.672 184.211 107.893 184.309 108.135C184.406 108.377 184.456 108.638 184.456 108.9C184.456 109.163 184.406 109.422 184.309 109.666C184.211 109.909 184.066 110.129 183.884 110.314C183.702 110.501 183.486 110.647 183.248 110.746C183.009 110.846 182.754 110.898 182.496 110.897H73.3336C73.0755 110.898 72.8206 110.846 72.5828 110.746C72.3434 110.647 72.1273 110.501 71.9454 110.314C71.7636 110.129 71.619 109.909 71.5211 109.666C71.4231 109.422 71.3718 109.163 71.3734 108.9C71.3718 108.638 71.4231 108.377 71.5211 108.135C71.619 107.893 71.7636 107.672 71.9454 107.486C72.1273 107.3 72.3434 107.153 72.5828 107.053C72.8206 106.953 73.0755 106.903 73.3336 106.904Z" fill="#231F20"/>
<path d="M180.973 162.558L179.488 143.92L203.139 143.915L201.649 162.558H180.973Z" fill="#C3CBF0"/>
<path d="M192.833 165.511L202.225 155.943" stroke="#404D96" stroke-width="4" stroke-linecap="round" stroke-linejoin="round"/>
<path d="M183.774 165.511L203.009 145.917" stroke="#404D96" stroke-width="4" stroke-linecap="round" stroke-linejoin="round"/>
<path d="M180.725 159.389L195.983 143.861" stroke="#404D96" stroke-width="4" stroke-linecap="round" stroke-linejoin="round"/>
<path d="M180.073 150.842L186.794 143.994" stroke="#404D96" stroke-width="4" stroke-linecap="round" stroke-linejoin="round"/>
<path d="M189.813 165.511L180.407 155.928" stroke="#404D96" stroke-width="4" stroke-linecap="round" stroke-linejoin="round"/>
<path d="M198.857 165.511L179.58 145.872" stroke="#404D96" stroke-width="4" stroke-linecap="round" stroke-linejoin="round"/>
<path d="M201.891 159.389L186.692 143.889" stroke="#404D96" stroke-width="4" stroke-linecap="round" stroke-linejoin="round"/>
<path d="M202.602 150.886L195.735 143.889" stroke="#404D96" stroke-width="4" stroke-linecap="round" stroke-linejoin="round"/>
<path d="M179.493 143.924L179.227 140.667L203.401 140.662L203.144 143.924H179.493Z" fill="#404D96"/>
<path d="M181.451 168.474L180.968 162.555L201.644 162.55L201.184 168.474H181.451Z" fill="#404D96"/>
<path d="M163.685 106.86L164.885 103.838C162.078 103.558 159.956 101.721 159.956 99.5767C159.956 97.4514 161.972 95.6602 164.742 95.334L162.975 89.8608C162.975 89.8513 162.975 89.8513 162.984 89.8513H172.903C172.913 89.8513 172.913 89.8608 172.913 89.8608L171.145 95.334C173.917 95.6602 175.933 97.4514 175.933 99.5767C175.933 101.721 173.81 103.558 171.004 103.838L172.202 106.86H163.685Z" fill="#404D96"/>
<path opacity="0.3" d="M168.526 106.86V103.838C171.217 103.568 173.099 101.811 173.099 99.5767C173.099 97.3611 171.324 95.6507 168.668 95.334V89.8513H172.913C172.922 89.8513 172.922 89.8608 172.922 89.8608L171.155 95.334C173.925 95.6602 175.941 97.4514 175.941 99.5767C175.941 101.721 173.819 103.558 171.013 103.838L172.212 106.86H168.526Z" fill="#272727"/>
<path d="M171.351 85.5358C171.155 85.5358 170.977 85.4899 170.844 85.3901C169.849 84.7028 170.64 81.7635 172.602 78.8321C174.264 76.3616 176.252 74.6338 177.452 74.6338C177.646 74.6338 177.823 74.6781 177.957 74.7779C178.952 75.4652 178.162 78.4061 176.199 81.3375C174.539 83.808 172.549 85.5358 171.351 85.5358Z" fill="#FFC930"/>
<path d="M154.371 90.8285C153.785 90.8285 153.412 90.6844 153.288 90.4215C153.092 90.005 153.501 89.3272 154.441 88.5116C155.383 87.6976 156.732 86.8471 158.26 86.106C160.312 85.1098 162.363 84.4954 163.597 84.4954C164.183 84.4954 164.556 84.6395 164.68 84.9024C164.876 85.3189 164.467 85.9967 163.527 86.8107C162.585 87.6263 161.236 88.4767 159.708 89.2179C157.656 90.2124 155.613 90.8285 154.371 90.8285Z" fill="#FFC930"/>
<path d="M167.949 91.842C165.355 91.842 163.207 90.0509 162.994 89.8687C162.984 89.8608 162.994 89.8513 163.003 89.8513H172.903C172.913 89.8513 172.913 89.8608 172.913 89.8687C172.69 90.0509 170.542 91.842 167.949 91.842Z" fill="#231F20"/>
<path d="M177.895 74.8318C171.501 82.5221 168.837 89.6708 167.949 91.6615" stroke="#63552B" stroke-width="0.5" stroke-linecap="round" stroke-linejoin="round"/>
<path d="M153.384 90.3945C156.404 88.0411 162.532 84.8754 164.663 84.8754C166.35 84.8754 167.15 91.5696 167.15 91.5696" stroke="#63552B" stroke-width="0.5" stroke-linecap="round" stroke-linejoin="round"/>
<path d="M171.155 95.334H168.668" stroke="black" stroke-width="0.5" stroke-linecap="round" stroke-linejoin="round"/>
<path d="M171.013 103.838H168.526" stroke="black" stroke-width="0.5" stroke-linecap="round" stroke-linejoin="round"/>
<path d="M80.6147 101.061C78.0281 101.061 75.3575 98.9162 74.6595 96.281L69.7816 77.7362C69.4365 76.4217 69.6246 75.1959 70.3117 74.2837C70.9646 73.4159 71.9998 72.9392 73.2263 72.9392H102.447C105.035 72.9392 107.708 75.0898 108.404 77.733L113.28 96.2635C113.621 97.5812 113.426 98.8101 112.736 99.7223C112.082 100.585 111.053 101.061 109.837 101.061H80.6147Z" fill="#FFC930"/>
<path opacity="0.3" d="M96.4811 101.061C96.4718 100.999 96.4656 100.935 96.4625 100.872C96.4594 100.809 96.4563 100.747 96.4485 100.687C96.2604 98.7737 95.0386 97.2154 93.7235 97.2154C93.4764 97.2185 93.2323 97.274 93.0085 97.3801C92.7846 97.4862 92.5857 97.6398 92.4255 97.8314C91.8473 98.4776 91.5628 99.545 91.6654 100.687L91.7089 101.056L88.4399 101.061L87.7093 93.3671L99.0367 93.3623L99.7813 101.061H96.4811Z" fill="black"/>
<path d="M84.0843 106.977L87.6518 93.3655L98.9932 93.3623L95.4101 106.977H84.0843ZM92.2856 97.2154C90.9768 97.2154 89.5016 98.7737 88.9948 100.688C88.6902 101.84 88.8005 102.913 89.2871 103.561C89.4239 103.75 89.6026 103.902 89.8094 104.006C90.0146 104.109 90.2415 104.161 90.4716 104.158C91.7882 104.158 93.2712 102.6 93.7779 100.685C94.0733 99.5307 93.9582 98.4554 93.4686 97.8093C93.3318 97.6224 93.153 97.4704 92.9478 97.3674C92.7426 97.2645 92.5157 97.2122 92.2856 97.2154Z" fill="#404D96"/>
<path d="M86.5232 80.0261L87.2352 82.7485" stroke="black" stroke-width="4" stroke-linecap="round" stroke-linejoin="round"/>
<path d="M89.8622 80.0261L90.5726 82.7485" stroke="black" stroke-width="4" stroke-linecap="round" stroke-linejoin="round"/>
<path d="M93.2012 80.0261L93.9116 82.7485" stroke="black" stroke-width="4" stroke-linecap="round" stroke-linejoin="round"/>
<path d="M100.56 106.977C100.56 106.703 100.611 106.434 100.714 106.182C100.815 105.93 100.964 105.701 101.154 105.507C101.342 105.314 101.566 105.161 101.813 105.056C102.06 104.952 102.326 104.898 102.593 104.898H126.835C127.375 104.898 127.892 105.116 128.275 105.506C128.656 105.895 128.872 106.423 128.872 106.972V106.977H100.56Z" fill="#FFC930"/>
<path d="M119.287 106.977C119.285 106.703 119.338 106.434 119.439 106.182C119.542 105.93 119.691 105.701 119.879 105.507C120.069 105.314 120.292 105.161 120.54 105.056C120.787 104.952 121.051 104.898 121.318 104.898H126.835C127.375 104.898 127.892 105.116 128.275 105.506C128.656 105.895 128.872 106.423 128.872 106.972V106.977H119.287Z" fill="#404D96"/>
<path d="M171.818 160.66L151.231 160.664L151.228 152.954L171.818 152.951V160.66Z" fill="#FFC930"/>
<path opacity="0.3" d="M171.818 160.66L151.231 160.664L171.818 152.935V160.66Z" fill="#D69E00"/>
<path d="M169.369 156.801C169.369 155.993 168.727 155.339 167.935 155.339C167.144 155.339 166.502 155.993 166.502 156.801C166.502 157.607 167.144 158.261 167.935 158.261C168.727 158.261 169.369 157.607 169.369 156.801Z" fill="black"/>
<path d="M171.818 168.299L151.231 168.302L151.228 160.592L171.818 160.589V168.299Z" fill="#404D96"/>
<path opacity="0.3" d="M171.818 168.299L151.231 168.302L171.818 160.588V168.299Z" fill="#272727"/>
<path d="M169.369 164.439C169.369 163.631 168.727 162.977 167.935 162.977C167.144 162.977 166.502 163.631 166.502 164.439C166.502 165.245 167.144 165.899 167.935 165.899C168.727 165.899 169.369 165.245 169.369 164.439Z" fill="black"/>
<path d="M151.363 160.66H171.815" stroke="black" stroke-linecap="round" stroke-linejoin="round"/>
</g>
<defs>
<clipPath id="clip0_30_580">
<rect width="254" height="194" rx="8" fill="white"/>
</clipPath>
</defs>
</svg>
