<svg width="195" height="174" viewBox="0 0 195 174" fill="none" xmlns="http://www.w3.org/2000/svg">
<g clip-path="url(#clip0_17_177)">
<path d="M60.2167 127.642H35.7906C35.1748 127.642 34.6738 127.184 34.6738 126.622C34.6738 126.059 35.1748 125.601 35.7906 125.601H60.2167C60.8325 125.601 61.3333 126.059 61.3333 126.622C61.3333 127.184 60.8325 127.642 60.2167 127.642Z" fill="#8A6733"/>
<path d="M16.5929 133.105C16.5929 133.289 16.754 133.436 16.9547 133.436H79.0525C79.2531 133.436 79.4142 133.289 79.4142 133.105C79.4142 132.922 79.2531 132.775 79.0525 132.775H16.9547C16.754 132.775 16.5929 132.922 16.5929 133.105Z" fill="#3F3D56"/>
<path d="M147.61 66.5018C158.522 66.5018 167.368 58.4179 167.368 48.446C167.368 38.4741 158.522 30.3902 147.61 30.3902C136.698 30.3902 127.852 38.4741 127.852 48.446C127.852 58.4179 136.698 66.5018 147.61 66.5018Z" fill="#FF6884"/>
<path d="M0 155.921C0 156.104 0.161113 156.252 0.361741 156.252H159.122C159.322 156.252 159.483 156.104 159.483 155.921C159.483 155.738 159.322 155.591 159.122 155.591H0.361741C0.161113 155.591 0 155.738 0 155.921Z" fill="#3F3D56"/>
<path d="M2.29645 133.598L1.7886 133.09L51.3549 91.7567L69.2127 99.0724L88.4966 68.8515L104.34 61.8726L119.02 84.2305C126.945 65.4806 146.82 45.8639 170.637 25.9613L171.223 26.3948C148.885 45.938 129.774 65.5699 118.928 85.4291L105.35 64.688C104.708 63.7081 103.36 63.3296 102.227 63.8113C93.5672 67.4938 86.3436 73.5047 81.5226 81.0402L69.4431 99.9213L66.6857 98.7917C57.4638 95.0139 46.6681 96.5973 39.2029 102.822L2.29645 133.598Z" fill="#3F3D56"/>
<path d="M171.754 29.7243L171.002 29.7721L169.787 27.3672L167.069 26.8625L166.963 26.1799L171.444 25.598L171.754 29.7243Z" fill="#3F3D56"/>
<path d="M94.4384 44.4395L97.1028 35.0791L107.482 34.6228L110.588 47.5259L94.4384 44.4395Z" fill="#FFB6B6"/>
<path opacity="0.1" d="M94.4384 44.4395L97.1028 35.0791L107.482 34.6228L110.588 47.5259L94.4384 44.4395Z" fill="black"/>
<path d="M101.268 40.3174C108.188 40.3174 113.797 35.1915 113.797 28.8683C113.797 22.5451 108.188 17.4192 101.268 17.4192C94.3492 17.4192 88.74 22.5451 88.74 28.8683C88.74 35.1915 94.3492 40.3174 101.268 40.3174Z" fill="#FFB6B6"/>
<path d="M108.181 31.2917C108.181 31.2917 103.421 22.6742 97.8451 23.1718C92.2687 23.6693 89.3309 24.2744 89.3309 24.2744C89.3309 24.2744 87.6756 17.5626 95.4688 14.981C95.4688 14.981 85.56 6.05481 97.3573 1.67611C109.155 -2.70258 115.756 2.88189 115.756 2.88189C115.756 2.88189 124.489 10.8485 113.49 16.8028C113.49 16.8028 121.657 26.8415 111.769 35.1157C111.769 35.1157 113.981 28.42 111.673 29.6548C109.366 30.8896 108.181 31.2917 108.181 31.2917Z" fill="#2F2E41"/>
<path d="M87.4454 91.7822L85.7788 93.2418L73.7395 116.832L72.4216 155.853H92.6494L102.138 136.53L108.531 155.666H126.719L130.935 120.927L119.602 96.3587L87.4454 91.7822Z" fill="#2F2E41"/>
<path d="M108.4 43.4883H94.8908L80.1971 50.7143L83.6235 64.6846C83.6235 64.6846 82.8328 73.115 84.6778 79.3776C86.5228 85.6401 85.7321 93.8296 85.7321 93.8296L119.601 96.3587L120.656 67.9364L120.129 48.9078L108.4 43.4883Z" fill="#E6E6E6"/>
<path d="M82.4375 50.8348C82.4375 50.8348 74.2666 51.0756 72.9488 55.893C71.6309 60.7103 70.5766 85.5197 70.5766 85.5197C70.5766 85.5197 71.3673 100.241 80.1971 93.2417C89.0268 86.2423 88.2361 65.046 88.2361 65.046L82.4375 50.8348Z" fill="#E6E6E6"/>
<path d="M161.689 173.722H113.538C111.907 173.722 110.581 172.51 110.581 171.02V125.531C110.581 124.04 111.907 122.828 113.538 122.828H161.689C163.32 122.828 164.647 124.04 164.647 125.531V171.02C164.647 172.51 163.32 173.722 161.689 173.722Z" fill="white"/>
<path d="M161.689 174H113.538C111.74 174 110.276 172.663 110.276 171.02V125.531C110.276 123.887 111.74 122.55 113.538 122.55H161.689C163.488 122.55 164.951 123.887 164.951 125.531V171.02C164.951 172.663 163.488 174 161.689 174ZM113.538 123.106C112.075 123.106 110.884 124.193 110.884 125.53V171.02C110.884 172.357 112.075 173.444 113.538 173.444H161.689C163.153 173.444 164.343 172.357 164.343 171.02V125.53C164.343 124.193 163.153 123.106 161.689 123.106H113.538Z" fill="#3F3D56"/>
<path d="M139.514 161.772H135.545C135.062 161.772 134.669 161.495 134.669 161.154V145.539C134.669 145.198 135.062 144.921 135.545 144.921H139.514C139.997 144.921 140.39 145.198 140.39 145.539V161.154C140.39 161.495 139.997 161.772 139.514 161.772Z" fill="#8A6733"/>
<path d="M126.393 152.57C126.003 152.57 125.685 152.794 125.685 153.069V161.136C125.685 161.412 126.003 161.636 126.393 161.636H130.362C130.752 161.636 131.07 161.412 131.07 161.136V153.069C131.07 152.794 130.752 152.57 130.362 152.57H126.393Z" fill="#8A6733"/>
<path d="M148.666 161.772H144.697C144.214 161.772 143.821 161.495 143.821 161.154V135.564C143.821 135.223 144.214 134.946 144.697 134.946H148.666C149.149 134.946 149.542 135.224 149.542 135.564V161.154C149.542 161.495 149.149 161.772 148.666 161.772Z" fill="#8A6733"/>
<path d="M63.2635 49.604H58.7302C58.1782 49.604 57.7292 49.2873 57.7292 48.8979V31.0617C57.7292 30.6723 58.1782 30.3556 58.7302 30.3556H63.2635C63.8155 30.3556 64.2645 30.6723 64.2645 31.0617V48.8979C64.2645 49.2873 63.8155 49.604 63.2635 49.604Z" fill="#8A6733"/>
<path d="M48.2759 39.093C47.83 39.093 47.4672 39.3489 47.4672 39.6634V48.878C47.4672 49.1926 47.83 49.4485 48.2759 49.4485H52.8093C53.2552 49.4485 53.618 49.1926 53.618 48.878V39.6634C53.618 39.3489 53.2552 39.093 52.8093 39.093H48.2759Z" fill="#8A6733"/>
<path d="M73.7177 49.604H69.1844C68.6324 49.604 68.1834 49.2873 68.1834 48.8979V19.6675C68.1834 19.2782 68.6324 18.9615 69.1844 18.9615H73.7177C74.2697 18.9615 74.7187 19.2782 74.7187 19.6675V48.8979C74.7187 49.2873 74.2697 49.604 73.7177 49.604Z" fill="#8A6733"/>
<path d="M130.232 129.446C132.58 129.241 134.197 126.341 133.843 122.969C133.723 121.619 133.25 120.316 132.465 119.169L132.012 115.351L132.082 115.332L133.219 97.2325C133.484 93.0241 131.661 88.8888 128.149 86.1561C126.059 84.5304 123.831 83.7074 122.397 85.7614C120.019 89.1696 123.1 103.219 125.122 111.207L125.907 119.742C125.374 121.006 125.18 122.367 125.341 123.713C125.694 127.085 127.884 129.652 130.232 129.446Z" fill="#FFB6B6"/>
<path d="M117.229 49.3895C117.229 49.3895 124.082 46.9809 127.245 54.2069C130.408 61.4329 133.835 97.0813 133.835 97.0813L117.756 94.4317L117.229 49.3895Z" fill="#E6E6E6"/>
<path d="M23.1296 45.8551H13.9019C13.2861 45.8551 12.7851 45.3972 12.7851 44.8345C12.7851 44.2717 13.2861 43.8141 13.9019 43.8141H23.1296C23.7454 43.8141 24.2462 44.2717 24.2462 44.8345C24.2462 45.3972 23.7454 45.8551 23.1296 45.8551Z" fill="#E6E6E6"/>
<path d="M23.1296 31.3885H13.9019C13.2861 31.3885 12.7851 30.9306 12.7851 30.3679C12.7851 29.8051 13.2861 29.3474 13.9019 29.3474H23.1296C23.7454 29.3474 24.2462 29.8051 24.2462 30.3679C24.2462 30.9306 23.7454 31.3885 23.1296 31.3885Z" fill="#E6E6E6"/>
<path d="M23.1296 20.9558H13.9019C13.2861 20.9558 12.7851 20.4979 12.7851 19.9352C12.7851 19.3725 13.2861 18.9148 13.9019 18.9148H23.1296C23.7454 18.9148 24.2462 19.3724 24.2462 19.9352C24.2462 20.498 23.7454 20.9558 23.1296 20.9558Z" fill="#E6E6E6"/>
<path d="M12.4149 49.6545C12.4149 49.8378 12.576 49.985 12.7767 49.985H74.8745C75.0751 49.985 75.2362 49.8378 75.2362 49.6545C75.2362 49.4711 75.0751 49.3239 74.8745 49.3239H12.7767C12.576 49.3239 12.4149 49.4711 12.4149 49.6545Z" fill="#3F3D56"/>
<path d="M132.179 135.211C132.179 135.395 132.34 135.542 132.54 135.542H194.638C194.839 135.542 195 135.395 195 135.211C195 135.028 194.839 134.881 194.638 134.881H132.54C132.34 134.881 132.179 135.028 132.179 135.211Z" fill="#3F3D56"/>
<path d="M113.941 162.156C113.941 162.339 114.102 162.487 114.302 162.487H176.4C176.601 162.487 176.762 162.339 176.762 162.156C176.762 161.973 176.601 161.825 176.4 161.825H114.302C114.102 161.825 113.941 161.973 113.941 162.156Z" fill="#3F3D56"/>
<path d="M72.1827 47.9833C69.8346 48.1888 68.2177 51.0884 68.571 54.4612C68.6919 55.8103 69.1646 57.1133 69.9495 58.2612L70.402 62.0786L70.3327 62.0976L69.1952 80.1972C68.9307 84.4056 70.7536 88.5409 74.2658 91.2737C76.3551 92.8993 78.5839 93.7224 80.0171 91.6684C82.3953 88.2602 79.3149 74.2107 77.2919 66.2232L76.5076 57.6876C77.0404 56.4241 77.2343 55.0623 77.0729 53.7164C76.7203 50.3446 74.5307 47.7779 72.1827 47.9833Z" fill="#FFB6B6"/>
</g>
<defs>
<clipPath id="clip0_17_177">
<rect width="195" height="174" fill="white"/>
</clipPath>
</defs>
</svg>
