<svg width="44" height="40" viewBox="0 0 44 40" fill="none" xmlns="http://www.w3.org/2000/svg">
<path fill-rule="evenodd" clip-rule="evenodd" d="M44 34.6667C44 35.7712 43.1046 36.6667 42 36.6667H2C0.895431 36.6667 0 35.7712 0 34.6667V5.33334C0 4.22877 0.895431 3.33334 2 3.33334H42C43.1046 3.33334 44 4.22877 44 5.33334V34.6667ZM42.1667 7.00001C42.1667 5.89544 41.2712 5.00001 40.1667 5.00001H3.83333C2.72876 5.00001 1.83333 5.89544 1.83333 7.00001V33C1.83333 34.1046 2.72876 35 3.83333 35H40.1667C41.2712 35 42.1667 34.1046 42.1667 33V7.00001ZM34 26.6667C34.4602 26.6667 34.8333 27.0398 34.8333 27.5V27.5C34.8333 27.9602 34.4602 28.3333 34 28.3333H28.3333C27.8731 28.3333 27.5 27.9602 27.5 27.5V27.5C27.5 27.0398 27.8731 26.6667 28.3333 26.6667H34ZM23.8315 26.8333C23.8305 27.6621 23.1584 28.3333 22.3297 28.3333H5.19183C4.35022 28.3333 3.66768 27.6516 3.66667 26.81V26.81C3.65933 25.06 3.65383 23.25 6.8035 22.5883C8.25 22.285 10.0173 21.915 10.2722 21.4067C10.3602 21.2267 10.1988 20.905 10.0925 20.7283C8.07033 17.335 7.7 14.3317 9.053 12.265C9.99533 10.8267 11.7077 10 13.75 10C15.7758 10 17.4772 10.8133 18.4158 12.2317C19.767 14.2717 19.4095 17.2867 17.4112 20.7233C17.3067 20.9 17.1472 21.225 17.237 21.4067C17.4937 21.915 19.2867 22.2917 20.592 22.5667C23.8535 23.25 23.8425 25.0717 23.8315 26.8333V26.8333ZM5.90855 24.7645C5.11785 25.5345 6.39411 26.6667 7.49783 26.6667H20.0047C21.1067 26.6667 22.3859 25.5443 21.6113 24.7605C21.3607 24.5069 20.9507 24.3517 20.2822 24.2117C18.1353 23.7617 16.2012 23.355 15.5705 22.1C15.2515 21.465 15.3248 20.74 15.7887 19.9433C17.4772 17.045 17.8512 14.6117 16.8447 13.0917C16.236 12.1733 15.1378 11.6667 13.75 11.6667C12.3493 11.6667 11.2402 12.1833 10.6278 13.1183C9.63417 14.635 10.0265 17.12 11.704 19.935C12.1788 20.7283 12.2595 21.455 11.9423 22.0933C11.3153 23.355 9.3995 23.755 7.37183 24.18C6.62907 24.3352 6.17976 24.5003 5.90855 24.7645ZM37.6667 21.6667C38.1269 21.6667 38.5 22.0398 38.5 22.5V22.5C38.5 22.9602 38.1269 23.3333 37.6667 23.3333H28.3333C27.8731 23.3333 27.5 22.9602 27.5 22.5V22.5C27.5 22.0398 27.8731 21.6667 28.3333 21.6667H37.6667ZM37.6667 16.6667C38.1269 16.6667 38.5 17.0398 38.5 17.5V17.5C38.5 17.9602 38.1269 18.3333 37.6667 18.3333H28.3333C27.8731 18.3333 27.5 17.9602 27.5 17.5V17.5C27.5 17.0398 27.8731 16.6667 28.3333 16.6667H37.6667ZM37.6667 11.6667C38.1269 11.6667 38.5 12.0398 38.5 12.5V12.5C38.5 12.9602 38.1269 13.3333 37.6667 13.3333H28.3333C27.8731 13.3333 27.5 12.9602 27.5 12.5V12.5C27.5 12.0398 27.8731 11.6667 28.3333 11.6667H37.6667Z" fill="#333333"/>
</svg>
