<svg width="253" height="194" viewBox="0 0 253 194" fill="none" xmlns="http://www.w3.org/2000/svg">
<g clip-path="url(#clip0_30_491)">
<path d="M253 0H0V194H253V0Z" fill="#22A699"/>
<path d="M192.272 95.9217L197.743 97.2635L193.094 100.497L194.723 106.01L189.631 103.488L185.773 107.675L185.362 101.936L179.891 100.61L184.556 97.3767L182.943 91.88L188.003 94.3697L191.877 90.1825L192.272 95.9217Z" fill="#FFB6B6"/>
<path d="M78.8791 138.196L80.6659 127.688L70.3878 129.514L72.7596 131.956L68.4428 136.369L72.1746 140.184L76.4914 135.771L78.8791 138.196Z" fill="#F24C3D"/>
<path d="M163.644 34.9766L173.938 36.8034L172.151 26.2951L169.763 28.7363L165.446 24.3228L161.714 28.1381L166.031 32.5516L163.644 34.9766Z" fill="#F2BE22"/>
<path d="M134.001 27.0145H62.2997C57.4436 27.0145 53.5174 31.0287 53.5174 35.9919V104.867C53.5174 109.832 57.4436 113.846 62.2997 113.846H134.001C138.856 113.846 142.782 109.832 142.782 104.867V35.9919C142.782 31.0287 138.84 27.0145 134.001 27.0145Z" fill="#7B7479"/>
<path d="M63.1187 42.9565C65.1143 42.9565 66.7303 41.3043 66.7303 39.264C66.7303 37.2254 65.1143 35.5732 63.1187 35.5732C61.1248 35.5732 59.5087 37.2254 59.5087 39.264C59.5087 41.3043 61.1248 42.9565 63.1187 42.9565Z" fill="white"/>
<path d="M73.604 42.9565C75.598 42.9565 77.214 41.3043 77.214 39.264C77.214 37.2254 75.598 35.5732 73.604 35.5732C71.6085 35.5732 69.9924 37.2254 69.9924 39.264C69.9924 41.3043 71.6085 42.9565 73.604 42.9565Z" fill="white"/>
<path d="M84.1035 42.9565C86.0975 42.9565 87.7135 41.3043 87.7135 39.264C87.7135 37.2254 86.0975 35.5732 84.1035 35.5732C82.108 35.5732 80.4935 37.2254 80.4935 39.264C80.4935 41.3043 82.108 42.9565 84.1035 42.9565Z" fill="white"/>
<path d="M167.021 49.145H204.065C206.322 49.145 208.154 51.0187 208.154 53.3273V79.6224C208.154 81.931 206.322 83.8047 204.065 83.8047H167.021C164.765 83.8047 162.932 81.931 162.932 79.6224V53.3273C162.932 51.0187 164.765 49.145 167.021 49.145Z" fill="#FFC930"/>
<path d="M170.007 55.1784H201.08C201.69 55.1784 202.183 55.6844 202.183 56.3085V60.3647C202.183 60.9887 201.69 61.4931 201.08 61.4931H170.007C169.396 61.4931 168.901 60.9887 168.901 60.3647V56.3085C168.901 55.6844 169.396 55.1784 170.007 55.1784Z" fill="#7B7479"/>
<path d="M170.007 64.8607H189.138C189.75 64.8607 190.243 65.3667 190.243 65.9907V70.0453C190.243 70.671 189.75 71.1754 189.138 71.1754H170.007C169.396 71.1754 168.901 70.671 168.901 70.0453V65.9907C168.901 65.3667 169.396 64.8607 170.007 64.8607Z" fill="white"/>
<path d="M195.261 64.8607H201.08C201.69 64.8607 202.183 65.3667 202.183 65.9907V70.0453C202.183 70.671 201.69 71.1754 201.08 71.1754H195.261C194.649 71.1754 194.155 70.671 194.155 70.0453V65.9907C194.155 65.3667 194.649 64.8607 195.261 64.8607Z" fill="#7B7479"/>
<path d="M200.887 79.8762C200.743 79.8762 200.626 79.7566 200.626 79.6095C200.626 79.5383 200.654 79.4688 200.702 79.4187C201.992 78.1011 201.992 75.9606 200.702 74.6414C200.599 74.5364 200.599 74.3682 200.702 74.2631C200.805 74.1581 200.969 74.1581 201.072 74.2631C202.568 75.7925 202.568 78.2757 201.072 79.8051C201.024 79.8471 200.956 79.8762 200.887 79.8762Z" fill="#211800"/>
<path d="M199.974 79.0469C199.83 79.0469 199.713 78.9289 199.713 78.7818C199.713 78.7106 199.74 78.6411 199.789 78.591C200.634 77.7293 200.634 76.3261 199.789 75.4628C199.687 75.3577 199.687 75.1895 199.789 75.0828C199.892 74.9778 200.057 74.9778 200.159 75.0828C201.209 76.1563 201.209 77.9039 200.159 78.9774C200.112 79.0194 200.042 79.055 199.974 79.0469Z" fill="#211800"/>
<path d="M199.117 78.2272C198.972 78.2272 198.856 78.1076 198.856 77.9605C198.856 77.8894 198.883 77.8198 198.931 77.7713C199.329 77.3639 199.329 76.6979 198.931 76.2905C198.828 76.1854 198.828 76.0173 198.931 75.9122C199.034 75.8055 199.2 75.8055 199.302 75.9122C199.906 76.5281 199.906 77.5385 199.302 78.1561C199.253 78.1981 199.185 78.2272 199.117 78.2272Z" fill="#211800"/>
<path d="M198.335 77.3364C198.501 77.3364 198.637 77.1974 198.637 77.0277C198.637 76.8563 198.501 76.7189 198.335 76.7189C198.167 76.7189 198.033 76.8563 198.033 77.0277C198.033 77.1974 198.167 77.3364 198.335 77.3364Z" fill="#211800"/>
<path d="M125.932 138.516L118.741 136.215V132.586H116.304L103.717 144.066L116.304 157.017H118.741V153.388L125.932 151.087V138.516Z" fill="#CECDCE"/>
<path opacity="0.3" d="M119.563 136.476L118.741 136.215V153.388L121.559 152.487L119.563 136.476Z" fill="#141414"/>
<path d="M111.432 154.527H99.0195V163.185H111.432V154.527Z" fill="white"/>
<path d="M108.067 154.527H95.6545V163.185H108.067V154.527Z" fill="#CECDCE"/>
<path d="M113.984 161.524H126.165V169.708H113.984L106.42 166.032L113.984 161.524Z" fill="#CECDCE"/>
<path d="M113.984 161.524H85.0981V169.708H113.984V161.524Z" fill="#FFC930"/>
<path d="M116.304 132.586H87.4194V157.017H116.304V132.586Z" fill="#FFC930"/>
<path d="M112.824 136.144H90.8982V153.46H112.824V136.144Z" fill="white"/>
<path d="M112.243 163.304H102.267V165.438H112.243V163.304Z" fill="black"/>
<path d="M118.741 136.215V153.388" stroke="#141414" stroke-linecap="round" stroke-linejoin="round"/>
<path d="M94.0306 139.583H101.919" stroke="#FFC930" stroke-linecap="round" stroke-linejoin="round"/>
<path d="M94.0306 141.955H97.7434" stroke="#FFC930" stroke-linecap="round" stroke-linejoin="round"/>
<path d="M94.0306 145.513H99.8307" stroke="#FFC930" stroke-linecap="round" stroke-linejoin="round"/>
<path d="M78.2687 47.96H84.1794C85.3733 47.96 86.3378 48.9462 86.3378 50.1684V81.459H76.1103V50.1684C76.1261 48.9462 77.0907 47.96 78.2687 47.96Z" fill="white"/>
<path d="M95.0647 69.2952H100.974C102.169 69.2952 103.134 70.2813 103.134 71.5035V81.459H92.9063V71.5035C92.9063 70.2813 93.8709 69.2952 95.0647 69.2952Z" fill="#231F20"/>
<path d="M119.944 64.4436V81.459H109.655V64.4436C109.655 63.2068 110.635 62.2045 111.845 62.2045H117.754C118.964 62.2045 119.944 63.2068 119.944 64.4436Z" fill="#FFC930"/>
<path d="M73.3858 81.459H122.639" stroke="#231F20" stroke-width="4" stroke-linecap="round" stroke-linejoin="round"/>
<path opacity="0.2" d="M55.8356 62.8318C50.4593 68.1668 43.3437 67.5201 43.3437 67.5201V81.2618C43.3437 91.2851 53.7799 95.3268 55.8356 95.3268C57.8912 95.3268 68.3274 91.2851 68.3274 81.2618V67.5201C68.3274 67.5201 61.2118 68.1668 55.8356 62.8318Z" fill="#215067"/>
<path d="M53.7009 60.8433C48.3246 66.1783 41.209 65.5316 41.209 65.5316V79.2733C41.209 89.2966 51.6452 93.3383 53.7009 93.3383C55.7565 93.3383 66.1927 89.2966 66.1927 79.2733V65.5316C66.1927 65.5316 59.0771 66.1783 53.7009 60.8433Z" fill="#61CCFF"/>
<path d="M53.7008 83.7514C57.2998 83.7514 60.2156 80.7703 60.2156 77.0908C60.2156 73.4129 57.2998 70.4301 53.7008 70.4301C50.1035 70.4301 47.1861 73.4129 47.1861 77.0908C47.1861 80.7703 50.1035 83.7514 53.7008 83.7514Z" fill="#FFC930"/>
<path d="M51.5662 76.8483L53.3055 78.6266L55.8355 75.5549" stroke="#020202" stroke-linecap="round" stroke-linejoin="round"/>
<path d="M193.651 161.41L174.598 169.624C174.583 169.624 174.583 169.624 174.583 169.608C174.314 168.866 174.187 168.075 174.203 167.301L174.266 167.091L193.271 158.925C193.287 158.925 193.319 159.07 193.319 159.07C193.604 160.522 193.667 161.296 193.651 161.41C193.667 161.41 193.667 161.41 193.651 161.41Z" fill="#CECDCE"/>
<path d="M193.319 159.054C192.862 156.519 192.229 153.986 191.535 151.501C191.409 151.081 191.268 150.597 191.126 150.145L191.11 150.129L183.517 150.242L177.345 152.646C177.329 152.646 177.329 152.662 177.329 152.662C177.85 153.711 178.292 154.873 178.575 156.004C178.813 157.004 178.844 157.843 178.607 158.537C177.377 162.071 174.345 164.024 174.203 167.285L193.319 159.054Z" fill="#231F20"/>
<path d="M156.477 169.64H135.782C135.766 169.64 135.766 169.64 135.766 169.624C135.798 168.85 136.003 168.059 136.335 167.349C136.335 167.349 136.335 167.333 136.351 167.333L147.18 166.413L157.061 167.333C157.077 167.333 157.077 167.349 157.077 167.349C156.76 168.785 156.525 169.543 156.477 169.64C156.493 169.64 156.493 169.64 156.477 169.64Z" fill="#CECDCE"/>
<path d="M144.844 156.084C144.828 156.084 144.828 156.084 144.844 156.084C144.844 157.633 144.702 158.925 144.355 159.893C144.213 160.312 143.992 160.7 143.709 161.038C141.245 163.815 137.694 164.379 136.337 167.333H157.078C157.598 164.863 158.041 162.426 158.31 159.942C158.342 159.634 158.389 159.263 158.419 158.909C158.419 158.909 158.419 158.892 158.405 158.892L151.949 156.278L144.844 156.084Z" fill="#231F20"/>
<path d="M140.061 48.1475C139.776 48.7942 140.771 49.6494 140.866 49.7303V49.7464C140.296 51.5862 139.982 53.8123 140.771 55.0879C141.718 56.6852 143.691 57.1378 145.979 56.8307C145.995 56.8307 145.995 56.8307 145.995 56.8468L145.821 57.896L154.472 59.4771C154.488 59.4771 154.488 59.4771 154.488 59.461C154.599 58.9938 155.971 58.187 156.05 57.6697C156.129 57.251 156.177 56.7983 156.256 56.3473C156.697 53.8124 156.65 50.9557 156.966 49.0513C157.549 45.4526 158.103 42.7899 154.03 40.0949C151.615 38.4977 148.679 38.2552 145.995 38.9649C145.995 38.9649 142.365 39.6908 142.207 44.1463C142.207 44.1625 141.465 47.26 141.402 47.454C141.402 47.454 141.402 47.4702 141.386 47.4702C141.307 47.5025 140.265 47.6318 140.061 48.1475Z" fill="#D08058"/>
<path opacity="0.15" d="M145.853 57.8961C146.074 57.8476 147.874 57.4111 149.2 55.7815C149.216 55.7653 149.2 55.7491 149.185 55.7491C147.826 56.475 146.153 56.7984 146.027 56.8307C146.027 56.8307 146.011 56.8307 146.011 56.8469L145.837 57.8799C145.821 57.8799 145.837 57.8961 145.853 57.8961Z" fill="black"/>
<path d="M164.274 66.6584C162.538 62.3177 159.475 59.6227 155.908 58.8806C155.892 58.8806 155.892 58.8645 155.892 58.8645L156.066 57.6859C156.066 57.6697 156.066 57.6697 156.05 57.6697L145.885 57.7021C145.869 57.7021 145.853 57.7182 145.853 57.7344L145.663 58.7513C145.663 58.7675 145.663 58.7675 145.647 58.7675C145.459 58.7836 143.328 58.913 140.534 59.558C136.288 60.5264 130.478 68.4028 125.901 74.0191H125.885L118.94 70.8068H118.924L115.452 75.3254L114.062 81.8292V81.8454C117.613 84.3156 122.159 86.8328 126.043 86.752C132.578 86.5903 138.386 79.9571 138.782 79.5061C138.797 79.4899 138.813 79.5061 138.813 79.5222L140.296 87.7203C140.296 87.7203 140.296 87.7688 140.312 87.7688L158.324 88.0275L162.317 91.5454C162.317 91.5454 162.317 91.5454 162.333 91.5454C162.475 91.5454 164.969 91.4645 166.343 88.0275C167.242 85.5411 166.058 71.1624 164.274 66.6584Z" fill="#0E2954"/>
<path opacity="0.2" d="M143.517 74.3085L142.98 87.7203C142.98 87.7365 142.98 87.7365 142.964 87.7365H140.296C140.296 87.7365 140.281 87.7365 140.281 87.7203L138.797 79.4899V79.4737L143.486 74.2761C143.502 74.2761 143.517 74.2923 143.517 74.3085Z" fill="black"/>
<path d="M142.222 44.1625C144.148 46.5665 147.385 48.9219 147.573 49.0674H147.589C147.779 48.9058 151.283 46.0346 153.114 47.7935C155.546 50.0197 152.119 53.3451 151.063 53.9094C151.047 53.9094 151.047 53.9255 151.063 53.9417C153.241 56.2503 156.05 56.3473 156.256 56.3473C156.256 56.3473 156.272 56.3473 156.272 56.3311C156.713 53.9417 157.282 50.8425 157.549 49.2129C158.134 45.6142 158.34 41.7569 154.283 39.0619C151.868 37.4646 148.489 37.4 145.821 38.1097H145.805C145.695 37.9642 143.974 35.8027 141.544 37.1413C139.428 38.5623 140.233 41.676 142.222 44.1625Z" fill="#231F20"/>
<path d="M143.203 48.5679C143.464 48.5679 143.677 48.3512 143.677 48.0829C143.677 47.8161 143.464 47.5995 143.203 47.5995C142.94 47.5995 142.73 47.8161 142.73 48.0829C142.73 48.3512 142.94 48.5679 143.203 48.5679Z" fill="#231F20"/>
<path d="M101.545 64.9318C101.561 64.9318 101.576 64.9156 101.561 64.8994C100.692 64.3837 100.455 62.5116 101.545 62.8511C105.27 63.9957 109.579 66.3043 112.878 67.9824L112.893 67.9986L111.584 73.4855L108.711 77.3429C108.711 77.3429 108.711 77.3429 108.695 77.3429C106.817 77.4076 103.88 76.6494 101.765 74.9874C101.765 74.9874 101.765 74.9874 101.75 74.9874C98.6083 74.7288 95.4032 74.2923 95.2624 73.5017C95.0885 72.5495 98.8455 72.4525 99.9809 72.4363C99.9967 72.4363 99.9967 72.404 99.9809 72.404C98.7981 71.9691 92.1837 71.3548 94.1571 68.6598V68.6436C93.289 67.2889 94.5034 66.5953 94.8987 66.563C94.9146 66.563 94.9146 66.5468 94.9146 66.5468C94.8355 66.3851 94.3311 65.3844 95.0252 64.7394C95.498 64.3191 100.487 64.7717 101.545 64.9318Z" fill="#D08058"/>
<path d="M112.878 67.9986L108.711 77.3429V77.3591C110.495 78.9887 112.057 80.4582 114.046 81.813C114.062 81.813 114.062 81.813 114.062 81.813L118.924 70.8067C118.924 70.7906 118.924 70.7906 118.924 70.7906L112.909 67.9824C112.878 67.9824 112.878 67.9824 112.878 67.9986Z" fill="#FCFBFC"/>
<path opacity="0.2" d="M158.308 87.7203L160.344 78.3437C160.344 78.3275 160.375 78.3275 160.375 78.3437L160.707 90.3506C160.707 90.3668 160.691 90.3668 160.676 90.3668L158.308 87.7203Z" fill="black"/>
<path d="M189.263 144.431C188.506 142.254 187.715 140.285 186.894 138.477C183.517 130.973 179.949 126.517 177.77 123.355C173.446 117.124 171.599 107.523 167.873 99.792C164.227 92.1581 158.481 87.8497 158.308 87.7203C158.308 87.7203 158.308 87.7203 158.293 87.7203H153.098L140.312 87.7365C140.296 87.7365 140.296 87.7365 140.296 87.7527C140.249 88.3169 138.592 107.103 140.976 130.069C141.497 135.087 142.728 140.962 143.66 146.303C144.307 149.983 144.779 153.373 144.827 156.068C144.827 156.068 144.827 156.084 144.843 156.084L153.114 157.811L158.403 158.876C158.418 158.876 158.418 158.876 158.418 158.86C158.623 156.907 158.813 154.744 158.955 152.227C159.034 150.129 159.05 148.159 159.018 146.303C158.813 137.798 157.172 132.117 156.319 128.245C155.514 124.55 155.987 120.304 156.602 115.915C156.634 115.915 156.602 115.915 156.634 115.915C158.971 120.868 161.56 126.05 164.29 131.102C166.485 135.184 169.515 139.703 172.277 143.948C174.314 147.11 176.129 150.064 177.329 152.63L177.345 152.646L191.11 150.129C191.126 150.129 191.126 150.112 191.126 150.112C190.604 148.418 190.005 146.562 189.263 144.431Z" fill="#338EBA"/>
<path opacity="0.2" d="M160.755 124.339C160.77 124.356 160.786 124.356 160.786 124.323L159.744 112.913C159.539 110.637 159.098 108.362 158.418 106.183L157.85 104.343C157.85 104.327 157.818 104.327 157.818 104.343C157.802 108.119 157.156 112.041 156.602 115.866C156.602 115.866 156.602 115.866 156.602 115.883C157.929 118.658 159.319 121.499 160.755 124.339Z" fill="#24343B"/>
<path d="M143.249 50.9557C143.09 51.4084 142.365 51.7624 141.924 51.6024" stroke="black" stroke-linecap="round" stroke-linejoin="round"/>
<path d="M149.185 55.7491C148.222 56.2503 146.485 56.7499 145.995 56.8469" stroke="black" stroke-linecap="round" stroke-linejoin="round"/>
<path d="M151.079 50.2137L149.642 51.3922" stroke="black" stroke-linecap="round" stroke-linejoin="round"/>
<path d="M138.783 79.506L143.487 74.2923" stroke="black" stroke-linecap="round" stroke-linejoin="round"/>
<path d="M94.9146 66.5792C94.9146 66.5792 100.028 67.014 103.344 67.7561" stroke="black" stroke-linecap="round" stroke-linejoin="round"/>
<path d="M101.545 64.8995L104.07 65.336" stroke="black" stroke-linecap="round" stroke-linejoin="round"/>
<path d="M94.1729 68.6921C94.1729 68.6921 99.6187 69.806 102.444 70.3557" stroke="black" stroke-linecap="round" stroke-linejoin="round"/>
<path d="M156.634 115.931C157.266 111.556 157.755 108.685 157.85 104.359" stroke="#354D58" stroke-linecap="round" stroke-linejoin="round"/>
<path d="M182.097 156.665L178.718 156.649" stroke="#CECDCE" stroke-linecap="round" stroke-linejoin="round"/>
<path d="M181.781 159.36L178.512 158.763" stroke="#CECDCE" stroke-linecap="round" stroke-linejoin="round"/>
<path d="M147.338 161.216L144.354 159.893" stroke="#CECDCE" stroke-linecap="round" stroke-linejoin="round"/>
<path d="M145.995 163.573L143.154 161.62" stroke="#CECDCE" stroke-linecap="round" stroke-linejoin="round"/>
<path d="M144.545 87.7527C144.545 87.7527 144.624 111.831 146.675 126.954C148.728 142.076 150.859 153.26 150.448 157.198" stroke="#24343B" stroke-linecap="round" stroke-linejoin="round"/>
<path d="M158.308 87.7204L160.344 78.3437" stroke="black" stroke-linecap="round" stroke-linejoin="round"/>
</g>
<defs>
<clipPath id="clip0_30_491">
<rect width="253" height="194" rx="8" fill="white"/>
</clipPath>
</defs>
</svg>
