<svg width="52" height="52" viewBox="0 0 52 52" fill="none" xmlns="http://www.w3.org/2000/svg">
<path d="M18.1316 17.3146C18.1316 16.1433 19.3864 15.4016 20.4127 15.9654L36.2043 24.6521C36.4457 24.785 36.647 24.9803 36.7872 25.2175C36.9273 25.4547 37.0013 25.7252 37.0013 26.0007C37.0013 26.2762 36.9273 26.5467 36.7872 26.7839C36.647 27.0211 36.4457 27.2164 36.2043 27.3493L20.4127 36.0346C20.1784 36.1635 19.9146 36.229 19.6472 36.2249C19.3798 36.2208 19.1181 36.147 18.8879 36.011C18.6577 35.875 18.4669 35.6813 18.3343 35.4491C18.2016 35.2169 18.1318 34.9542 18.1316 34.6867V17.3146Z" stroke="#222222" stroke-width="2" stroke-linecap="round" stroke-linejoin="round"/>
<circle cx="26" cy="26" r="25" stroke="#222222" stroke-width="2"/>
</svg>
