<svg width="150" height="150" viewBox="0 0 150 150" fill="none" xmlns="http://www.w3.org/2000/svg">
<mask id="mask0_73_1343" style="mask-type:alpha" maskUnits="userSpaceOnUse" x="0" y="0" width="150" height="150">
<circle cx="74.7541" cy="74.7541" r="74.7541" fill="#D9D9D9"/>
</mask>
<g mask="url(#mask0_73_1343)">
<path d="M115.735 136.471C115.392 136.716 115 136.961 114.657 137.206C114.265 137.451 113.922 137.696 113.53 137.892C113.186 138.088 112.892 138.284 112.549 138.48C112.5 138.529 112.451 138.529 112.402 138.578C111.275 139.265 110.098 139.902 108.922 140.49C108.579 140.686 108.186 140.882 107.843 141.029C107.843 141.029 107.794 141.078 107.745 141.078C107.353 141.275 106.961 141.471 106.569 141.667C105.784 142.059 104.951 142.402 104.167 142.745C103.775 142.941 103.333 143.088 102.941 143.235C102.549 143.382 102.108 143.578 101.716 143.726C101.324 143.873 100.882 144.069 100.49 144.216C100.49 144.216 100.49 144.216 100.441 144.216C100.049 144.363 99.6079 144.51 99.2158 144.657C98.3334 144.951 97.4021 145.245 96.5197 145.539C96.2256 145.637 95.8825 145.735 95.5883 145.833C94.657 146.127 93.7256 146.373 92.7942 146.569C92.4511 146.667 92.1079 146.716 91.7158 146.814C90.8334 147.01 89.9021 147.206 89.0197 147.402C88.8236 147.451 88.6766 147.451 88.4805 147.5C88.1864 147.549 87.8432 147.598 87.5491 147.647C87.1079 147.696 86.7158 147.794 86.2746 147.843C86.0785 147.892 85.8825 147.892 85.6864 147.941C85.4413 147.99 85.1472 148.039 84.853 148.039C84.0687 148.137 83.2354 148.235 82.4511 148.333C82.206 148.382 81.9119 148.382 81.6668 148.431H81.6177C81.2746 148.48 80.9315 148.48 80.5883 148.529C80.2452 148.578 79.9021 148.578 79.5589 148.578C79.3628 148.578 79.1177 148.627 78.9217 148.627C78.5295 148.627 78.1864 148.676 77.8432 148.676C77.353 148.676 76.9119 148.726 76.4217 148.726C75.9315 148.726 75.4903 148.726 75.0001 148.726C74.657 148.726 74.3138 148.726 73.9707 148.726C53.2844 148.431 34.706 139.657 21.4217 125.735C21.4217 125.735 21.4217 125.686 21.3726 125.686C19.9021 124.363 21.1766 117.304 27.1079 112.843C34.5589 107.206 52.4021 103.676 52.4021 103.676C52.4021 103.676 59.3138 102.549 84.9511 107.892C99.9511 111.029 111.373 115.588 117.745 127.941C119.069 130.49 120.392 134.412 115.735 136.471Z" fill="white"/>
<path d="M85.0981 107.353C94.5099 109.265 104.559 111.324 112.304 117.549C114.902 119.657 116.618 122.745 118.039 125.735C118.726 127.206 119.412 128.726 119.951 130.343C120.245 131.422 120.686 132.647 120.441 133.922C120.392 134.265 120.098 134.706 119.853 134.951C118.726 136.078 117.5 136.765 116.275 137.647C109.069 142.647 100.784 146.177 92.206 148.039C73.0883 152.206 52.4021 148.971 35.5883 138.922C30.0001 135.539 24.853 131.422 20.4413 126.569C19.9511 125.98 19.9511 125 19.9511 124.363C20.0001 122.892 20.3923 121.471 20.8825 120.147C22.0589 117.108 23.5785 114.069 26.1766 111.961C28.0393 110.686 30.0491 109.608 32.1079 108.726C38.5785 105.98 45.3923 104.069 52.4021 103.284C52.9903 103.235 53.0883 104.069 52.5001 104.167C45.7844 105.539 39.1177 107.598 32.8923 110.392C30.6374 111.52 28.2354 112.5 26.4217 114.265C24.706 116.127 23.4805 118.431 22.5001 120.784C21.8628 122.206 21.4217 124.461 21.6177 125.588C24.706 129.265 28.3334 132.5 32.255 135.294C53.7256 150.294 86.3236 151.275 109.167 138.775C111.226 137.647 113.235 136.373 115.147 135.049C116.079 134.412 117.059 133.873 117.794 133.137C117.843 133.088 117.794 133.137 117.794 133.186C117.794 133.235 117.745 133.284 117.745 133.284C117.794 132.696 117.598 131.912 117.353 131.127C116.471 128.284 115.049 125.294 113.53 122.696C111.128 118.824 107.059 116.373 102.941 114.412C100.098 113.088 97.1079 112.059 94.0687 111.078C91.0295 110.098 87.9413 109.265 84.853 108.529C84.0687 108.333 84.3138 107.206 85.0981 107.353Z" fill="black"/>
<path d="M44.5589 105.196C46.2746 108.235 52.7942 120.441 53.8236 131.225L59.902 133.284C59.902 133.284 55.2942 112.892 47.0589 103.431C47.0589 103.431 46.0785 102.99 44.853 103.823C44.4609 104.167 44.2648 104.706 44.5589 105.196Z" fill="black"/>
<path d="M96.7156 131.372C96.7156 131.372 97.0098 117.794 91.1274 108.872C90.9803 108.627 91.1764 108.284 91.4705 108.333C91.8627 108.431 92.4509 108.578 93.3823 109.02C94.9509 109.755 100.049 117.549 100.49 130.343C100.49 130.294 97.2058 131.372 96.7156 131.372Z" fill="black"/>
<path d="M113.48 118.627C110.931 115.931 103.235 111.912 101.912 112.01C101.961 112.108 101.961 112.255 102.01 112.402C104.069 119.804 102.402 129.853 94.9019 131.52C87.1078 133.235 80.5881 133.48 64.9509 131.912C53.4803 130.784 42.696 120.49 37.2058 110.294C36.6666 109.265 36.0293 108.235 35.343 107.304C34.9509 107.01 34.2156 107.059 33.6764 107.5C32.3038 108.627 30.4901 108.529 30.4901 109.608C30.4901 109.608 20.0979 112.843 16.4705 135.637C14.4117 148.529 11.5195 165.245 11.4215 170.931H123.039C122.255 163.284 123.039 129.216 113.48 118.627Z" fill="black"/>
<path d="M112.549 119.51C111.079 118.039 109.167 116.912 107.353 115.833C105.686 114.853 103.628 113.774 101.912 113.284L103.039 111.716L103.088 112.01C104.461 117.745 104.167 124.559 100.196 129.265C98.8236 130.833 96.8138 131.961 94.755 132.304C90.9315 133.088 86.9609 133.529 83.0393 133.529C76.1766 133.48 69.4119 132.941 62.6472 132.01C57.8432 130.98 53.3825 128.578 49.5099 125.588C44.0687 121.372 39.9021 115.833 36.0295 110.196C35.4903 109.412 34.853 108.676 34.1668 108.039L34.4119 108.333C34.5099 108.431 34.5589 108.382 34.5099 108.382C34.5099 108.382 34.4119 108.382 34.3628 108.431C34.3138 108.431 34.3138 108.431 34.2648 108.529C33.4805 109.216 32.206 109.559 31.4217 110C31.4707 110 31.5687 109.706 31.5687 109.657L30.6864 110.833L30.5393 110.882L30.3432 110.98C23.6275 114.608 20.3923 123.235 18.6275 130.294C16.9119 138.333 15.8824 146.618 14.5099 154.706C13.7256 160.098 12.7452 165.637 12.5001 170.98L11.2256 169.706H123.039L121.814 171.078C120.784 157.5 121.324 129.951 112.549 119.51ZM114.412 117.794C123.873 128.823 123.284 156.519 124.314 170.833C124.363 171.52 123.873 172.157 123.186 172.206C123.137 172.304 11.4707 172.157 11.4217 172.206C10.7354 172.206 10.1472 171.667 10.1472 170.98C10.2452 168.088 10.6374 165.294 10.9805 162.549C12.1079 154.314 13.4805 146.127 14.804 137.941C15.6374 132.451 16.7648 126.814 18.9707 121.618C21.1766 116.47 24.4609 111.078 29.755 108.578C29.853 108.529 29.9511 108.48 30.0981 108.431L29.2158 109.608C29.1668 107.892 31.0295 107.451 32.206 106.961C32.9903 106.519 33.6275 105.882 34.6079 105.882C35.0981 105.833 35.9805 106.029 36.3726 106.618C37.0589 107.99 37.6472 109.363 38.2354 110.735C39.2158 112.941 40.4903 115 41.9609 116.912C47.255 123.627 54.4119 129.51 62.9413 131.225C65.7844 131.716 68.7256 131.814 71.5687 132.059C79.2648 132.598 87.0099 132.696 94.5099 130.833C96.2746 130.441 97.7942 129.51 98.9217 128.137C102.255 123.921 102.255 117.745 100.784 112.745L100.686 112.353C100.441 111.618 101.03 110.784 101.814 110.784C103.235 110.833 104.314 111.52 105.588 112.059C108.726 113.627 111.814 115.294 114.412 117.794Z" fill="black"/>
<path d="M97.8924 136.814C89.8532 140.245 63.4316 141.029 50.0002 133.774C41.5198 129.216 36.0296 119.167 33.3826 115.294C31.4218 112.353 30.4414 109.608 30.4414 109.608C30.4414 108.529 32.3042 108.627 33.6277 107.5C34.1669 107.059 34.9022 107.01 35.2943 107.304C35.9806 108.284 36.6179 109.265 37.1571 110.294C42.6473 120.441 51.3238 130.637 64.9022 131.912C80.5394 133.382 87.0591 133.235 94.8532 131.52C102.353 129.853 104.02 119.804 101.961 112.402C101.912 112.304 101.912 112.157 101.863 112.01C103.187 111.912 105.736 112.157 106.667 114.51C106.716 114.51 110.49 131.471 97.8924 136.814Z" fill="white"/>
<path d="M98.1864 137.5C94.9511 138.823 91.5687 139.314 88.1864 139.706C84.804 140.098 81.4217 140.245 78.0393 140.245C69.5589 140.147 60.9315 139.363 52.9413 136.323C43.8236 133.039 37.9413 124.755 33.0393 116.912C31.5687 114.755 30.1962 112.549 29.3629 110.049C29.1178 109.412 29.5099 108.529 30.0491 108.137C30.7844 107.549 31.6178 107.549 32.353 107.255C32.8432 107.108 33.1374 106.814 33.5785 106.569C34.3629 106.225 35.2452 105.931 36.2256 106.372C41.8629 118.676 51.1276 130.441 65.6374 131.47C75.2452 132.353 85.0491 133.333 94.5589 131.127C98.3825 130.49 100.882 127.059 101.765 123.431C102.745 119.755 102.451 115.784 101.422 112.157C101.324 111.814 101.569 111.47 101.912 111.47C104.02 111.274 106.618 112.206 107.353 114.412C108.186 118.823 108.186 123.333 106.912 127.598C105.637 131.961 102.402 135.784 98.1864 137.5ZM97.5981 136.127C101.52 134.559 104.412 131.225 105.735 127.255C107.059 123.235 107.206 118.774 106.373 114.608C105.784 112.99 103.726 112.304 101.961 112.549L102.451 111.863C104.118 118.137 103.775 127.157 97.5491 130.931C96.6668 131.421 95.6864 131.765 94.706 131.961C92.7942 132.353 90.8334 132.696 88.9217 132.941C81.1276 133.774 73.2844 133.137 65.5393 132.5C52.255 131.814 42.0099 121.372 36.3236 110.098C35.9315 109.216 35.4903 108.382 35.0491 107.5L35.1472 107.598C34.4119 107.157 33.6276 108.186 32.9413 108.431C32.304 108.774 31.6178 108.921 31.0785 109.265C30.9805 109.363 30.9315 109.461 30.9315 109.608V109.461C32.0589 112.549 34.1178 115.343 35.8825 118.088C40.3432 124.951 45.7354 131.863 53.6766 134.706C64.755 139.118 86.2256 140.196 97.5981 136.127Z" fill="black"/>
<path d="M89.7055 120.392C88.6761 125.441 82.0094 128.48 70.7839 123.922C59.1173 119.216 54.0682 107.99 52.7937 104.657C59.7055 91.7157 54.9016 82.7451 54.9016 82.7451C70.8329 81.3725 84.7545 100 84.7545 100L86.9114 109.216C87.1075 110 87.4996 110.686 88.0879 111.176C89.1173 112.99 90.3428 117.157 89.7055 120.392Z" fill="white"/>
<path d="M52.5488 104.804C53.4802 103.382 54.0685 101.716 54.4606 100.098C55.1959 96.7156 55.441 93.2843 55.49 89.8529V88.5784C55.343 87.3039 54.9018 85.9804 54.4116 84.8039C53.7743 83.2353 56.0783 82.2549 56.8136 83.8235C56.9116 84.0196 56.9116 84.3627 56.9116 84.5588C57.0587 91.2255 57.3528 99.8039 53.1371 105.343C52.843 105.637 52.2547 105.196 52.5488 104.804Z" fill="black"/>
<path d="M85.2938 99.902C86.0291 100.343 86.2742 100.931 86.3722 101.52C86.6663 102.696 86.5683 103.971 86.8624 105.196C87.1075 106.373 87.8428 107.5 88.0389 108.725C88.284 110 89.0193 112.696 89.3134 114.02C89.4114 114.314 89.2154 114.657 88.8722 114.706C88.6762 114.755 88.5291 114.706 88.382 114.608C87.7448 114.069 87.4507 113.529 87.0585 112.843C86.4213 111.667 85.9801 110.588 85.5879 109.265C85.2448 108.088 85.3918 106.814 85.0977 105.588C84.8526 104.412 84.1663 103.284 83.9212 102.059C83.7742 101.471 83.7252 100.833 84.1663 100.098C84.4605 99.8039 84.9507 99.7059 85.2938 99.902Z" fill="black"/>
<path d="M88.8234 112.843C79.4606 112.353 71.8136 109.412 64.3626 96.1274C70.6371 101.667 78.0391 103.774 85.8332 104.755L86.8626 109.265C87.0587 110.049 88.2351 112.353 88.8234 112.843Z" fill="black"/>
<path d="M88.4314 111.029C90.0981 114.167 91.0785 118.088 90.049 121.569C89.2647 124.02 87.0098 125.833 84.5589 126.52C78.8726 128.039 72.3039 125.637 67.2549 122.941C61.0294 119.461 56.4216 113.627 53.4804 107.255C53.2843 106.765 53.9706 106.373 54.2647 106.863C55.2941 108.922 56.4706 110.931 57.7941 112.745C59.1177 114.608 60.6373 116.324 62.353 117.843C67.353 122.353 74.1177 125.147 80.8824 125.147C87.8432 124.951 90.4902 121.274 88.8726 114.51C88.6275 113.431 88.2353 112.304 87.6961 111.373C87.402 110.98 88.1373 110.539 88.4314 111.029Z" fill="black"/>
<path d="M107.402 52.1568C108.284 56.2745 105.343 60.6862 105.343 71.6666C105.343 82.8921 103.284 95.098 94.8037 103.578C87.4998 110.882 79.1175 110.588 69.2645 102.892C67.892 101.814 63.0881 98.1862 61.8626 96.9607C60.441 95.5392 59.6567 94.5098 58.9704 93.4313C58.3822 92.4509 58.5292 86.7647 57.6959 85.4411C55.539 81.8627 55.0979 85.7353 52.3038 82.598C48.4312 78.3823 43.7743 69.9019 46.0783 54.9019C49.8038 30.5882 69.0685 27.7451 83.3332 30.4411C97.6959 33.1862 105.049 41.3235 107.402 52.1568Z" fill="white"/>
<path d="M54.7547 86.9607C53.6273 85.098 52.2057 83.4313 50.8822 81.7156C49.5587 79.9019 48.4802 77.9902 47.5979 75.9313C42.5979 63.8235 43.3332 47.9902 52.2057 37.7941C58.2841 30.8333 67.892 28.5294 76.7155 29.0196C85.539 29.5588 94.7057 31.8137 101.225 38.1862C105 41.8627 107.402 46.7647 108.48 51.8627C108.823 53.4804 108.578 55.2451 108.186 56.7647C107.059 61.0294 105.98 65.098 105.882 69.5098C105.931 76.0784 105.735 82.7941 103.823 89.1176C102.451 93.3333 100.833 97.549 98.2841 101.225C95.6371 104.951 91.6665 107.941 87.1077 108.823C77.941 110.686 69.3626 104.902 63.2841 98.6274C63.0391 98.3333 63.3822 97.9902 63.6763 98.1862C67.1567 100.833 70.7351 103.284 74.6077 104.951C85.7841 110.098 95.0488 105.343 99.9508 94.5588C104.068 86.7156 105.245 78.2353 104.902 69.4607C104.902 67.2549 105 65.049 105.294 62.8431C105.588 59.6568 106.666 56.4705 106.617 53.3333C105.784 48.2353 103.431 43.3333 99.9018 39.5588C91.5194 30.6862 75.441 28.0882 64.1665 32.1078C50.8822 36.8137 47.3038 50.196 46.5685 62.9902C46.0783 70.6372 48.3332 78.1372 54.1175 83.3823L56.4214 85.7843C57.2057 86.8627 55.539 88.1372 54.7547 86.9607Z" fill="black"/>
<path d="M60.539 71.3725C60.539 71.3725 59.0194 64.0196 51.8626 64.9019C45.6861 65.6862 43.5292 80.4902 57.5489 84.6078" fill="white"/>
<path d="M56.9116 78.1862C55.7842 77.549 54.9998 76.4705 54.9508 75.147C54.9998 74.1666 55.1469 73.0392 54.9018 72.0588C54.7547 71.1274 53.7744 70.8823 53.0391 70.9313C52.2547 71.0784 51.7646 72.0588 51.6175 72.8431C51.6175 72.8921 51.5685 73.0392 51.5685 73.0882C51.5195 73.3333 51.1273 73.3333 51.0293 73.0882C50.392 71.1764 51.8136 69.0686 53.8724 69.3137C56.7646 69.5098 57.1567 72.549 56.6175 74.8529C56.3234 75.8333 56.7155 76.7156 57.2547 77.549L57.3528 77.696C57.5979 77.9901 57.2057 78.3823 56.9116 78.1862Z" fill="black"/>
<path d="M96.1273 66.1764C96.8626 69.6568 98.2351 72.8921 99.9508 75.9313C101.47 79.6568 97.5489 83.1862 94.0685 83.0392C93.6763 83.0392 93.6273 82.5 93.9704 82.4019C96.1763 81.7157 98.1861 80.2451 98.5293 77.9902C98.6763 77.3039 98.4802 76.7157 98.1371 76.1274C96.5195 73.0882 95.5391 69.6078 95.7842 66.1764C95.7842 65.9313 96.1273 65.9313 96.1273 66.1764Z" fill="black"/>
<path d="M60.2942 71.4215C59.1667 68.5293 56.7157 65.7842 53.4314 65.8332C53.1373 65.7842 52.6471 65.8823 52.353 65.8823C51.5196 65.9313 50.8334 66.2254 50.1961 66.8136C47.0589 69.9509 47.5981 75.4901 50.1471 78.9705C51.0294 80.196 52.1569 81.2744 53.4314 82.1568C54.7059 83.0391 56.1275 83.7254 57.6471 84.3136C57.9902 84.4117 57.8432 84.9509 57.5 84.9019C54.2157 84.2156 51.0785 82.5979 48.9216 79.9019C45.5883 75.8823 44.902 69.1666 48.8726 65.245C49.7549 64.4607 50.9804 63.8725 52.2059 63.8725C52.5981 63.8725 53.1863 63.7744 53.5785 63.8725C55.6373 63.9705 57.5981 64.9999 58.8726 66.6176C60 67.9901 60.6373 69.6568 60.8334 71.3234C60.8334 71.6176 60.3922 71.7156 60.2942 71.4215Z" fill="black"/>
<path d="M91.2743 87.7451C91.3233 88.5294 90.7351 89.9019 89.6566 90.8823C84.1174 87.5 81.6174 89.2647 81.6174 89.2647C79.6566 86.2745 80.0978 82.2058 84.8527 85.2941C88.137 87.4509 90.1959 87.7941 91.2743 87.7451Z" fill="black"/>
<path d="M89.6076 90.9313C88.4311 91.9608 86.6664 92.598 84.2645 91.6176C83.137 91.1764 82.2547 90.2941 81.5684 89.3137C81.6174 89.3137 84.0684 87.549 89.6076 90.9313Z" fill="white"/>
<path d="M92.2057 87.598C92.2057 87.598 90.1468 88.7255 84.8527 85.3431C78.5292 81.2745 79.8037 89.8039 84.2645 91.6176C88.9213 93.5294 91.3233 89.3627 91.2743 87.7941" stroke="black" stroke-width="3" stroke-miterlimit="10" stroke-linecap="round" stroke-linejoin="round"/>
<path d="M81.6176 89.3137C81.6176 89.3137 84.1176 87.549 89.6569 90.9313" stroke="black" stroke-width="3" stroke-miterlimit="10" stroke-linecap="round" stroke-linejoin="round"/>
<path d="M85.3921 59.8039C86.4705 59.7058 87.0098 58.4313 86.4215 57.4509C86.0784 56.9607 85.6372 56.5196 84.9999 56.2745C83.1372 55.6862 77.0588 57.0097 74.4117 60.049C72.0588 62.8431 80.4901 60.245 85.3921 59.8039Z" fill="black"/>
<path d="M98.3334 60.5881C97.5001 60.343 97.255 59.1175 97.9413 58.3332C98.2844 57.9411 98.7746 57.5979 99.3138 57.4999C100.98 57.2058 104.804 58.7254 105.882 61.6175C106.863 64.1175 102.304 61.5685 98.3334 60.5881Z" fill="black"/>
<path d="M77.8433 71.1765C76.6668 71.1274 75.7845 70.147 75.8825 68.9706L75.9315 67.598C75.9806 66.4215 76.961 65.5392 78.1374 65.6372C79.3139 65.6863 80.1962 66.6666 80.0982 67.8431L80.0492 69.2157C80.0002 70.3431 79.0198 71.2255 77.8433 71.1765Z" fill="black"/>
<path d="M98.4803 71.9117C97.4019 71.8627 96.5686 70.9313 96.6176 69.8529L96.6666 68.5784C96.7156 67.4999 97.647 66.6666 98.7254 66.7156C99.8039 66.7647 100.637 67.696 100.588 68.7745L100.539 70.049C100.49 71.1274 99.5588 71.9607 98.4803 71.9117Z" fill="black"/>
<path d="M82.2549 68.5294C80.6372 67.4509 78.8725 66.7156 76.9117 67.1078C76.2745 67.2058 75.6372 67.4019 75.245 67.8431C75.098 68.0392 74.7549 67.9902 74.7549 67.696C74.8039 66.7156 75.6372 66.0784 76.4215 65.6862C77.9411 64.9019 80.049 65.049 81.4215 66.0784C81.9117 66.3725 83.5784 68.1862 82.696 68.5784C82.4999 68.6764 82.4019 68.6274 82.2549 68.5294Z" fill="black"/>
<path d="M96.2742 68.7745C96.2742 66.7157 98.8233 65.9804 100.392 66.7157C101.274 67.1078 101.911 67.8921 102.157 68.8235C102.255 69.1176 101.813 69.3627 101.617 69.1176C100.784 68.1372 99.3625 67.6471 98.235 68.2353C97.8919 68.4314 97.8429 68.5784 97.7448 68.7745C97.7448 69.7549 96.3233 69.7059 96.2742 68.7745Z" fill="black"/>
<path d="M107.539 66.2253C107.588 65.9802 107.637 65.7351 107.637 65.49C108.127 62.4018 108.47 59.5586 108.666 56.8625C109.058 51.3723 108.029 41.4704 100.137 35.539C99.4503 34.9998 98.715 34.5096 97.8816 34.0684C97.1954 33.6763 96.4601 33.3331 95.7248 32.99C89.3032 30.2449 78.9601 26.9606 68.715 28.7253C64.7934 29.3625 60.8718 30.7841 57.1954 33.1861C57.1463 33.1861 57.1463 33.2351 57.1463 33.2351C48.2248 39.1174 45.0875 48.4312 43.4209 57.2057C42.8816 59.9998 42.4895 62.7939 42.1463 65.3429C41.9503 66.6665 41.7542 67.941 41.5581 69.1174C40.8228 73.5782 38.3718 77.5488 35.7738 80.6861C35.6267 80.8331 35.4797 81.0292 35.3326 81.1763C33.2248 83.5782 31.1169 85.49 29.6463 86.6174C29.5483 86.6665 29.4503 86.7645 29.4012 86.8135C32.6365 97.0096 44.9895 104.657 56.411 106.961C58.0777 99.6567 59.2052 92.2547 57.7836 84.6567C57.3914 84.5096 57.1954 84.3625 57.1954 84.2645C43.666 79.9998 45.8228 65.49 51.9503 64.7057C54.1561 64.4116 55.7738 64.9508 57.0483 65.7351C58.764 67.0096 60.6267 70.1959 60.6267 71.1272C60.7248 68.9704 61.6561 65.9802 62.7836 65.8821C63.9601 65.7841 65.1365 65.539 66.264 65.0978C71.9012 63.137 77.0483 57.8429 81.6071 53.137C87.8816 46.6665 92.9797 41.1763 96.6071 46.6174C96.8032 46.9116 96.9993 47.2057 97.1464 47.4998C101.46 47.4018 103.47 49.9018 104.499 52.4998C104.499 52.4998 104.499 52.4998 104.499 52.5488C105.333 54.7547 105.431 57.0096 105.529 57.5978C105.529 57.6959 105.529 57.7449 105.578 57.7449C105.48 59.7057 105.235 63.039 105.186 67.3527C105.186 69.3135 105.382 73.2351 105.235 75.49C105.186 76.1763 105.137 76.8625 105.088 77.4998C105.039 77.8429 105.039 78.1861 104.989 78.4802C104.94 78.7743 104.94 79.1174 104.891 79.4606C104.842 79.9508 104.793 80.441 104.744 80.9802C104.695 81.4214 104.646 81.8625 104.597 82.3037V82.3527C104.548 82.6959 104.499 82.99 104.45 83.2841C103.715 87.2057 102.588 91.3723 100.97 93.8723C97.7346 98.9214 95.1856 103.186 90.5287 105.343C85.9209 107.451 80.6758 107.892 80.6758 107.892C80.6758 107.892 82.1463 108.823 85.6267 109.019C89.0581 109.215 91.6071 108.186 94.1562 108.627C99.5973 109.559 109.156 109.559 109.156 109.559C116.313 90.7351 104.205 89.8527 107.539 66.2253Z" fill="black"/>
<path d="M69.3627 80.8823C70.7353 80.147 72.0588 79.3627 73.5784 78.9706C73.7255 78.9706 73.8235 78.9215 74.1176 79.0196C75.147 79.8039 72.1568 81.7647 71.6176 82.2549C71.7647 82.0588 71.7157 81.7157 71.4706 81.6176C71.4215 81.6176 71.4215 81.5686 71.3725 81.5686C71.2745 81.5686 71.2745 81.5686 71.2745 81.5686C72.5 81.1274 73.7255 80.6372 74.9019 80.049C75.5882 79.7549 76.5196 79.1176 77.2549 79.0686C77.549 79.0686 77.8921 79.3627 77.8431 79.6568C77.7941 80.049 77.6961 80.1961 77.598 80.4412C77.5 80.6372 77.3039 80.9314 77.2549 81.1274C77.2549 81.1764 77.2059 81.0784 77.2059 81.0784C77.2059 81.1274 77.5 81.1274 77.549 81.0784C78.3333 80.9804 79.1666 80.6863 79.951 80.3921C80.098 80.3431 80.1961 80.5392 80.049 80.6372C79.2157 81.1764 78.3333 81.7647 77.2549 81.8627C76.5686 81.9117 76.2255 81.2745 76.4706 80.6863C76.5686 80.3431 76.8137 79.951 76.9117 79.6568C76.9117 79.7549 77.0098 79.9019 77.1078 79.951C77.2059 80 77.2549 79.951 77.2059 80C76.7157 80.147 75.7353 80.6863 75.2941 80.8823C74.0196 81.4706 72.7941 82.0098 71.4215 82.4019C71.3235 82.4019 71.3235 82.451 71.1764 82.4019C70.7843 82.3529 70.6863 81.8627 70.9804 81.6176C71.5686 81.1274 72.2549 80.7353 72.7941 80.2451C73.0882 80 73.4313 79.6568 73.6274 79.3627C73.6274 79.4117 73.6764 79.5098 73.7255 79.5588C73.2843 79.6078 72.4019 79.8529 71.8627 80.098C71.0784 80.3921 70.2451 80.7353 69.4608 81.0784C69.3627 81.1764 69.2157 80.9314 69.3627 80.8823Z" fill="black"/>
<path d="M101.127 80.8823C101.569 80.3921 103.431 78.0392 103.922 79.2647C103.922 79.3627 103.922 79.4608 103.922 79.5098C103.725 80.4902 103.088 81.3235 102.598 82.1568C102.696 81.9117 102.5 81.5686 102.255 81.5196C102.157 81.5196 102.108 81.5196 102.059 81.5196C102.01 81.5196 102.059 81.5196 102.108 81.4706C103.088 80.8333 103.824 80.049 104.804 79.3627C105 79.2647 105.245 79.1176 105.49 79.2647C105.735 79.4608 105.686 79.7549 105.588 79.951C105.49 80.1961 105.392 80.3921 105.294 80.6372C105.245 80.6862 105.196 80.7353 105.098 80.6863C105.049 80.6863 105.049 80.6372 105.049 80.5882C105.049 80.4902 105.049 79.8529 105.049 79.7549C105.049 79.7059 105 79.6568 105.049 79.7549C105.049 79.8039 105.147 79.9019 105.245 79.9019C105.294 79.9019 105.392 79.9019 105.392 79.9019C104.559 80.8823 103.578 81.8137 102.451 82.451C102.108 82.598 101.716 82.3039 101.765 81.9117C101.765 81.8627 101.814 81.7647 101.863 81.7157C102.206 81.2255 102.598 80.7353 102.892 80.2451C103.039 80 103.235 79.6568 103.284 79.4117C103.284 79.5098 103.48 79.6568 103.529 79.6078C102.745 79.9019 102.059 80.5392 101.373 81.0294C101.176 81.1764 101.029 80.9804 101.127 80.8823Z" fill="black"/>
<path d="M141.275 41.3235C171.029 98.6275 118.726 163.284 56.3726 147.5C28.3824 140.539 5.88237 116.275 1.2255 87.7941C-4.06861 59.4608 8.7255 29.0196 32.6471 12.9902C65.4412 -9.55882 110.882 -2.05882 134.363 30.1961C134.51 30.3431 134.461 30.5882 134.265 30.7353C134.118 30.8824 133.873 30.8333 133.726 30.6373C130.49 26.4706 126.814 22.6961 122.794 19.3137C116.176 13.6765 108.431 9.26471 100.245 6.27451C58.5784 -8.82353 12.8432 16.2745 3.7255 59.8529C-6.56861 108.676 34.951 153.627 84.4608 146.912C122.647 142.108 151.029 106.863 147.892 68.5294C147.206 59.2647 144.755 50.098 140.686 41.6667C140.588 41.5196 140.686 41.3235 140.833 41.2255C140.98 41.1275 141.176 41.1765 141.275 41.3235Z" fill="black"/>
</g>
</svg>
