<svg width="150" height="150" viewBox="0 0 150 150" fill="none" xmlns="http://www.w3.org/2000/svg">
<mask id="mask0_73_1409" style="mask-type:alpha" maskUnits="userSpaceOnUse" x="0" y="0" width="150" height="150">
<circle cx="74.7541" cy="74.7541" r="74.7541" fill="#D9D9D9"/>
</mask>
<g mask="url(#mask0_73_1409)">
<path d="M115.735 136.471C115.392 136.716 115 136.961 114.657 137.206C114.265 137.451 113.922 137.696 113.53 137.892C113.186 138.088 112.892 138.284 112.549 138.48C112.5 138.529 112.451 138.529 112.402 138.578C111.275 139.265 110.098 139.902 108.922 140.49C108.579 140.686 108.186 140.882 107.843 141.029C107.843 141.029 107.794 141.078 107.745 141.078C107.353 141.275 106.961 141.471 106.569 141.667C105.784 142.059 104.951 142.402 104.167 142.745C103.775 142.941 103.333 143.088 102.941 143.235C102.549 143.382 102.108 143.578 101.716 143.726C101.324 143.873 100.882 144.069 100.49 144.216C100.49 144.216 100.49 144.216 100.441 144.216C100.049 144.363 99.6079 144.51 99.2158 144.657C98.3334 144.951 97.4021 145.245 96.5197 145.539C96.2256 145.637 95.8825 145.735 95.5883 145.833C94.657 146.127 93.7256 146.373 92.7942 146.569C92.4511 146.667 92.1079 146.716 91.7158 146.814C90.8334 147.01 89.9021 147.206 89.0197 147.402C88.8236 147.451 88.6766 147.451 88.4805 147.5C88.1864 147.549 87.8432 147.598 87.5491 147.647C87.1079 147.696 86.7158 147.794 86.2746 147.843C86.0785 147.892 85.8825 147.892 85.6864 147.941C85.4413 147.99 85.1472 148.039 84.853 148.039C84.0687 148.137 83.2354 148.235 82.4511 148.333C82.206 148.382 81.9119 148.382 81.6668 148.431H81.6177C81.2746 148.48 80.9315 148.48 80.5883 148.529C80.2452 148.578 79.9021 148.578 79.5589 148.578C79.3628 148.578 79.1177 148.627 78.9217 148.627C78.5295 148.627 78.1864 148.676 77.8432 148.676C77.353 148.676 76.9119 148.726 76.4217 148.726C75.9315 148.726 75.4903 148.726 75.0001 148.726C74.657 148.726 74.3138 148.726 73.9707 148.726C53.2844 148.431 34.706 139.657 21.4217 125.735C21.4217 125.735 21.4217 125.686 21.3726 125.686C19.9021 124.363 21.1766 117.304 27.1079 112.843C34.5589 107.206 52.4021 103.676 52.4021 103.676C52.4021 103.676 59.3138 102.549 84.9511 107.892C99.9511 111.029 111.373 115.588 117.745 127.941C119.069 130.49 120.392 134.412 115.735 136.471Z" fill="white"/>
<path d="M85.0981 107.353C94.5099 109.265 104.559 111.324 112.304 117.549C114.902 119.657 116.618 122.745 118.039 125.735C118.726 127.206 119.412 128.726 119.951 130.343C120.245 131.422 120.686 132.647 120.441 133.922C120.392 134.265 120.098 134.706 119.853 134.951C118.726 136.078 117.5 136.765 116.275 137.647C109.069 142.647 100.784 146.177 92.206 148.039C73.0883 152.206 52.4021 148.971 35.5883 138.922C30.0001 135.539 24.853 131.422 20.4413 126.569C19.9511 125.98 19.9511 125 19.9511 124.363C20.0001 122.892 20.3923 121.471 20.8825 120.147C22.0589 117.108 23.5785 114.069 26.1766 111.961C28.0393 110.686 30.0491 109.608 32.1079 108.726C38.5785 105.98 45.3923 104.069 52.4021 103.284C52.9903 103.235 53.0883 104.069 52.5001 104.167C45.7844 105.539 39.1177 107.598 32.8923 110.392C30.6374 111.52 28.2354 112.5 26.4217 114.265C24.706 116.127 23.4805 118.431 22.5001 120.784C21.8628 122.206 21.4217 124.461 21.6177 125.588C24.706 129.265 28.3334 132.5 32.255 135.294C53.7256 150.294 86.3236 151.275 109.167 138.775C111.226 137.647 113.235 136.373 115.147 135.049C116.079 134.412 117.059 133.873 117.794 133.137C117.843 133.088 117.794 133.137 117.794 133.186C117.794 133.235 117.745 133.284 117.745 133.284C117.794 132.696 117.598 131.912 117.353 131.127C116.471 128.284 115.049 125.294 113.53 122.696C111.128 118.824 107.059 116.373 102.941 114.412C100.098 113.088 97.1079 112.059 94.0687 111.078C91.0295 110.098 87.9413 109.265 84.853 108.529C84.0687 108.333 84.3138 107.206 85.0981 107.353Z" fill="black"/>
<path d="M132.01 166.863H8.03935C8.03935 166.863 9.50994 145.49 16.9609 129.265C19.608 123.529 21.6668 115.196 26.5197 111.422C32.108 107.108 43.1374 104.412 47.059 103.627C49.9511 103.039 50.3433 103.578 52.3531 103.039C52.3531 103.284 52.4021 103.48 52.4021 103.725C52.4021 103.725 57.6962 119.461 71.4707 125.049C82.6962 129.608 89.3629 126.569 90.3923 121.52C91.0295 118.284 89.0197 112.99 87.9903 111.275C87.4021 110.784 87.0099 110.049 86.8139 109.314L86.4217 107.696C87.3531 107.5 88.2354 107.255 89.1178 106.961C89.4119 106.863 89.657 106.765 89.9511 106.667C97.059 108.676 105.686 112.304 113.235 118.039C117.353 121.176 120.784 129.265 125 142.941C129.951 158.676 132.01 166.863 132.01 166.863Z" fill="black"/>
<path d="M94.4121 118.971C94.265 117.598 94.0199 116.373 93.7748 115.294C92.7454 110.49 89.6572 106.275 89.6572 106.275C89.6572 106.275 81.9121 100.931 69.9513 99.5098C57.9905 98.0882 52.1572 99.5098 52.1572 99.5098C51.2748 99.8039 50.1964 100.392 49.216 100.931C47.4513 101.961 46.0297 103.431 45.1474 105.245C45.1474 105.294 45.0983 105.294 45.0983 105.343C43.8238 109.02 50.3925 122.598 67.3042 130.196C84.7552 138.039 95.5885 128.873 94.4121 118.971Z" fill="black"/>
<path d="M32.3533 195.441C31.716 181.079 31.4219 165.932 31.2258 151.52C31.1278 145.932 30.8827 140.294 32.2553 134.804C34.3631 125.637 40.7357 117.059 49.8533 114.069L49.5102 114.412C50.5396 111.814 51.667 108.922 54.167 107.402C54.2651 107.353 54.3141 107.5 54.2651 107.549C52.5494 108.726 51.618 110.735 50.8337 112.647C50.5396 113.284 50.3925 114.069 50.0984 114.657C46.667 115.932 43.6278 118.137 41.1278 120.735C38.6278 123.383 36.618 126.52 35.2945 129.902C33.5788 134.167 32.8435 138.726 32.6964 143.284C32.5984 160.49 33.0886 178.677 32.3533 195.441Z" fill="white"/>
<path d="M54.1668 195.441C53.1864 186.471 52.5982 177.255 52.5001 168.235C52.4021 159.951 52.6472 151.422 53.6276 143.186C54.1668 138.382 55.8825 127.402 59.4609 124.216L59.8531 123.922C60.0982 123.824 60.1472 123.725 60.4903 123.676L60.0001 124.167C60.2452 122.304 60.9315 120.539 61.9119 118.971C62.255 118.48 62.5982 117.99 62.9903 117.5C63.0394 117.451 63.1864 117.5 63.0884 117.598C62.7452 118.088 62.4021 118.578 62.157 119.118C61.3237 120.686 60.7354 122.402 60.5884 124.167C60.5884 124.216 60.5394 124.216 60.5394 124.265C60.2452 124.363 59.9021 124.608 59.657 124.902C58.9217 125.686 58.4315 126.814 57.9903 127.794C57.3041 129.51 56.8139 131.373 56.4217 133.235C55.4413 137.99 54.9021 142.99 54.5099 147.843C53.9707 155.98 53.7746 164.608 53.7746 172.745L53.8237 177.304C53.8237 183.333 54.1178 189.412 54.2648 195.441C54.3139 195.49 54.1668 195.539 54.1668 195.441Z" fill="white"/>
<path d="M74.3137 195.441C74.3627 180.49 73.7255 165.49 73.6764 150.539C73.6274 143.775 73.6274 136.814 73.7745 130.049C74.2157 128.284 74.5588 126.422 74.7058 124.559C74.7549 123.971 74.7549 123.333 74.7058 122.696C74.7058 122.598 74.8529 122.598 74.8529 122.696C75.2451 125.147 74.9509 127.647 74.4607 130.098C74.6568 135.441 74.8529 140.98 74.9509 146.422C75.2941 158.677 75.3921 170.931 75.098 183.186C75.049 185.539 74.9019 189.02 74.7549 191.373C74.6568 192.745 74.5098 194.069 74.4117 195.441C74.4117 195.49 74.3627 195.49 74.3137 195.49C74.3137 195.49 74.3137 195.441 74.3137 195.441Z" fill="white"/>
<path d="M97.255 195.441C96.8139 184.118 96.5197 172.255 95.5394 160.98C94.9511 153.824 94.0197 146.765 92.6472 139.755C91.8139 135.539 90.7354 131.275 89.0198 127.304C88.7256 125.049 87.9903 122.598 86.2256 121.029C86.1766 120.98 86.1766 120.931 86.2256 120.931C86.2746 120.882 86.2747 120.882 86.3237 120.931C86.8139 121.275 87.255 121.716 87.6472 122.206C88.7256 123.627 89.4119 125.588 89.657 127.206C91.6668 131.078 92.7943 135.294 93.8237 139.51C94.4609 142.255 95.0492 145.245 95.4903 147.99C96.1276 151.912 96.7158 156.912 97.0099 160.882C97.255 163.284 97.4021 167.059 97.5492 169.51C97.7452 175.294 97.7943 181.029 97.6962 186.814L97.4511 195.441C97.4511 195.49 97.4021 195.49 97.3531 195.49C97.3041 195.49 97.255 195.441 97.255 195.441Z" fill="white"/>
<path d="M115.686 195.392C116.912 181.961 116.422 168.333 114.51 155C114.02 151.52 113.284 147.892 112.5 144.461C111.569 141.078 110.441 137.647 108.922 134.51C107.843 132.108 106.422 129.804 105 127.598C103.039 124.804 100.539 121.912 97.8431 119.804C96.4705 118.677 94.9999 117.598 93.4313 116.814C92.647 115.784 92.1568 114.755 91.0294 113.775C90.147 112.941 89.0686 112.255 87.8431 112.206C87.7941 112.206 87.745 112.157 87.745 112.108C87.745 112.059 87.7941 112.059 87.7941 112.059C88.4313 112.01 89.0686 112.206 89.6568 112.451C91.3725 113.284 92.647 114.804 93.6764 116.373C100.49 119.559 105.882 126.029 109.461 132.696C110.882 135.539 112.157 138.48 113.039 141.52L113.823 144.118C116.176 153.824 117.108 163.824 117.255 173.775C117.304 181.029 116.912 188.284 115.784 195.441C115.784 195.49 115.735 195.49 115.686 195.49C115.686 195.49 115.686 195.441 115.686 195.392Z" fill="white"/>
<path d="M93.6278 139.02C100.491 139.265 105.589 137.059 106.373 129.657C106.422 129.069 106.863 128.627 107.402 128.529C110.392 127.794 112.402 125.147 112.991 122.157C113.138 121.667 113.187 121.029 113.285 120.539C113.334 120 113.383 119.412 113.432 118.824C113.432 118.775 113.481 118.775 113.53 118.775C113.579 118.775 113.579 118.824 113.579 118.824C113.677 119.853 113.775 121.225 113.677 122.255C113.481 125.735 111.177 129.02 107.696 129.951L107.794 129.853C107.402 135.294 104.069 139.265 98.4807 139.608C96.8631 139.755 95.1964 139.608 93.5788 139.216C93.5297 139.216 93.5297 139.167 93.5297 139.118C93.5297 139.02 93.5788 139.02 93.6278 139.02Z" fill="white"/>
<path d="M25.1472 116.422C25.6864 119.216 27.3041 121.961 29.755 123.431C29.9511 123.578 30.3923 123.775 30.5884 123.922C31.0295 124.118 31.5197 124.314 31.9609 124.461L32.8923 124.706C33.1374 124.804 33.5786 124.853 33.8727 124.902L34.8531 125.049C35.8335 125.196 37.3531 124.657 37.8433 125.784C41.0786 132.647 47.4021 137.843 55.3433 136.324C55.8335 136.275 56.3237 136.471 56.5197 136.912C56.9609 137.598 57.5491 138.333 58.0884 138.971C60.8825 142.304 65.0982 144.755 69.559 143.824C71.3237 143.48 73.0393 142.745 74.608 141.765C74.657 141.716 74.706 141.765 74.706 141.765C67.7942 147.5 60.0492 144.461 55.3433 137.598L55.4903 137.647C53.5295 137.99 51.5197 138.088 49.5099 137.696C43.6276 136.618 39.1178 131.618 36.7648 126.176L36.8629 126.225C35.8335 126.176 34.706 126.127 33.6766 125.882C33.3825 125.833 32.8923 125.735 32.6472 125.637C32.059 125.49 31.1766 125.147 30.6374 124.853L30.1472 124.608L29.706 124.314C29.5099 124.167 29.0197 123.922 28.8237 123.725C26.5688 121.961 25.2452 119.167 24.9511 116.373C24.9511 116.324 25.0001 116.275 25.0001 116.275C25.1472 116.373 25.1472 116.373 25.1472 116.422Z" fill="white"/>
<path d="M91.9609 133.088C97.8433 131.52 100.735 128.088 99.8531 121.912C99.8041 121.52 99.9021 121.127 100.147 120.882C101.765 118.971 102.206 116.373 101.961 113.922C101.912 113.137 101.618 112.01 101.471 111.225C101.471 111.176 101.471 111.127 101.52 111.127C101.569 111.127 101.569 111.127 101.618 111.176C102.01 112.01 102.402 112.892 102.647 113.775C103.137 115.588 103.137 117.549 102.549 119.314C102.255 120.196 101.814 121.078 101.226 121.814L101.275 121.716C102.108 126.127 100.637 130.686 96.1766 132.402C94.8531 132.941 93.4315 133.235 92.0099 133.284C91.8629 133.235 91.8629 133.088 91.9609 133.088Z" fill="white"/>
<path d="M36.5688 108.971C35.7844 111.52 36.6668 114.363 38.5786 116.176L38.8237 116.471L39.1178 116.716C39.706 117.206 40.3923 117.647 41.0295 118.088L42.4021 118.824C42.6962 118.971 42.8923 119.265 42.9413 119.608C43.9217 123.284 46.9119 126.176 50.2942 127.745C52.4511 128.873 54.8041 129.412 57.157 129.853C57.8433 130 58.0393 130.637 58.5295 131.078C59.0688 131.618 59.657 132.157 60.2452 132.647C63.8237 135.686 68.6276 137.304 73.3335 136.667L74.559 136.52C74.608 136.52 74.657 136.52 74.657 136.569C74.657 136.618 74.657 136.618 74.608 136.667C69.8531 138.137 64.608 137.206 60.4903 134.363C59.2648 133.529 57.5491 132.108 56.8629 131.176C53.5786 130.637 50.2452 129.657 47.5001 127.745C44.8531 125.98 42.255 122.647 41.9119 119.755C41.0786 119.265 39.8531 118.48 39.1178 117.892C38.9707 117.794 38.3335 117.157 38.1864 117.01C37.9413 116.716 37.5982 116.373 37.4021 116.029C35.9315 113.971 35.4413 111.176 36.4707 108.824C36.4707 108.775 36.5197 108.775 36.5688 108.775C36.6178 108.873 36.6178 108.922 36.5688 108.971Z" fill="white"/>
<path d="M45.1472 105.294C45.0491 107.549 45.8825 109.804 47.3531 111.471C47.6472 111.863 48.1374 112.304 48.5295 112.647C48.6766 112.745 49.1668 113.137 49.3139 113.235C49.8041 113.627 50.6864 113.824 50.7354 114.51C50.8825 115.588 51.4217 116.716 52.059 117.598C54.0688 120.539 57.5492 122.108 60.9315 123.088C61.2256 123.186 61.4217 123.333 61.5688 123.578C64.559 127.353 69.5099 129.314 74.2648 128.824C75.0982 128.873 75.8335 129.314 76.7158 129.461C78.5786 129.951 80.6374 130.196 82.5492 130.049C85.0982 129.951 87.4511 128.873 88.7256 126.667C88.9707 126.324 89.3139 126.275 89.608 126.029C90.9805 125.098 92.108 123.824 92.7943 122.304C93.6766 120.49 93.4805 118.431 92.9903 116.569C93.0884 115.784 93.2354 114.902 93.1864 114.02C93.1374 111.569 92.157 109.167 90.5884 107.255C90.4903 107.206 90.6374 107.059 90.6864 107.157C93.1374 109.559 94.2648 113.137 93.7746 116.52C95.3433 120.588 93.5295 125.049 89.706 127.402C88.5295 129.706 85.4413 131.324 82.6962 131.422C80.0001 131.667 76.7648 131.078 74.4609 130.294C69.2158 130.833 63.7256 128.578 60.5393 124.314L60.5884 124.363C59.5099 124.02 58.0393 123.48 57.059 122.99C56.8139 122.843 56.0295 122.451 55.7844 122.304C55.4903 122.108 54.8531 121.716 54.608 121.52L53.8727 120.931C51.9119 119.314 50.3433 117.108 50.0001 114.559L50.0492 114.657C49.657 114.363 49.2648 114.118 48.9217 113.824L48.3825 113.382L48.1374 113.137C47.8923 112.892 47.6472 112.598 47.4021 112.402C46.9609 111.863 46.5197 111.275 46.1766 110.686C45.2942 109.069 44.8531 107.157 45.0982 105.294C45.0982 105.245 45.1472 105.245 45.1962 105.245C45.0982 105.245 45.1472 105.245 45.1472 105.294Z" fill="white"/>
<path d="M87.1235 136.208C87.1399 134.8 86.034 133.646 84.6534 133.63C83.2728 133.614 82.1404 134.742 82.124 136.15C82.1076 137.557 83.2135 138.712 84.5941 138.728C85.9747 138.744 87.1071 137.616 87.1235 136.208Z" fill="white"/>
<path d="M90 142.843C90.3432 145.441 88.6275 147.843 86.1765 148.137C83.7255 148.431 81.4706 146.618 81.1275 143.97C80.7843 141.372 82.353 137.794 84.8039 137.451C87.2549 137.157 89.6569 140.196 90 142.843Z" fill="white"/>
<path d="M83.6272 139.706C82.3527 140.735 78.9213 140.833 77.5488 139.853C75.8331 138.529 77.6468 134.167 78.8233 132.794C78.8723 132.745 78.9704 132.745 78.9704 132.843L78.5292 135.686C78.4312 136.618 78.2351 137.598 78.3331 138.48C78.3331 138.676 78.5292 138.774 78.7253 138.823C80.0488 139.314 81.4704 139.461 82.8919 139.608C83.088 139.608 83.4312 139.657 83.5782 139.559C83.5782 139.608 83.6272 139.657 83.6272 139.706Z" fill="white"/>
<path d="M83.2353 142.598C81.3726 143.921 79.3138 144.51 77.0098 144.265C76.8628 144.265 76.5686 144.167 76.4216 144.118C74.0686 143.333 73.2843 140.441 73.7745 138.235C73.7745 138.137 73.8726 138.088 73.9216 138.186C74.4608 139.902 75.1961 142.402 77.2059 142.745C78.1863 142.892 79.2157 142.843 80.1961 142.745C81.1765 142.647 82.2059 142.549 83.1863 142.353C83.2843 142.402 83.3334 142.5 83.2353 142.598C83.2353 142.598 83.2843 142.549 83.2353 142.598Z" fill="white"/>
<path d="M82.549 145C81.4706 145.49 80.4902 145.882 79.7059 146.372C79.1177 146.765 78.7255 147.059 78.4804 147.696C78.1863 148.48 78.2353 149.412 78.2843 150.49C78.3824 151.47 78.5294 152.549 78.5785 153.725C78.5785 153.774 78.4804 153.823 78.4314 153.774C76.8628 151.274 75.4412 146.47 79.2647 145.294C80.2941 144.951 81.4216 144.853 82.5 144.902C82.6471 144.853 82.6471 145 82.549 145Z" fill="white"/>
<path d="M83.7745 146.569C83.5784 147.843 83.0883 148.725 83.4804 149.706C84.1667 151.127 84.7549 152.598 84.7549 154.314C84.7549 154.363 84.6569 154.412 84.6569 154.363C84.2157 153.774 83.7745 153.137 83.3334 152.5C82.7941 151.519 81.9608 150.539 81.9608 149.363C82.0098 148.186 82.7941 147.157 83.6275 146.421C83.7745 146.372 83.8235 146.47 83.7745 146.569Z" fill="white"/>
<path d="M86.5685 139.216C86.8136 138.97 87.3528 138.529 87.6469 138.284C88.4312 137.647 89.5096 136.961 90.2939 136.323C90.343 136.274 90.392 136.225 90.343 136.323C90.2939 136.372 90.2449 136.47 90.1959 136.569C90.1469 136.716 90.0979 136.814 90.1469 136.961C89.7057 135.196 89.1665 133.48 89.2645 131.569V131.519C89.2645 131.47 89.3626 131.421 89.4116 131.47C90.0488 132.745 90.6861 134.069 91.1763 135.392C91.3724 135.882 91.6175 136.421 91.6175 137.01C91.5685 137.255 91.3724 137.353 91.2253 137.5C90.6371 137.941 89.9508 138.235 89.3135 138.529C88.9704 138.676 86.4214 139.755 86.5194 139.265C86.5194 139.216 86.5685 139.216 86.5685 139.216Z" fill="white"/>
<path d="M87.5979 141.863C89.3626 140.735 91.4214 140.245 93.1861 139.51C93.6763 139.216 93.9214 138.725 94.2155 138.137C94.6567 137.353 94.9998 136.372 95.49 135.343C95.49 135.294 95.539 135.294 95.5881 135.294C95.7351 136.814 95.539 138.48 94.7547 139.853C93.9214 141.274 92.0587 141.372 90.5881 141.667C89.5587 141.814 88.5783 141.961 87.5488 142.01C87.4998 142.01 87.4998 141.912 87.5979 141.863Z" fill="white"/>
<path d="M88.8232 144.019C92.6467 140.833 97.3036 143.333 96.4703 148.333C96.2742 149.51 95.833 150.637 94.9997 151.568C94.9507 151.617 94.8526 151.568 94.8526 151.519C94.9997 150.98 95.0977 150.49 95.1467 149.951C95.6369 146.323 94.7056 143.235 90.3918 143.872C89.8526 143.921 89.3134 144.019 88.8232 144.167C88.7742 144.216 88.7252 144.068 88.8232 144.019Z" fill="white"/>
<path d="M88.1371 145.882C89.8528 145.686 91.7155 147.01 91.7645 148.921C91.6665 150.882 90.7841 152.647 89.1665 153.823C89.1175 153.872 89.0194 153.872 89.0194 153.774C89.5096 152.353 89.9998 150.931 90.2449 149.461C90.441 148.725 90.2449 148.039 89.7547 147.451C89.3136 146.912 88.7253 146.421 88.0881 146.029C87.99 145.931 88.039 145.833 88.1371 145.882Z" fill="white"/>
<path d="M89.7056 120.392C88.6761 125.441 82.0095 128.48 70.784 123.922C59.1173 119.216 54.0683 107.99 52.7938 104.657C59.7056 91.7157 54.9016 82.7451 54.9016 82.7451C70.833 81.3726 84.7546 100 84.7546 100L86.9114 109.216C87.1075 110 87.4997 110.686 88.0879 111.176C89.1173 112.99 90.3428 117.157 89.7056 120.392Z" fill="white"/>
<path d="M52.5489 104.804C53.4803 103.382 54.0685 101.716 54.4607 100.098C55.196 96.7157 55.4411 93.2844 55.4901 89.853V88.5785C55.343 87.304 54.9019 85.9804 54.4117 84.804C53.7744 83.2353 56.0783 82.2549 56.8136 83.8236C56.9117 84.0196 56.9117 84.3628 56.9117 84.5589C57.0587 91.2255 57.3528 99.804 53.1372 105.343C52.843 105.637 52.2548 105.196 52.5489 104.804Z" fill="black"/>
<path d="M85.2939 99.902C86.0292 100.343 86.2743 100.931 86.3723 101.52C86.6664 102.696 86.5684 103.971 86.8625 105.196C87.1076 106.373 87.8429 107.5 88.039 108.726C88.2841 110 89.0194 112.696 89.3135 114.02C89.4115 114.314 89.2154 114.657 88.8723 114.706C88.6762 114.755 88.5292 114.706 88.3821 114.608C87.7448 114.069 87.4507 113.529 87.0586 112.843C86.4213 111.667 85.9801 110.588 85.588 109.265C85.2448 108.088 85.3919 106.814 85.0978 105.588C84.8527 104.412 84.1664 103.284 83.9213 102.059C83.7743 101.471 83.7252 100.833 84.1664 100.098C84.4605 99.804 84.9507 99.706 85.2939 99.902Z" fill="black"/>
<path d="M88.8234 112.843C79.4607 112.353 71.8136 109.412 64.3626 96.1275C70.6372 101.667 78.0391 103.775 85.8332 104.755L86.8626 109.265C87.0587 110.049 88.2352 112.353 88.8234 112.843Z" fill="black"/>
<path d="M88.4315 111.029C90.0981 114.167 91.0785 118.088 90.0491 121.569C89.2648 124.02 87.0099 125.833 84.5589 126.52C78.8726 128.039 72.304 125.637 67.255 122.941C61.0295 119.461 56.4217 113.627 53.4805 107.255C53.2844 106.765 53.9707 106.373 54.2648 106.863C55.2942 108.922 56.4707 110.931 57.7942 112.745C59.1177 114.608 60.6373 116.324 62.353 117.843C67.353 122.353 74.1177 125.147 80.8824 125.147C87.8432 124.951 90.4903 121.275 88.8726 114.51C88.6275 113.431 88.2354 112.304 87.6962 111.373C87.402 110.98 88.1373 110.539 88.4315 111.029Z" fill="black"/>
<path d="M107.402 52.1569C108.284 56.2745 108.725 59.6079 106.323 70.5883C103.97 81.5196 109.706 83.7745 96.1274 101.275C90.5881 108.431 77.1568 106.422 66.2744 99.0196C62.5979 96.5196 61.0293 90.0981 58.2842 85.5392C56.1274 81.9608 55.147 85.6863 52.3038 82.5981C48.4313 78.3824 43.7744 69.902 46.0783 54.902C49.8038 30.5883 69.0685 27.7451 83.3332 30.4412C97.696 33.1863 105.049 41.3236 107.402 52.1569Z" fill="white"/>
<path d="M54.7548 86.9608C53.6274 85.049 52.1568 83.3824 50.7842 81.6177C49.4607 79.804 48.3823 77.7941 47.4999 75.7353C41.6666 61.4216 43.9215 41.2745 58.2352 32.8432C64.1666 29.4118 71.3234 28.5785 77.9901 29.1177C92.2548 30.1471 105.343 36.7157 108.431 51.8138C110.098 58.4804 107.843 65.3432 106.569 71.8628C105.98 75.0981 106.47 78.4314 106.421 81.7647C106.372 85.1471 105.441 88.5294 104.167 91.6667C103.382 93.8236 102.01 95.7353 100.588 97.5C98.2352 100.343 95.8823 103.235 92.8921 105.441C92.2058 105.931 90.9803 106.177 90.147 106.275C87.843 106.618 85.5881 106.716 83.2842 106.569C74.2646 106.176 64.6077 101.814 60.9803 93.0883C60.8332 92.7451 61.3234 92.5 61.5195 92.7941C66.2254 100.245 74.8528 103.922 83.4313 104.412C86.0783 104.559 88.7744 104.51 91.3724 103.971C92.647 103.333 93.7744 102.206 94.8528 101.176C97.4999 98.5294 100.196 95.6863 102.108 92.451C104.412 88.0883 105.686 83.3334 105.294 78.3824C105.196 76.1765 105.147 73.8726 105.588 71.6667C105.98 69.4608 106.47 67.353 106.765 65.0981C107.059 62.9412 107.206 60.7353 107.206 58.5785C106.961 52.2549 104.902 45.7353 100.882 40.8334C92.0097 29.804 71.0293 26.9118 59.2156 34.4608C51.7646 39.0687 48.2842 47.6961 47.1568 56.0785C45.4411 66.1275 45.9313 76.0294 53.9215 83.3334L56.2744 85.7843C57.2058 86.8628 55.5391 88.1373 54.7548 86.9608Z" fill="black"/>
<path d="M60.5389 71.3725C60.5389 71.3725 59.0193 64.0196 51.8625 64.9019C45.686 65.6862 43.5291 80.4902 57.5487 84.6078" fill="white"/>
<path d="M56.9117 78.1863C55.7842 77.549 54.9999 76.4706 54.9509 75.1471C54.9999 74.1667 55.147 73.0392 54.9019 72.0588C54.7548 71.1275 53.7744 70.8824 53.0391 70.9314C52.2548 71.0785 51.7646 72.0588 51.6175 72.8432C51.6175 72.8922 51.5685 73.0392 51.5685 73.0883C51.5195 73.3334 51.1273 73.3334 51.0293 73.0883C50.3921 71.1765 51.8136 69.0686 53.8724 69.3137C56.7646 69.5098 57.1568 72.549 56.6175 74.853C56.3234 75.8334 56.7156 76.7157 57.2548 77.549L57.3528 77.6961C57.5979 77.9902 57.2058 78.3824 56.9117 78.1863Z" fill="black"/>
<path d="M96.1272 66.1765C96.8625 69.6569 98.2351 72.8922 99.9508 75.9314C101.47 79.6569 97.5488 83.1863 94.0684 83.0392C93.6763 83.0392 93.6272 82.5 93.9704 82.402C96.1763 81.7157 98.1861 80.2451 98.5292 77.9902C98.6763 77.3039 98.4802 76.7157 98.137 76.1275C96.5194 73.0882 95.539 69.6078 95.7841 66.1765C95.7841 65.9314 96.1272 65.9314 96.1272 66.1765Z" fill="black"/>
<path d="M60.294 71.4216C59.1666 68.5294 56.7156 65.7843 53.4313 65.8334C53.1372 65.7843 52.647 65.8824 52.3528 65.8824C51.5195 65.9314 50.8332 66.2255 50.196 66.8138C47.0587 69.951 47.5979 75.4902 50.147 78.9706C51.0293 80.1961 52.1568 81.2745 53.4313 82.1569C54.7058 83.0393 56.1273 83.7255 57.647 84.3138C57.9901 84.4118 57.843 84.951 57.4999 84.902C54.2156 84.2157 51.0783 82.5981 48.9215 79.902C45.5881 75.8824 44.9019 69.1667 48.8724 65.2451C49.7548 64.4608 50.9803 63.8726 52.2058 63.8726C52.5979 63.8726 53.1862 63.7745 53.5783 63.8726C55.6372 63.9706 57.5979 65 58.8724 66.6177C59.9999 67.9902 60.6372 69.6569 60.8332 71.3236C60.8332 71.6177 60.3921 71.7157 60.294 71.4216Z" fill="black"/>
<path d="M92.402 87.9412C89.2647 90.9314 83.3334 88.5294 81.7647 84.9019C81.5687 84.4608 82.0588 84.0686 82.451 84.2647C83.2843 84.7059 84.0196 85.147 84.8039 85.4902C87.0588 86.5196 89.4118 87.3529 91.9118 87.1078C92.402 87.0098 92.7451 87.598 92.402 87.9412Z" fill="black"/>
<path d="M77.8432 71.1765C76.6668 71.1275 75.7844 70.1471 75.8825 68.9706L75.9315 67.598C75.9805 66.4216 76.9609 65.5392 78.1374 65.6373C79.3138 65.6863 80.1962 66.6667 80.0981 67.8431L80.0491 69.2157C80.0001 70.3431 79.0197 71.2255 77.8432 71.1765Z" fill="black"/>
<path d="M98.4803 71.9118C97.4019 71.8628 96.5686 70.9314 96.6176 69.853L96.6666 68.5785C96.7156 67.5001 97.647 66.6667 98.7254 66.7158C99.8039 66.7648 100.637 67.6961 100.588 68.7746L100.539 70.0491C100.49 71.1275 99.5588 71.9609 98.4803 71.9118Z" fill="black"/>
<path d="M82.255 68.5294C80.6374 67.451 78.8726 66.7157 76.9119 67.1079C76.2746 67.2059 75.6374 67.402 75.2452 67.8431C75.0981 68.0392 74.755 67.9902 74.755 67.6961C74.804 66.7157 75.6374 66.0784 76.4217 65.6863C77.9413 64.902 80.0491 65.049 81.4217 66.0784C81.9119 66.3726 83.5785 68.1863 82.6962 68.5784C82.5001 68.6765 82.4021 68.6275 82.255 68.5294Z" fill="black"/>
<path d="M96.2746 68.7745C96.2746 66.7157 98.8236 65.9804 100.392 66.7157C101.275 67.1079 101.912 67.8922 102.157 68.8235C102.255 69.1177 101.814 69.3628 101.618 69.1177C100.784 68.1373 99.3628 67.6471 98.2354 68.2353C97.8923 68.4314 97.8432 68.5784 97.7452 68.7745C97.7452 69.7549 96.3236 69.7059 96.2746 68.7745Z" fill="black"/>
<path d="M84.608 60.4412C85.6374 60.7843 86.6668 59.853 86.4707 58.7255C86.3727 58.1373 86.1276 57.549 85.6374 57.1079C84.1668 55.7843 78.0883 54.6079 74.4119 56.3235C71.1766 57.8922 79.9021 58.8726 84.608 60.4412Z" fill="black"/>
<path d="M99.265 61.2255C98.4316 61.5196 97.5493 60.6373 97.6964 59.6079C97.7454 59.0687 97.9415 58.5294 98.3336 58.1373C99.5101 56.9608 103.53 56.0294 106.079 57.8432C108.285 59.3628 103.089 59.8039 99.265 61.2255Z" fill="black"/>
<path d="M112.206 41.8627C109.657 20.098 88.0393 12.7451 92.206 27.2549C92.206 27.2549 86.5197 18.1372 73.7256 17.647C62.7452 17.2549 69.4119 25.049 69.4119 25.049C69.4119 25.049 60.8824 20.147 46.4217 27.5C33.8236 33.9215 45.4903 39.5588 45.4903 39.5588C45.4903 39.5588 35.9805 44.6078 35.8334 55.4902C35.7844 58.3333 38.1373 62.696 43.7256 61.2745C42.304 72.1078 48.9217 80.9804 51.9609 84.6078C55.8824 89.3137 56.2256 92.8921 56.2256 92.8921C58.2354 91.7647 55.8824 86.7156 55.9315 84.0686C43.6766 79.3627 45.8824 65.6862 51.8628 64.9019C58.1373 64.1176 60.0981 69.7058 60.4413 71.0784C61.4707 69.8529 61.7648 65.098 62.353 60.049C64.1668 59.4607 65.7844 58.8235 67.1079 57.9902C72.304 54.9019 74.755 49.5588 80.0491 46.4215C89.3138 40.8823 91.7158 53.3823 96.6668 48.7745C102.402 43.4803 106.569 47.696 107.843 54.2156C108.333 56.5686 111.324 56.3725 111.765 54.0196C112.451 50.5882 112.745 46.4705 112.206 41.8627Z" fill="black"/>
<path d="M141.275 41.3235C171.029 98.6275 118.725 163.284 56.3725 147.5C28.3824 140.539 5.88235 116.275 1.22549 87.7941C-4.06863 59.4608 8.72549 29.0196 32.6471 12.9902C65.4412 -9.55882 110.882 -2.05882 134.363 30.1961C134.51 30.3431 134.461 30.5882 134.265 30.7353C134.118 30.8824 133.873 30.8333 133.725 30.6373C130.49 26.4706 126.814 22.6961 122.794 19.3137C116.176 13.6765 108.431 9.26471 100.245 6.27451C58.5784 -8.82353 12.8431 16.2745 3.72549 59.8529C-6.56863 108.676 34.951 153.627 84.4608 146.912C122.647 142.108 151.029 106.863 147.892 68.5294C147.206 59.2647 144.755 50.098 140.686 41.6667C140.588 41.5196 140.686 41.3235 140.833 41.2255C140.98 41.1275 141.176 41.1765 141.275 41.3235Z" fill="black"/>
</g>
</svg>
