<svg width="150" height="150" viewBox="0 0 150 150" fill="none" xmlns="http://www.w3.org/2000/svg">
<mask id="mask0_73_1262" style="mask-type:alpha" maskUnits="userSpaceOnUse" x="0" y="0" width="150" height="150">
<circle cx="74.7541" cy="74.7541" r="74.7541" fill="#D9D9D9"/>
</mask>
<g mask="url(#mask0_73_1262)">
<path d="M115.735 136.471C115.392 136.716 115 136.961 114.657 137.206C114.265 137.451 113.922 137.696 113.53 137.892C113.186 138.088 112.892 138.284 112.549 138.48C112.5 138.529 112.451 138.529 112.402 138.578C111.275 139.265 110.098 139.902 108.922 140.49C108.579 140.686 108.186 140.882 107.843 141.029C107.843 141.029 107.794 141.078 107.745 141.078C107.353 141.275 106.961 141.471 106.569 141.667C105.784 142.059 104.951 142.402 104.167 142.745C103.775 142.941 103.333 143.088 102.941 143.235C102.549 143.382 102.108 143.578 101.716 143.726C101.324 143.873 100.882 144.069 100.49 144.216C100.49 144.216 100.49 144.216 100.441 144.216C100.049 144.363 99.6079 144.51 99.2158 144.657C98.3334 144.951 97.4021 145.245 96.5197 145.539C96.2256 145.637 95.8825 145.735 95.5883 145.833C94.657 146.127 93.7256 146.373 92.7942 146.569C92.4511 146.667 92.1079 146.716 91.7158 146.814C90.8334 147.01 89.9021 147.206 89.0197 147.402C88.8236 147.451 88.6766 147.451 88.4805 147.5C88.1864 147.549 87.8432 147.598 87.5491 147.647C87.1079 147.696 86.7158 147.794 86.2746 147.843C86.0785 147.892 85.8825 147.892 85.6864 147.941C85.4413 147.99 85.1472 148.039 84.853 148.039C84.0687 148.137 83.2354 148.235 82.4511 148.333C82.206 148.382 81.9119 148.382 81.6668 148.431H81.6177C81.2746 148.48 80.9315 148.48 80.5883 148.529C80.2452 148.578 79.9021 148.578 79.5589 148.578C79.3628 148.578 79.1177 148.627 78.9217 148.627C78.5295 148.627 78.1864 148.676 77.8432 148.676C77.353 148.676 76.9119 148.726 76.4217 148.726C75.9315 148.726 75.4903 148.726 75.0001 148.726C74.657 148.726 74.3138 148.726 73.9707 148.726C53.2844 148.431 34.706 139.657 21.4217 125.735C21.4217 125.735 21.4217 125.686 21.3726 125.686C19.9021 124.363 21.1766 117.304 27.1079 112.843C34.5589 107.206 52.4021 103.676 52.4021 103.676C52.4021 103.676 59.3138 102.549 84.9511 107.892C99.9511 111.029 111.373 115.588 117.745 127.941C119.069 130.49 120.392 134.412 115.735 136.471Z" fill="white"/>
<path d="M85.0981 107.353C94.5099 109.265 104.559 111.324 112.304 117.549C114.902 119.657 116.618 122.745 118.039 125.735C118.726 127.206 119.412 128.726 119.951 130.343C120.245 131.422 120.686 132.647 120.441 133.922C120.392 134.265 120.098 134.706 119.853 134.951C118.726 136.078 117.5 136.765 116.275 137.647C109.069 142.647 100.784 146.177 92.206 148.039C73.0883 152.206 52.4021 148.971 35.5883 138.922C30.0001 135.539 24.853 131.422 20.4413 126.569C19.9511 125.98 19.9511 125 19.9511 124.363C20.0001 122.892 20.3923 121.471 20.8825 120.147C22.0589 117.108 23.5785 114.069 26.1766 111.961C28.0393 110.686 30.0491 109.608 32.1079 108.726C38.5785 105.98 45.3923 104.069 52.4021 103.284C52.9903 103.235 53.0883 104.069 52.5001 104.167C45.7844 105.539 39.1177 107.598 32.8923 110.392C30.6374 111.52 28.2354 112.5 26.4217 114.265C24.706 116.127 23.4805 118.431 22.5001 120.784C21.8628 122.206 21.4217 124.461 21.6177 125.588C24.706 129.265 28.3334 132.5 32.255 135.294C53.7256 150.294 86.3236 151.275 109.167 138.775C111.226 137.647 113.235 136.373 115.147 135.049C116.079 134.412 117.059 133.873 117.794 133.137C117.843 133.088 117.794 133.137 117.794 133.186C117.794 133.235 117.745 133.284 117.745 133.284C117.794 132.696 117.598 131.912 117.353 131.127C116.471 128.284 115.049 125.294 113.53 122.696C111.128 118.824 107.059 116.373 102.941 114.412C100.098 113.088 97.1079 112.059 94.0687 111.078C91.0295 110.098 87.9413 109.265 84.853 108.529C84.0687 108.333 84.3138 107.206 85.0981 107.353Z" fill="black"/>
<path d="M115.736 136.471C115.392 136.716 115 136.961 114.657 137.206C114.265 137.451 113.922 137.696 113.53 137.892C113.187 138.088 112.892 138.284 112.549 138.48C112.5 138.529 112.451 138.529 112.402 138.578C111.275 139.265 110.098 139.902 108.922 140.49C108.579 140.686 108.187 140.882 107.843 141.029C107.843 141.029 107.794 141.078 107.745 141.078C107.353 141.275 106.961 141.471 106.569 141.667C105.785 142.059 104.951 142.402 104.167 142.745C103.775 142.941 103.334 143.088 102.941 143.235C102.549 143.382 102.108 143.578 101.716 143.726C101.324 143.873 100.883 144.069 100.49 144.216C100.49 144.216 100.49 144.216 100.441 144.216C100.049 144.363 99.6081 144.51 99.216 144.657C98.3336 144.951 97.4023 145.245 96.5199 145.539C96.2258 145.637 95.8827 145.735 95.5885 145.833C94.6572 146.128 93.7258 146.373 92.7944 146.569C92.4513 146.667 92.1081 146.716 91.716 146.814C90.8336 147.01 89.9023 147.206 89.0199 147.402C88.8238 147.451 88.6768 147.451 88.4807 147.5C88.1866 147.549 87.8434 147.598 87.5493 147.647C87.1081 147.696 86.716 147.794 86.2748 147.843C86.0787 147.892 85.8827 147.892 85.6866 147.941C85.4415 147.99 85.1474 148.039 84.8532 148.039C84.0689 148.137 83.2356 148.235 82.4513 148.333C82.2062 148.382 81.9121 148.382 81.667 148.431H81.6179C81.2748 148.48 80.9317 148.48 80.5885 148.529C80.2454 148.578 79.9023 148.578 79.5591 148.578C79.363 148.578 79.1179 148.628 78.9219 148.628C78.5297 148.628 78.1866 148.677 77.8434 148.677C77.3532 148.677 76.9121 148.726 76.4219 148.726C75.9317 148.726 75.4905 148.726 75.0003 148.726C74.6572 148.726 74.314 148.726 73.9709 148.726C53.2846 148.431 34.7062 139.657 21.4219 125.735C21.4219 125.735 21.4219 125.686 21.3729 125.686C19.9023 124.951 20.9317 116.569 26.863 112.108C34.314 106.471 52.4023 103.677 52.4023 103.677C52.4023 103.677 59.314 102.549 84.9513 107.892C98.6768 110.735 111.422 115.245 116.079 123.088C117.353 125.245 120.441 129.461 119.902 132.647C119.608 134.363 117.206 135.147 115.736 136.471Z" fill="white"/>
<path d="M85.0983 107.353C94.216 109.314 104.902 111.029 112.402 116.961C117.206 120.784 118.775 126.863 121.079 132.353C121.275 132.696 121.079 133.039 120.932 133.333C119.608 135.392 117.451 136.765 115.49 138.137C109.755 142.01 103.334 144.951 96.716 146.863C74.5591 153.284 49.5101 149.265 30.7356 135.784C26.9611 133.088 23.4807 130 20.3925 126.569L20.6376 126.765C19.8532 126.226 19.6572 125.245 19.6572 124.412C19.9023 120.98 21.4219 117.843 22.9415 114.804C23.4317 113.922 23.9709 112.941 24.7552 112.255C31.9611 105.637 43.8238 103.088 53.2846 102.206C53.8729 102.157 53.9219 102.99 53.3827 103.088C44.6081 104.706 35.4905 106.765 28.0395 111.863C27.0591 112.647 25.8827 113.431 25.1964 114.51C24.0689 116.275 20.0983 123.922 21.5689 125.49C31.814 137.696 47.2062 144.706 62.8434 146.569C78.2356 148.628 94.4611 146.52 108.236 139.216C110.196 138.186 112.108 137.059 113.922 135.784C115.589 134.657 117.255 133.578 118.53 132.059L118.481 132.157L118.432 133.039C118.285 131.226 117.353 129.461 116.765 127.745C116.079 126.029 115.343 124.216 114.461 122.647C112.696 119.461 109.657 117.206 106.471 115.49C103.187 113.726 99.6081 112.451 95.9317 111.373C92.2552 110.294 88.5787 109.363 84.8042 108.529C84.0689 108.333 84.314 107.206 85.0983 107.353Z" fill="black"/>
<path d="M27.8925 111.029C27.8925 111.029 30.3434 111.324 33.7258 113.382C40.0493 117.255 49.9513 141.324 32.6964 155.735C32.6964 155.735 29.6081 173.775 32.6964 177.206C32.6964 177.206 89.167 180.049 113.53 177.206C113.53 177.206 116.765 166.618 115.196 155.294C113.236 140.931 113.824 125.833 104.363 112.941C100.049 107.059 78.4317 101.961 65.9317 102.059C53.2846 102.206 48.0395 103.529 44.7062 104.363C41.3238 105.245 28.1376 108.431 27.8925 111.029Z" fill="black" stroke="black" stroke-width="5.1257" stroke-miterlimit="10" stroke-linecap="round" stroke-linejoin="round"/>
<path d="M29.363 112.99C35.2944 107.549 34.6081 112.157 45.7356 110.343C50.0003 109.657 55.0493 106.128 61.5689 106.275C66.2748 106.373 71.3728 109.902 77.4022 110.686C82.2552 111.324 88.0395 109.118 93.8238 110.294C98.6768 111.324 103.187 115.588 108.775 117.108" stroke="white" stroke-width="4" stroke-miterlimit="10" stroke-linecap="round" stroke-linejoin="round"/>
<path d="M29.8044 119.51C36.7652 115.343 35.4417 119.706 46.4711 118.186C50.8338 117.598 56.0299 113.971 62.5005 114.02C67.3044 114.069 72.5005 117.549 78.5789 118.137C83.5299 118.628 89.3142 116.226 95.1476 117.206C100.148 118.088 104.804 122.304 110.442 123.628" stroke="white" stroke-width="4" stroke-miterlimit="10" stroke-linecap="round" stroke-linejoin="round"/>
<path d="M30.2454 126.078C37.8925 123.039 36.2258 127.157 47.1572 125.98C51.667 125.49 56.9611 121.863 63.4317 121.863C68.3336 121.863 73.6768 125.294 79.7552 125.784C84.8042 126.177 90.6376 123.529 96.4709 124.363C101.569 125.098 106.422 129.216 112.157 130.343" stroke="white" stroke-width="4" stroke-miterlimit="10" stroke-linecap="round" stroke-linejoin="round"/>
<path d="M30.6866 132.745C38.7748 130.735 36.912 134.608 47.7454 133.726C52.3532 133.333 57.7944 129.755 64.265 129.706C69.314 129.657 74.8042 133.088 80.8826 133.431C86.0787 133.726 91.863 130.833 97.7944 131.471C103.039 132.01 108.138 136.029 113.922 136.961" stroke="white" stroke-width="4" stroke-miterlimit="10" stroke-linecap="round" stroke-linejoin="round"/>
<path d="M31.0299 139.412C39.4123 138.235 37.4025 141.912 48.2358 141.373C52.9907 141.127 58.5789 137.549 65.0985 137.5C70.2456 137.451 75.8828 140.931 82.0103 141.127C87.3044 141.324 93.1377 138.235 99.1181 138.627C104.51 139.02 109.853 142.892 115.687 143.529" stroke="white" stroke-width="4" stroke-miterlimit="10" stroke-linecap="round" stroke-linejoin="round"/>
<path d="M31.3727 146.079C39.9511 145.588 37.8923 149.167 48.7256 148.922C53.6276 148.824 59.3628 145.294 65.8824 145.294C71.1766 145.294 76.9119 148.775 83.0883 148.873C88.5295 148.971 94.4119 145.686 100.392 145.883C105.931 146.079 111.52 149.804 117.451 150.147" stroke="white" stroke-width="4" stroke-miterlimit="10" stroke-linecap="round" stroke-linejoin="round"/>
<path d="M89.7056 120.392C88.6761 125.441 82.0095 128.48 70.784 123.922C59.1173 119.216 54.0683 107.99 52.7938 104.657C59.7056 91.7157 54.9016 82.7451 54.9016 82.7451C70.833 81.3726 84.7546 100 84.7546 100L86.9114 109.216C87.1075 110 87.4997 110.686 88.0879 111.176C89.1173 112.99 90.3428 117.157 89.7056 120.392Z" fill="white"/>
<path d="M52.5489 104.804C53.4803 103.382 54.0685 101.716 54.4607 100.098C55.196 96.7157 55.4411 93.2843 55.4901 89.853V88.5785C55.343 87.3039 54.9019 85.9804 54.4117 84.8039C53.7744 83.2353 56.0783 82.2549 56.8136 83.8236C56.9117 84.0196 56.9117 84.3628 56.9117 84.5588C57.0587 91.2255 57.3528 99.8039 53.1371 105.343C52.843 105.637 52.2548 105.196 52.5489 104.804Z" fill="black"/>
<path d="M85.2939 99.902C86.0292 100.343 86.2743 100.931 86.3723 101.52C86.6664 102.696 86.5684 103.971 86.8625 105.196C87.1076 106.373 87.8429 107.5 88.039 108.726C88.2841 110 89.0194 112.696 89.3135 114.02C89.4115 114.314 89.2154 114.657 88.8723 114.706C88.6762 114.755 88.5292 114.706 88.3821 114.608C87.7448 114.069 87.4507 113.529 87.0586 112.843C86.4213 111.667 85.9801 110.588 85.588 109.265C85.2448 108.088 85.3919 106.814 85.0978 105.588C84.8527 104.412 84.1664 103.284 83.9213 102.059C83.7743 101.471 83.7252 100.833 84.1664 100.098C84.4605 99.804 84.9507 99.7059 85.2939 99.902Z" fill="black"/>
<path d="M88.8234 112.843C79.4607 112.353 71.8136 109.412 64.3626 96.1275C70.6372 101.667 78.0391 103.775 85.8332 104.755L86.8626 109.265C87.0587 110.049 88.2352 112.353 88.8234 112.843Z" fill="black"/>
<path d="M88.4315 111.029C90.0981 114.167 91.0785 118.088 90.0491 121.569C89.2648 124.02 87.0099 125.833 84.5589 126.52C78.8726 128.039 72.304 125.637 67.255 122.941C61.0295 119.461 56.4217 113.627 53.4805 107.255C53.2844 106.765 53.9707 106.373 54.2648 106.863C55.2942 108.922 56.4707 110.931 57.7942 112.745C59.1177 114.608 60.6373 116.324 62.353 117.843C67.353 122.353 74.1177 125.147 80.8824 125.147C87.8432 124.951 90.4903 121.275 88.8726 114.51C88.6275 113.431 88.2354 112.304 87.6962 111.373C87.402 110.98 88.1373 110.539 88.4315 111.029Z" fill="black"/>
<path d="M107.402 52.1569C108.284 56.2745 108.725 59.6079 106.323 70.5883C103.97 81.5196 109.706 83.7745 96.1273 101.275C90.5881 108.431 77.1568 106.422 66.2744 99.0196C62.5979 96.5196 61.0293 90.0981 58.2842 85.5392C56.1273 81.9608 55.1469 85.6863 52.3038 82.5981C48.4313 78.3824 43.7744 69.902 46.0783 54.902C49.8038 30.5883 69.0685 27.7451 83.3332 30.4412C97.696 33.1863 105.049 41.3236 107.402 52.1569Z" fill="white"/>
<path d="M54.7548 86.9608C53.6274 85.049 52.1568 83.3824 50.7842 81.6177C49.4607 79.8039 48.3823 77.7941 47.4999 75.7353C41.6666 61.4216 43.9215 41.2745 58.2352 32.8432C64.1666 29.4118 71.3234 28.5785 77.9901 29.1177C92.2548 30.1471 105.343 36.7157 108.431 51.8137C110.098 58.4804 107.843 65.3432 106.569 71.8628C105.98 75.0981 106.47 78.4314 106.421 81.7647C106.372 85.1471 105.441 88.5294 104.167 91.6667C103.382 93.8236 102.01 95.7353 100.588 97.5C98.2352 100.343 95.8823 103.235 92.8921 105.441C92.2058 105.931 90.9803 106.176 90.147 106.275C87.843 106.618 85.5881 106.716 83.2842 106.569C74.2646 106.176 64.6077 101.814 60.9803 93.0883C60.8332 92.7451 61.3234 92.5 61.5195 92.7941C66.2254 100.245 74.8528 103.922 83.4313 104.412C86.0783 104.559 88.7744 104.51 91.3724 103.971C92.647 103.333 93.7744 102.206 94.8528 101.176C97.4999 98.5294 100.196 95.6863 102.108 92.451C104.412 88.0883 105.686 83.3334 105.294 78.3824C105.196 76.1765 105.147 73.8726 105.588 71.6667C105.98 69.4608 106.47 67.353 106.765 65.0981C107.059 62.9412 107.206 60.7353 107.206 58.5785C106.961 52.2549 104.902 45.7353 100.882 40.8334C92.0097 29.8039 71.0293 26.9118 59.2156 34.4608C51.7646 39.0687 48.2842 47.6961 47.1568 56.0785C45.4411 66.1275 45.9313 76.0294 53.9215 83.3334L56.2744 85.7843C57.2058 86.8628 55.5391 88.1373 54.7548 86.9608Z" fill="black"/>
<path d="M60.5389 71.3725C60.5389 71.3725 59.0193 64.0196 51.8625 64.9019C45.686 65.6862 43.5291 80.4902 57.5487 84.6078" fill="white"/>
<path d="M56.9117 78.1863C55.7842 77.549 54.9999 76.4706 54.9509 75.1471C54.9999 74.1667 55.147 73.0392 54.9019 72.0588C54.7548 71.1275 53.7744 70.8824 53.0391 70.9314C52.2548 71.0785 51.7646 72.0588 51.6176 72.8432C51.6176 72.8922 51.5685 73.0392 51.5685 73.0883C51.5195 73.3334 51.1274 73.3334 51.0293 73.0883C50.3921 71.1765 51.8136 69.0686 53.8725 69.3137C56.7646 69.5098 57.1568 72.549 56.6176 74.853C56.3234 75.8334 56.7156 76.7157 57.2548 77.549L57.3528 77.6961C57.5979 77.9902 57.2058 78.3824 56.9117 78.1863Z" fill="black"/>
<path d="M96.1272 66.1765C96.8625 69.6569 98.2351 72.8921 99.9508 75.9314C101.47 79.6569 97.5488 83.1863 94.0684 83.0392C93.6763 83.0392 93.6272 82.5 93.9704 82.402C96.1763 81.7157 98.1861 80.2451 98.5292 77.9902C98.6763 77.3039 98.4802 76.7157 98.137 76.1274C96.5194 73.0882 95.539 69.6078 95.7841 66.1765C95.7841 65.9314 96.1272 65.9314 96.1272 66.1765Z" fill="black"/>
<path d="M60.294 71.4216C59.1666 68.5294 56.7156 65.7843 53.4313 65.8334C53.1371 65.7843 52.6469 65.8824 52.3528 65.8824C51.5195 65.9314 50.8332 66.2255 50.196 66.8138C47.0587 69.951 47.5979 75.4902 50.1469 78.9706C51.0293 80.1961 52.1567 81.2745 53.4313 82.1569C54.7058 83.0392 56.1273 83.7255 57.6469 84.3138C57.9901 84.4118 57.843 84.951 57.4999 84.902C54.2156 84.2157 51.0783 82.5981 48.9215 79.902C45.5881 75.8824 44.9018 69.1667 48.8724 65.2451C49.7548 64.4608 50.9803 63.8726 52.2058 63.8726C52.5979 63.8726 53.1862 63.7745 53.5783 63.8726C55.6371 63.9706 57.5979 65 58.8724 66.6177C59.9999 67.9902 60.6371 69.6569 60.8332 71.3236C60.8332 71.6177 60.392 71.7157 60.294 71.4216Z" fill="black"/>
<path d="M91.2743 87.7451C91.3233 88.5294 90.7351 89.9019 89.6566 90.8823C84.1174 87.5 81.6174 89.2647 81.6174 89.2647C79.6566 86.2745 80.0978 82.2058 84.8527 85.2941C88.137 87.4509 90.1959 87.7941 91.2743 87.7451Z" fill="black"/>
<path d="M89.6076 90.9313C88.4311 91.9608 86.6664 92.598 84.2645 91.6176C83.137 91.1764 82.2547 90.2941 81.5684 89.3137C81.6174 89.3137 84.0684 87.549 89.6076 90.9313Z" fill="white"/>
<path d="M92.2057 87.598C92.2057 87.598 90.1468 88.7255 84.8527 85.3431C78.5292 81.2745 79.8037 89.8039 84.2645 91.6176C88.9213 93.5294 91.3233 89.3627 91.2743 87.7941" stroke="black" stroke-width="3" stroke-miterlimit="10" stroke-linecap="round" stroke-linejoin="round"/>
<path d="M81.6176 89.3137C81.6176 89.3137 84.1176 87.549 89.6569 90.9313" stroke="black" stroke-width="3" stroke-miterlimit="10" stroke-linecap="round" stroke-linejoin="round"/>
<path d="M85.0488 60.9804C86.1272 61.1275 86.9606 60 86.5684 58.9216C86.3723 58.3334 86.0292 57.7942 85.49 57.451C83.8233 56.4216 77.5978 56.3236 74.3135 58.6765C71.3723 60.8334 80.1469 60.2942 85.0488 60.9804Z" fill="black"/>
<path d="M98.6272 61.5197C97.7449 61.5197 97.2057 60.3922 97.6468 59.4608C97.8919 58.9706 98.2351 58.5295 98.7253 58.2844C100.245 57.5491 104.314 57.9902 106.127 60.4902C107.745 62.6961 102.696 61.4706 98.6272 61.5197Z" fill="black"/>
<path d="M83.2351 67.304C80.7351 66.2255 77.892 66.5197 75.2939 67.1079C74.9998 67.2059 74.8037 66.8138 75.0488 66.6177C77.3037 64.7549 81.5684 64.5099 83.3822 67.0589C83.5292 67.1569 83.4312 67.353 83.2351 67.304Z" fill="black"/>
<path d="M102.5 68.3334C101.323 67.5 99.6076 67.6471 98.2351 67.7942C97.7449 67.8432 97.2547 67.9412 96.7155 68.0883C96.5684 68.1373 96.4213 67.8922 96.5194 67.7942L96.6174 67.6961C97.8429 66.4216 99.7547 66.1275 101.421 66.7648C102.01 67.0099 102.598 67.353 102.892 68.0393C103.039 68.2844 102.696 68.5295 102.5 68.3334Z" fill="black"/>
<path d="M111.325 60.343C113.531 52.794 109.707 47.5489 106.962 44.9999C105.688 41.5685 103.531 38.1862 100.099 35.5881C99.4132 35.0489 98.6779 34.5587 97.8446 34.1175C97.1583 33.7254 96.423 33.3822 95.6877 33.0391C89.2171 30.245 78.874 26.9607 68.6289 28.7254C64.7073 29.3626 60.7858 30.7842 57.1093 33.1862C57.0603 33.1862 57.0603 33.2352 57.0603 33.2352C56.7662 33.4313 56.472 33.6273 56.2269 33.8234C55.5407 32.9901 54.7564 32.2548 53.874 31.5685C47.7466 26.9607 41.0799 27.745 36.472 33.9215C31.8642 40.0489 31.0799 49.2156 37.2073 53.8234C39.1191 55.245 41.276 56.1273 43.4818 56.4705C43.4328 56.7156 43.4328 57.0097 43.3838 57.2548C40.6877 81.4215 59.1681 92.3038 57.7466 84.7058C57.3544 84.5587 57.1583 84.4117 57.1583 84.3136C43.5799 79.9999 45.7368 65.4901 51.8642 64.7058C54.0701 64.4117 55.6877 64.9509 56.9622 65.7352C57.4524 66.2254 57.8936 66.6666 58.3348 67.1077C59.5113 68.5783 60.5407 70.4411 60.5407 71.1764C60.5897 70.5881 60.6387 69.9019 60.7858 69.2156C66.7171 73.6273 72.0603 72.0587 81.7662 56.5685C88.1877 46.3234 92.0113 44.3136 94.1191 44.6077C94.9524 44.9019 95.7367 45.5391 96.472 46.6175C96.6681 46.9117 96.8642 47.2058 97.0113 47.4999C101.325 47.4019 103.335 49.9019 104.364 52.4999C104.364 52.4999 104.364 52.4999 104.364 52.5489C105.198 54.7548 105.296 57.0097 105.394 57.5979C105.394 57.696 105.394 57.745 105.443 57.745C105.345 59.7058 105.099 63.0391 105.05 67.3528C105.05 69.3136 105.247 73.2352 105.099 75.4901C105.05 76.1764 105.001 76.8626 104.952 77.4999C104.903 77.843 104.903 78.1862 104.854 78.4803C104.805 78.7744 104.805 79.1175 104.756 79.4607C104.707 79.8528 104.658 80.196 104.658 80.5881C105.639 81.7646 107.06 81.9607 108.237 82.745C108.531 79.4117 107.649 76.6175 107.305 72.843C107.599 74.1175 107.992 75.343 108.58 76.6175C110.541 80.8332 109.462 83.9215 109.462 83.9215L112.698 84.1175C113.041 83.1862 113.335 81.4705 112.305 79.2156C110.737 75.7352 110.639 74.1175 110.639 74.1175C110.639 74.1175 111.472 76.9607 113.041 78.8724C114.266 80.4411 114.756 82.5489 114.266 84.2156L115.443 84.3136C118.972 79.0195 108.041 71.4705 111.325 60.343ZM71.325 64.6077C67.5995 67.3038 64.4622 66.7646 62.5505 65.9313C62.5995 65.9313 62.6485 65.8823 62.6485 65.8823C63.825 65.7842 65.0015 65.5391 66.1289 65.0979C71.5211 63.1862 76.5211 58.2352 80.9328 53.6764C77.2073 58.2842 73.6289 62.9411 71.325 64.6077Z" fill="black"/>
<path d="M141.275 41.3235C171.029 98.6274 118.726 163.284 56.3726 147.5C28.3824 140.539 5.88237 116.275 1.2255 87.7941C-4.06861 59.4608 8.7255 29.0196 32.6471 12.9902C65.4412 -9.55883 110.882 -2.05883 134.363 30.1961C134.51 30.3431 134.461 30.5882 134.265 30.7353C134.118 30.8823 133.873 30.8333 133.726 30.6372C130.49 26.4706 126.814 22.6961 122.794 19.3137C116.176 13.6765 108.431 9.2647 100.245 6.27451C58.5784 -8.82353 12.8432 16.2745 3.7255 59.8529C-6.56861 108.676 34.951 153.627 84.4608 146.912C122.647 142.108 151.029 106.863 147.892 68.5294C147.206 59.2647 144.755 50.098 140.686 41.6667C140.588 41.5196 140.686 41.3235 140.833 41.2255C140.98 41.1274 141.176 41.1765 141.275 41.3235Z" fill="black"/>
</g>
</svg>
