<svg width="150" height="150" viewBox="0 0 150 150" fill="none" xmlns="http://www.w3.org/2000/svg">
<mask id="mask0_73_1096" style="mask-type:alpha" maskUnits="userSpaceOnUse" x="0" y="0" width="150" height="150">
<circle cx="74.7541" cy="74.7541" r="74.7541" fill="#D9D9D9"/>
</mask>
<g mask="url(#mask0_73_1096)">
<path d="M115.735 136.471C115.392 136.716 115 136.961 114.657 137.206C114.265 137.451 113.922 137.696 113.53 137.892C113.186 138.088 112.892 138.284 112.549 138.48C112.5 138.529 112.451 138.529 112.402 138.578C111.275 139.265 110.098 139.902 108.922 140.49C108.579 140.686 108.186 140.882 107.843 141.029C107.843 141.029 107.794 141.078 107.745 141.078C107.353 141.275 106.961 141.471 106.569 141.667C105.784 142.059 104.951 142.402 104.167 142.745C103.775 142.941 103.333 143.088 102.941 143.235C102.549 143.382 102.108 143.578 101.716 143.726C101.324 143.873 100.882 144.069 100.49 144.216C100.49 144.216 100.49 144.216 100.441 144.216C100.049 144.363 99.6079 144.51 99.2158 144.657C98.3334 144.951 97.4021 145.245 96.5197 145.539C96.2256 145.637 95.8825 145.735 95.5883 145.833C94.657 146.127 93.7256 146.373 92.7942 146.569C92.4511 146.667 92.1079 146.716 91.7158 146.814C90.8334 147.01 89.9021 147.206 89.0197 147.402C88.8236 147.451 88.6766 147.451 88.4805 147.5C88.1864 147.549 87.8432 147.598 87.5491 147.647C87.1079 147.696 86.7158 147.794 86.2746 147.843C86.0785 147.892 85.8825 147.892 85.6864 147.941C85.4413 147.99 85.1472 148.039 84.853 148.039C84.0687 148.137 83.2354 148.235 82.4511 148.333C82.206 148.382 81.9119 148.382 81.6668 148.431H81.6177C81.2746 148.48 80.9315 148.48 80.5883 148.529C80.2452 148.578 79.9021 148.578 79.5589 148.578C79.3629 148.578 79.1177 148.627 78.9217 148.627C78.5295 148.627 78.1864 148.676 77.8432 148.676C77.353 148.676 76.9119 148.726 76.4217 148.726C75.9315 148.726 75.4903 148.726 75.0001 148.726C74.657 148.726 74.3138 148.726 73.9707 148.726C53.2844 148.431 34.706 139.657 21.4217 125.735C21.4217 125.735 21.4217 125.686 21.3726 125.686C19.9021 124.363 21.1766 117.304 27.1079 112.843C34.5589 107.206 52.4021 103.676 52.4021 103.676C52.4021 103.676 59.3138 102.549 84.9511 107.892C99.9511 111.029 111.373 115.588 117.745 127.941C119.069 130.49 120.392 134.412 115.735 136.471Z" fill="white"/>
<path d="M85.0981 107.353C94.5099 109.265 104.559 111.324 112.304 117.549C114.902 119.657 116.618 122.745 118.039 125.735C118.726 127.206 119.412 128.726 119.951 130.343C120.245 131.422 120.686 132.647 120.441 133.922C120.392 134.265 120.098 134.706 119.853 134.951C118.726 136.078 117.5 136.765 116.275 137.647C109.069 142.647 100.784 146.176 92.206 148.039C73.0883 152.206 52.4021 148.971 35.5883 138.922C30.0001 135.539 24.853 131.422 20.4413 126.569C19.9511 125.98 19.9511 125 19.9511 124.363C20.0001 122.892 20.3923 121.471 20.8825 120.147C22.0589 117.108 23.5785 114.069 26.1766 111.961C28.0393 110.686 30.0491 109.608 32.1079 108.726C38.5785 105.98 45.3923 104.069 52.4021 103.284C52.9903 103.235 53.0883 104.069 52.5001 104.167C45.7844 105.539 39.1177 107.598 32.8923 110.392C30.6374 111.52 28.2354 112.5 26.4217 114.265C24.706 116.127 23.4805 118.431 22.5001 120.784C21.8628 122.206 21.4217 124.461 21.6177 125.588C24.706 129.265 28.3334 132.5 32.255 135.294C53.7256 150.294 86.3236 151.275 109.167 138.775C111.226 137.647 113.235 136.373 115.147 135.049C116.079 134.412 117.059 133.873 117.794 133.137C117.843 133.088 117.794 133.137 117.794 133.186C117.794 133.235 117.745 133.284 117.745 133.284C117.794 132.696 117.598 131.912 117.353 131.127C116.471 128.284 115.049 125.294 113.53 122.696C111.128 118.824 107.059 116.373 102.941 114.412C100.098 113.088 97.1079 112.059 94.0687 111.078C91.0295 110.098 87.9413 109.265 84.853 108.529C84.0687 108.333 84.3138 107.206 85.0981 107.353Z" fill="black"/>
<path d="M132.01 166.863H8.03893C8.03893 166.863 13.8232 148.137 18.186 130.833C19.9017 124.069 23.0879 114.853 27.0095 112.157C32.4017 108.431 41.3232 106.324 45.3428 104.902C48.137 103.922 50.2938 103.579 52.3036 103.039C52.3036 103.284 52.3526 103.48 52.3526 103.726C52.3526 103.726 56.8134 113.726 70.5879 119.265C81.8134 123.824 85.735 122.01 86.7644 116.961C87.4017 113.726 89.0193 112.99 87.9899 111.275C87.4017 110.784 87.0095 110.049 86.8134 109.314L86.4213 107.696C87.3527 107.5 88.235 107.255 89.1174 106.961C89.4115 106.863 89.6566 106.765 89.9507 106.667C95.3919 109.755 102.892 110.735 111.96 117.402C113.578 118.579 118.284 123.677 120.245 136.079C122.99 152.402 132.01 166.863 132.01 166.863Z" fill="black"/>
<path d="M132.892 167.353C96.0783 167.5 44.3136 167.99 8.03912 167.892C7.45088 167.892 7.0097 167.451 7.0097 166.863C8.43127 160.784 10.7352 152.01 12.3038 145.882C13.5293 140.931 15.0489 135.392 16.2744 130.392C18.0391 123.873 20.245 115.392 25.7842 111.078C27.5979 109.902 29.6077 109.069 31.5195 108.333C35.7352 106.765 40.0489 105.588 44.3626 104.265C46.8136 103.333 49.5587 102.745 52.1077 102.01C52.647 101.863 53.1862 102.157 53.3332 102.647C53.3823 102.794 53.3823 103.431 53.4313 103.578L52.4019 102.647C52.794 102.647 53.1862 102.892 53.3332 103.235C53.7254 104.069 54.2646 104.951 54.8038 105.735C59.9999 113.235 68.3823 118.039 77.1077 120.294C79.6077 120.833 82.9411 121.471 84.7548 119.265C85.9313 117.745 85.8823 115.392 86.8136 113.725C87.1568 112.941 87.5489 112.451 87.1568 111.765L87.3528 112.01C86.7156 111.422 86.2254 110.686 85.9803 109.902C85.7842 109.167 85.6372 108.529 85.4901 107.892C85.343 107.353 85.7352 106.765 86.2744 106.667C87.4019 106.422 88.5783 106.078 89.6568 105.686C89.9509 105.588 90.245 105.637 90.4901 105.735C91.9117 106.373 93.3823 106.912 94.9019 107.451C99.6568 108.971 104.412 110.588 108.774 113.088C110.245 113.922 111.667 114.853 113.039 115.833C114.657 117.059 115.686 118.431 116.716 120.049C120.441 125.882 121.618 132.598 122.843 139.265C124.706 147.892 127.941 156.225 131.765 164.167L132.304 165.245L132.549 165.784L132.696 166.029L132.745 166.176L132.794 166.225C132.794 166.176 132.843 166.274 132.892 166.422C133.088 166.765 133.039 167.157 132.892 167.353ZM131.127 166.373C130.98 166.569 130.931 166.912 131.029 167.157C131.078 167.304 131.127 167.402 131.127 167.353L131.078 167.304L130.98 167.157L130.833 166.912C127.598 161.373 124.902 155.539 122.794 149.51C121.421 145.588 120.294 141.618 119.559 137.5C118.676 132.059 117.304 126.373 114.363 121.667C113.578 120.441 112.598 119.118 111.421 118.235C110.098 117.304 108.774 116.373 107.402 115.588C104.657 113.922 101.716 112.598 98.7254 111.422C95.7352 110.196 92.5489 109.265 89.5587 107.549L90.3921 107.598C89.2156 108.039 87.9901 108.382 86.7156 108.627L87.4999 107.402C87.794 108.48 87.843 109.755 88.7254 110.49C89.2646 111.078 89.5097 112.108 89.3626 112.941C89.2156 113.676 88.9215 114.167 88.7254 114.608C88.2842 115.539 87.9901 116.324 87.794 117.353C86.0783 125.882 76.2254 122.598 70.6372 120.392C62.794 117.255 55.4901 111.765 51.5195 104.167L52.4509 104.755C51.9117 104.755 51.4705 104.363 51.4215 103.824L51.3724 103.186L52.647 104.069C49.9019 104.559 47.4509 104.951 44.9019 105.882C39.0685 107.696 32.843 109.216 27.794 112.696C22.5489 116.52 19.5587 130.098 17.8921 136.373C16.0783 143.284 14.1666 150.147 12.1568 156.961C11.1274 160.392 10.0979 163.774 9.01951 167.206L8.03912 165.882C43.6273 165.833 95.0489 166.078 131.127 166.373Z" fill="black"/>
<path d="M82.3036 122.941C82.3527 122.99 82.3527 122.99 82.4017 123.039C82.4017 122.99 82.4017 122.941 82.4017 122.941C82.4017 122.941 82.3527 122.941 82.3036 122.941Z" fill="white"/>
<path d="M94.0197 104.755C94.0197 104.755 94.0197 100.049 89.902 98.8236C82.304 96.5197 67.9413 95.4903 58.3334 95.4903C58.3334 95.4903 54.2648 95.7844 52.7942 96.5197C51.3726 97.206 49.6569 97.6472 49.2648 100.833C49.0687 102.402 49.0687 104.902 49.1177 107.108C49.1668 110.049 50.3432 112.892 52.402 115C55.6864 118.382 62.5001 122.794 70.2942 124.118C89.0687 127.255 94.1668 119.069 94.0197 114.706C93.8236 109.657 94.0197 104.755 94.0197 104.755Z" fill="black"/>
<path d="M92.9903 104.706C92.8922 102.598 91.7648 100.343 89.6079 99.755C88.9217 99.5589 88.2354 99.3628 87.5981 99.2158C78.0393 97.1079 68.1373 96.6177 58.3334 96.4707C57.0589 96.6177 54.6079 96.8138 53.1864 97.4021C52.5981 97.6962 51.8628 97.9903 51.3726 98.3824C50.2452 99.3628 50.1962 101.079 50.1471 102.598C50.0981 103.48 50.0981 104.363 50.0981 105.245C49.804 111.226 52.4511 114.412 57.206 117.598C60.7844 120.049 64.804 121.814 69.0687 122.794C74.902 123.922 81.3726 124.461 86.9609 122.206C89.902 121.03 92.6471 118.53 92.9903 115.294C93.0393 114.608 92.9903 113.431 92.9903 112.745C92.8922 110.196 92.8922 107.304 92.9903 104.706ZM95.0001 104.755C94.9511 107.353 94.9511 110.147 95.0001 112.745C95.0001 113.579 95.0981 114.755 95.0001 115.539C94.5589 119.657 91.2746 122.745 87.6962 124.216C82.0589 126.569 75.7844 126.177 69.902 125.245C68.6275 125 67.0589 124.657 65.8334 124.265C60.5393 122.549 55.5883 119.804 51.6177 115.882C48.7746 113.088 47.6962 109.167 47.9413 105.294C48.0883 102.451 47.5981 99.0687 49.9511 96.8628C50.6864 96.2746 51.4217 95.9315 52.206 95.5883C54.2158 94.804 56.1766 94.657 58.2354 94.4609C64.853 94.5099 71.4707 94.853 78.0883 95.6374C82.0099 96.1275 85.9805 96.6668 89.804 97.7942L90.0981 97.8922L90.4413 98.0393C92.157 98.8726 92.8922 100.686 93.8726 102.157C94.5099 102.941 94.9511 103.775 95.0001 104.755Z" fill="black"/>
<path d="M49.4607 107.059C50.5391 122.794 74.8038 139.608 89.2156 130.882C92.9901 128.333 94.0195 123.48 93.9215 119.216C93.9215 117.745 93.7744 116.275 93.6764 114.755C93.6274 114.412 94.2156 114.314 94.2646 114.657C96.3234 122.892 95.294 132.01 85.6862 134.461C72.2058 137.745 56.9117 127.843 50.9803 115.98C49.6077 113.235 48.7254 110.196 48.6764 107.157C48.7254 106.667 49.4117 106.569 49.4607 107.059Z" fill="white"/>
<path d="M89.7056 120.392C88.6762 125.441 82.0095 128.48 70.784 123.922C59.1174 119.216 54.0684 107.99 52.7939 104.657C59.7056 91.7157 54.9017 82.7451 54.9017 82.7451C70.8331 81.3726 84.7546 100 84.7546 100L86.9115 109.216C87.1076 110 87.4997 110.686 88.088 111.176C89.1174 112.99 90.3429 117.157 89.7056 120.392Z" fill="white"/>
<path d="M52.549 104.804C53.4803 103.382 54.0686 101.716 54.4607 100.098C55.196 96.7157 55.4411 93.2843 55.4901 89.853V88.5785C55.3431 87.3039 54.9019 85.9804 54.4117 84.8039C53.7745 83.2353 56.0784 82.2549 56.8137 83.8236C56.9117 84.0196 56.9117 84.3628 56.9117 84.5588C57.0588 91.2255 57.3529 99.8039 53.1372 105.343C52.8431 105.637 52.2549 105.196 52.549 104.804Z" fill="black"/>
<path d="M85.2939 99.902C86.0292 100.343 86.2743 100.931 86.3723 101.52C86.6665 102.696 86.5684 103.971 86.8625 105.196C87.1076 106.373 87.8429 107.5 88.039 108.726C88.2841 110 89.0194 112.696 89.3135 114.02C89.4116 114.314 89.2155 114.657 88.8723 114.706C88.6763 114.755 88.5292 114.706 88.3821 114.608C87.7449 114.069 87.4508 113.529 87.0586 112.843C86.4214 111.667 85.9802 110.588 85.588 109.265C85.2449 108.088 85.3919 106.814 85.0978 105.588C84.8527 104.412 84.1665 103.284 83.9214 102.059C83.7743 101.471 83.7253 100.833 84.1665 100.098C84.4606 99.804 84.9508 99.706 85.2939 99.902Z" fill="black"/>
<path d="M88.8235 112.843C79.4607 112.353 71.8137 109.412 64.3627 96.1275C70.6372 101.667 78.0392 103.775 85.8333 104.755L86.8627 109.265C87.0588 110.049 88.2352 112.353 88.8235 112.843Z" fill="black"/>
<path d="M88.4315 111.029C90.0982 114.167 91.0786 118.088 90.0492 121.569C89.2649 124.02 87.01 125.833 84.559 126.52C78.8727 128.039 72.3041 125.637 67.255 122.941C61.0296 119.461 56.4217 113.627 53.4805 107.255C53.2845 106.765 53.9707 106.373 54.2649 106.863C55.2943 108.922 56.4707 110.931 57.7943 112.745C59.1178 114.608 60.6374 116.324 62.3531 117.843C67.3531 122.353 74.1178 125.147 80.8825 125.147C87.8433 124.951 90.4903 121.275 88.8727 114.51C88.6276 113.431 88.2354 112.304 87.6962 111.373C87.4021 110.98 88.1374 110.539 88.4315 111.029Z" fill="black"/>
<path d="M107.402 52.1569C108.284 56.2745 108.726 59.6079 106.324 70.5883C103.971 81.5196 108.53 92.549 96.9609 102.598C89.1668 109.363 75.5393 110.637 64.657 103.235C60.9805 100.735 60.0001 89.0686 57.1079 84.6079C55.8825 82.7451 55.1472 85.7353 52.353 82.6471C48.4805 78.4314 43.8236 69.951 46.1275 54.951C49.853 30.6373 69.1177 27.7941 83.3825 30.4902C97.6962 33.1863 105.049 41.3235 107.402 52.1569Z" fill="white"/>
<path d="M54.7549 86.9608C53.6274 85.0981 52.2058 83.4804 50.8823 81.7647C48.9215 79.1177 47.4509 76.0785 46.4705 72.9412C42.2549 59.5098 44.5098 42.0098 56.9607 33.6275C68.4804 25.8334 90.4902 28.1863 100.588 37.5981C105.637 42.1569 108.431 48.7745 109.02 55.4412C109.314 59.902 108.235 64.2157 107.304 68.5294C106.225 72.7451 105.98 76.9608 105.98 81.3236C105.931 85.6863 105.735 90.2451 104.069 94.3628C101.52 100.637 96.1764 105.735 89.7549 107.892C81.3235 110.833 71.3725 109.167 64.4607 103.529C64.1666 103.284 64.4607 102.892 64.8039 103.039C73.8725 108.186 85.7843 109.069 94.6078 103.137C99.8529 99.6079 103.48 94.0196 104.314 87.7451C105 83.4804 104.804 79.1667 105.196 74.853C105.343 72.9412 105.882 70.2941 106.274 68.3824C106.863 65.1961 107.255 62.0098 107.206 58.8236C107.157 55.6863 106.471 52.5981 105.539 49.6079C102.304 38.9706 93.0392 32.6961 82.3529 30.9804C66.3725 28.1863 52.4019 34.1177 48.2353 50.7353C46.4215 58.8726 45 67.8432 48.4313 75.7353C49.6568 78.7255 51.6666 81.2745 53.9705 83.4804L56.2254 85.8824C57.2058 86.8628 55.5392 88.1373 54.7549 86.9608Z" fill="black"/>
<path d="M60.5389 71.3725C60.5389 71.3725 59.0193 64.0196 51.8625 64.9019C45.686 65.6862 43.5291 80.4902 57.5487 84.6078" fill="white"/>
<path d="M56.9116 78.1862C55.7841 77.549 54.9998 76.4706 54.9508 75.147C54.9998 74.1666 55.1469 73.0392 54.9018 72.0588C54.7547 71.1274 53.7743 70.8823 53.039 70.9313C52.2547 71.0784 51.7645 72.0588 51.6175 72.8431C51.6175 72.8921 51.5685 73.0392 51.5685 73.0882C51.5194 73.3333 51.1273 73.3333 51.0292 73.0882C50.392 71.1764 51.8136 69.0686 53.8724 69.3137C56.7645 69.5098 57.1567 72.549 56.6175 74.8529C56.3234 75.8333 56.7155 76.7157 57.2547 77.549L57.3528 77.696C57.5979 77.9902 57.2057 78.3823 56.9116 78.1862Z" fill="black"/>
<path d="M96.1272 66.1765C96.8625 69.6569 98.2351 72.8922 99.9508 75.9314C101.47 79.6569 97.5488 83.1863 94.0684 83.0392C93.6763 83.0392 93.6272 82.5 93.9704 82.402C96.1763 81.7157 98.1861 80.2451 98.5292 77.9902C98.6763 77.3039 98.4802 76.7157 98.137 76.1275C96.5194 73.0882 95.539 69.6078 95.7841 66.1765C95.7841 65.9314 96.1272 65.9314 96.1272 66.1765Z" fill="black"/>
<path d="M60.2941 71.4216C59.1666 68.5294 56.7156 65.7843 53.4313 65.8334C53.1372 65.7843 52.647 65.8824 52.3529 65.8824C51.5196 65.9314 50.8333 66.2255 50.196 66.8138C47.0588 69.951 47.598 75.4902 50.147 78.9706C51.0294 80.1961 52.1568 81.2745 53.4313 82.1569C54.7058 83.0392 56.1274 83.7255 57.647 84.3137C57.9902 84.4118 57.8431 84.951 57.5 84.902C54.2156 84.2157 51.0784 82.5981 48.9215 79.902C45.5882 75.8824 44.9019 69.1667 48.8725 65.2451C49.7549 64.4608 50.9804 63.8726 52.2058 63.8726C52.598 63.8726 53.1862 63.7745 53.5784 63.8726C55.6372 63.9706 57.598 65 58.8725 66.6177C60 67.9902 60.6372 69.6569 60.8333 71.3236C60.8333 71.6177 60.3921 71.7157 60.2941 71.4216Z" fill="black"/>
<path d="M92.549 87.9902C92.451 88.8236 92.402 89.4118 92.2549 89.902C91.6667 92.5 90.4902 91.2255 88.3333 91.2745C85.6373 91.3236 81.0294 93.9216 80.049 90.4412C79.853 89.8039 79.7549 89.2157 79.7059 88.6765C79.2157 83.7745 84.0196 85.3922 88.8235 87.2549C90.6863 88.0392 91.8628 88.0883 92.549 87.9902Z" fill="white"/>
<path d="M92.2551 90.2451L90.9806 89.951C90.7845 89.902 90.8335 89.6569 91.0296 89.6079L92.3531 89.5098C92.8433 89.5098 92.7943 90.3432 92.2551 90.2451Z" fill="black"/>
<path d="M94.0196 87.353C93.0882 88.8236 90.9804 88.2843 89.6079 87.8922C87.549 87.304 81.0294 83.9706 80 87.0098C79.7059 87.9902 79.902 89.1177 80.0981 90.1471C80.2451 90.8334 80.5392 91.5196 81.1765 91.8628C82.1569 92.353 83.2353 92.1079 84.2647 91.8138C85.7353 91.4216 87.0588 90.7843 88.6275 90.7843C89.4118 90.7843 90.1961 91.0294 90.7843 91.0294C91.0784 91.0294 91.1765 90.9804 91.3235 90.8334C91.4706 90.6863 91.6177 90.3432 91.7157 90.049C91.9118 89.4118 92.0588 88.6765 92.2059 87.9902C92.2549 87.7941 92.402 87.6961 92.598 87.7451C92.7451 87.7941 92.8431 87.8922 92.8431 88.0392C92.8431 88.5785 92.7941 89.1667 92.7451 89.7059C92.451 91.7647 91.6667 92.451 89.5588 91.9608C87.0098 91.5687 84.7059 92.7942 82.0588 92.5491C81.2745 92.5 80.3922 92.0589 79.902 91.3236C79.6569 90.9804 79.5098 90.5392 79.3628 90.2451C78.9216 89.1177 78.4314 87.8432 78.7255 86.5687C79.951 82.6471 85.2941 84.951 87.8432 86.0294C89.2647 86.6177 92.3039 88.3334 93.5294 87.0098C93.7745 86.8628 94.1177 87.1079 94.0196 87.353Z" fill="black"/>
<path d="M79.8041 88.0883C80.9806 88.0393 83.0884 87.304 83.9708 88.5785C84.1179 88.7746 84.1669 88.8236 84.412 88.8236C84.7551 88.7746 85.1963 88.5295 85.5884 88.7256C86.2257 88.8726 86.912 89.0197 87.5492 89.1667C87.6963 89.2158 87.7943 89.3138 87.7453 89.4609C87.6963 89.6079 87.5982 89.706 87.4512 89.6569C86.7159 89.5589 85.9806 89.5589 85.2453 89.3628C84.9022 89.5099 84.3139 89.755 83.8237 89.5589C83.5296 89.4609 83.2845 89.1667 83.0884 88.9707C82.9904 88.8726 82.7943 88.8726 82.6473 88.8726C81.7159 88.8236 80.7355 89.2158 79.8041 89.3628C78.8237 89.4609 78.7747 87.9412 79.8041 88.0883Z" fill="black"/>
<path d="M82.157 68.5294C79.5099 68.3333 77.0589 67.2059 75.0001 65.5392C74.608 65.2451 75.0491 64.6568 75.4413 64.951C76.9609 65.9314 78.6276 66.6176 80.4413 66.9117C81.0295 67.0098 81.6668 67.0588 82.206 67.0588C83.1864 67.0588 83.1864 68.5784 82.157 68.5294Z" fill="black"/>
<path d="M96.5683 67.8431C98.0879 67.647 99.8526 67.4019 101.029 66.3235C101.127 66.1764 101.372 66.1764 101.47 66.3235C101.911 66.7647 100.784 67.5 100.49 67.7451C99.3624 68.4804 98.0879 68.9706 96.8134 69.3137C96.4213 69.4117 96.0291 69.1666 95.9311 68.7745C95.784 68.3333 96.1271 67.8921 96.5683 67.8431Z" fill="black"/>
<path d="M84.5097 64.0196C85.4411 64.5588 86.6176 63.8235 86.6666 62.696C86.6666 62.1078 86.5685 61.4706 86.1764 60.9313C84.9999 59.3627 79.2646 56.9607 75.294 57.9902C71.8627 58.8725 80.245 61.5686 84.5097 64.0196Z" fill="black"/>
<path d="M99.5586 64.6078C98.8723 65.147 97.7448 64.5097 97.5978 63.4803C97.4997 62.9411 97.5488 62.3529 97.7939 61.8627C98.5782 60.3921 102.206 58.3823 105.147 59.3627C107.696 60.294 102.843 62.2058 99.5586 64.6078Z" fill="black"/>
<path d="M76.6176 66.1274C76.2254 66.4705 75.9803 67.0098 75.9313 67.549L75.8823 68.9215C75.8333 70.098 76.7156 71.0784 77.8431 71.1274C79.0195 71.1764 79.9999 70.2941 80.0489 69.1666L80.098 67.7941C80.098 67.7451 80.098 67.696 80.098 67.647C78.7744 67.549 77.696 67.0098 76.6176 66.1274Z" fill="black"/>
<path d="M96.7154 68.4804C96.7154 68.5294 96.7154 68.5294 96.7154 68.5784L96.6664 69.8529C96.6174 70.9314 97.4507 71.8627 98.5292 71.9117C99.6076 71.9608 100.539 71.1274 100.588 70.049L100.637 68.7745C100.686 68.2843 100.49 67.8431 100.245 67.5C99.1664 68.1372 97.9409 68.2843 96.7154 68.4804Z" fill="black"/>
<path d="M107.794 53.9706C107.696 53.3824 107.549 52.7942 107.451 52.1569C106.912 49.755 106.128 47.5 105.098 45.3922L99.3138 47.7942C97.6471 48.4804 95.7844 48.6765 93.9707 48.3824L71.0295 44.4118C68.2354 43.9216 65.5393 45.5393 64.6079 48.1863C63.9217 50.0981 62.8432 52.7942 61.9609 54.7059C55.0001 55.8334 52.6962 54.1667 47.1079 51.5687C46.6668 51.3726 46.0295 50.7353 45.5393 50.4902C46.4217 46.0295 43.0393 27.402 47.255 22.5491C48.6766 20.9314 50.0981 20.7353 51.4707 21.2255C54.6569 22.353 53.3334 21.7157 55.6373 19.2648C57.5001 17.353 59.853 15.6863 62.7452 15.6373C64.1668 15.5883 65.2942 15.8824 66.2256 16.4216C69.1668 18.0393 72.7452 17.5001 75.3922 15.4902C76.2256 14.902 77.1079 14.5099 78.0883 14.5099C79.5099 14.5099 80.7844 15.0981 81.8138 15.8824C83.7746 17.353 86.3726 17.6961 88.7746 17.2059C88.9217 17.1569 89.0687 17.1569 89.2158 17.1569C89.804 17.1569 90.4413 17.304 90.9805 17.5491C93.0393 18.4314 95.3432 18.5295 97.402 17.6471C98.3824 17.255 99.5589 17.255 100.735 18.3824C102.206 19.804 104.118 20.7353 106.177 20.7844C106.716 20.7844 107.402 21.0295 108.235 21.5687C108.628 21.8628 108.971 22.402 109.216 23.1373C109.608 24.2648 110.539 25.0981 111.716 25.4412C112.451 25.6863 112.99 26.4216 113.137 28.0883C113.579 33.3334 109.02 49.7059 107.794 53.9706Z" fill="black"/>
<path d="M111.618 25.3431C109.461 26.1275 109.069 25.6863 106.618 25.049C104.167 24.4118 102.01 27.1569 100.245 24.3137C97.6964 20.1471 92.9906 22.9902 92.0592 22.2059C91.1278 21.4216 88.2357 18.8235 84.167 21.5686C81.471 23.3824 78.0396 20.1471 73.7259 20.1471C65.0984 20.1471 63.5298 26.4706 60.5396 23.5784C57.5494 20.7353 59.2651 22.6471 54.8533 23.4314C50.4415 24.2157 48.1866 21.5686 48.1866 21.5686C49.2651 20.8333 50.3435 20.8333 51.3729 21.1765C54.5592 22.3039 53.2357 21.6667 55.5396 19.2157C57.4023 17.3039 59.7553 15.6373 62.6474 15.5882C64.069 15.5392 65.1964 15.8333 66.1278 16.3726C69.069 17.9902 72.6474 17.451 75.2945 15.4412C76.1278 14.8529 77.0102 14.4608 77.9906 14.4608C79.4121 14.4608 80.6866 15.049 81.7161 15.8333C83.6768 17.3039 86.2749 17.6471 88.6768 17.1569C88.8239 17.1078 88.971 17.1078 89.118 17.1078C89.7063 17.1078 90.3435 17.2549 90.8827 17.5C92.9415 18.3824 95.2455 18.4804 97.3043 17.598C98.2847 17.2059 99.4612 17.2059 100.638 18.3333C102.108 19.7549 104.02 20.6863 106.079 20.7353C106.618 20.7353 107.304 20.9804 108.138 21.5196C108.53 21.8137 108.873 22.3529 109.118 23.0882C109.51 24.1667 110.442 25 111.618 25.3431Z" fill="black"/>
<path d="M60.1473 68.7745C60.1473 69.0686 59.7551 69.2157 59.6081 68.9216C58.4806 66.8627 56.2257 64.3627 51.912 64.902C46.7159 65.5392 44.363 76.0784 52.01 81.8627C53.8238 83.1863 55.7355 83.9216 56.3238 84.1667C56.4708 84.2157 56.5198 84.3627 56.5198 84.4608L56.0296 87.8922C55.9806 88.0882 55.7845 88.2843 55.6375 88.1372C53.9218 86.1765 53.2355 85.098 49.1179 80.8333C46.1277 77.7451 42.7453 73.3823 42.3041 66.1274C41.961 59.7549 43.4806 54.7549 45.3924 50.6863C45.4414 50.5392 45.6375 50.4902 45.7845 50.5392C52.2551 53.5294 54.6571 55.2451 61.6179 54.2157C61.863 54.1667 62.01 54.4118 61.912 54.6078C61.1277 56.1274 60.3434 57.3529 59.51 57.9412C57.1081 59.8039 59.9022 64.3137 60.1473 68.7745Z" fill="#D6D6D6"/>
<path d="M60.4904 68.7255C60.5394 69.5098 59.51 69.6569 59.2159 68.9706C58.2355 67.2059 56.6179 65.7843 54.6571 65.3922C52.4022 64.951 50.1473 65.4412 48.9218 67.598C46.6669 71.5196 47.8924 76.8627 51.0787 79.951C52.6473 81.3725 54.1669 83.3333 56.3728 83.9216C56.6179 83.9706 56.7649 84.2647 56.7159 84.4608V84.5098V84.6078V84.8529V85.2941C56.7159 86.0294 56.7159 87.0588 56.6669 87.7941C56.6669 88.5784 55.6375 89.1667 55.0983 88.4804C54.51 87.8922 53.6277 86.7157 53.0885 86.0294C50.0983 82.3039 46.2257 79.0686 44.2159 74.6078C41.1767 67.9412 41.814 60.098 44.2649 53.3823C44.6571 52.402 45.0002 51.3725 45.5394 50.4902C45.6865 50.3922 45.8336 50.4412 45.9806 50.5392C49.1669 51.9608 52.5492 53.9216 56.0787 54.3627C57.8924 54.5588 59.7061 54.4608 61.4708 54.2157C61.6179 54.2157 61.7649 54.1176 61.912 54.2157C62.3532 54.4608 61.7649 55.1471 61.6669 55.4902C61.2257 56.4706 60.6865 57.5 59.9022 58.2353C58.3336 59.7549 60.2943 62.9412 60.4904 64.902C60.5885 66.2255 60.3924 67.5 60.4904 68.7255ZM59.7551 68.7745C59.7061 67.598 58.9708 66.5196 58.4806 65.4412C57.7453 63.3333 56.961 60.9314 57.7943 58.6765C58.0885 57.9902 58.6767 57.451 59.2649 57.0588C60.0492 56.3235 60.7355 55.3431 61.2257 54.3627C61.0787 54.5588 61.2747 55.098 61.6669 55.049C55.0492 56.1765 51.4708 54.1176 45.5885 51.3235L45.4904 51.2745C45.6865 51.3725 45.9316 51.2745 46.0296 51.0784V51.0294C45.8826 51.3725 45.6865 51.7157 45.5394 52.1078C42.5492 58.9706 41.7649 67.3529 45.1473 74.2157C47.2551 78.5294 51.1277 81.5196 54.0689 85.2451C54.5591 85.8333 55.5885 87.0588 56.0787 87.6961C55.9316 87.5 55.4414 87.451 55.3434 87.6961L55.2943 87.7941C55.3434 87.549 55.3924 87.2549 55.4904 87.0098C55.6865 86.2255 55.9806 85.2451 56.1767 84.4118C56.1767 84.3627 56.1767 84.3627 56.1767 84.3627C55.7355 84.1667 55.2453 83.9706 54.8042 83.7745C53.6767 83.2843 52.4022 83.0392 51.3238 82.3529C47.6963 79.8529 45.6865 75 46.5689 70.5882C47.1081 67.451 49.412 64.1176 52.9414 64.4118C55.8336 64.3627 58.5296 66.0784 59.8532 68.6274L59.9022 68.7255C59.8532 68.6765 59.8041 68.6765 59.7551 68.7745Z" fill="black"/>
<path d="M60.1963 57.3529C59.9512 57.598 59.7551 57.8431 59.51 57.9902C58.9218 58.4314 58.6277 59.0686 58.5296 59.8039C55.4904 59.951 51.1277 58.6765 49.6081 58.1863C49.2649 58.0882 49.0688 57.7941 49.0688 57.451V57.2059C49.0688 56.6667 49.559 56.3235 50.0492 56.4216C53.4806 57.3529 60.0002 57.3529 60.1963 57.3529Z" fill="black"/>
<path d="M59.2161 63.9216C56.52 63.7255 53.9219 63.2353 52.7455 62.9902C52.3533 62.8922 52.1082 62.5981 52.1082 62.2059C52.1082 61.7157 52.5494 61.3726 53.0396 61.4216C55.2455 61.7647 57.5984 61.7157 58.7259 61.6667C58.7749 62.353 58.971 63.0882 59.2161 63.9216Z" fill="black"/>
<path d="M55.0491 72.8922C55.0491 72.8922 51.1275 72.3039 51.4216 77.7941C51.5687 80.5882 51.5687 82.1078 51.5196 82.8922C51.4706 83.4314 51.8138 83.9216 52.304 84.1176C52.8922 84.3627 53.5294 84.1176 53.8236 83.5294C54.2647 82.7451 54.7549 81.6667 54.7549 80.7843C54.7549 79.3137 56.3236 77.9902 56.3236 77.9902C56.3236 77.9902 54.902 76.7647 55.0491 72.8922Z" fill="white"/>
<path d="M54.902 73.0392C54.902 73.0882 54.951 73.1372 55 73.1372C55 73.1372 55 73.1372 54.951 73.1372H54.853C52.5 73.3333 51.7647 75.3922 51.8628 77.5C51.9118 78.8725 52.0098 80.2451 51.9608 81.5686C52.0589 82.3039 51.6177 83.2843 52.353 83.6765C52.7941 83.9216 53.3824 83.7255 53.5785 83.2353C54.0196 82.3529 54.4608 81.4706 54.4608 80.4902C54.6569 79.3627 55.3922 78.4804 56.1765 77.7941V78.1863C55.1471 77.1078 54.902 75.6372 54.7549 74.2647C54.804 73.9216 54.804 73.3823 54.902 73.0392ZM55.2451 72.6961C55.3922 74.0686 55.3922 75.4902 55.9804 76.7157C56.1275 77.0588 56.3726 77.451 56.6667 77.6961C56.8628 77.8431 56.8628 78.1372 56.6667 78.2843C55.9804 78.9216 55.3922 79.7059 55.2941 80.5882C55.2941 81.6667 54.853 82.6961 54.3628 83.6274C53.9706 84.4608 52.8432 84.902 52.0098 84.4118C51.4706 84.1176 51.0785 83.5294 51.0785 82.8922C51.0785 82.402 51.1275 82.0098 51.1275 81.5196C51.1275 80.1471 51.0294 78.8235 50.9804 77.451C50.9804 76.5686 51.0294 75.5392 51.4216 74.6569C51.9118 73.2843 53.4314 72.3529 54.902 72.598C55.049 72.598 55.1961 72.6471 55.2451 72.6961Z" fill="black"/>
<path d="M54.4118 130.931C56.0294 123.873 53.9216 115.931 52.1079 108.873C51.3726 106.078 50.6373 103.431 50.2941 101.127C49.6569 97.2549 50.0981 93.5784 51.6667 90.1471C53.5785 85.8824 53.2843 82.2549 53.2843 82.1078L52.3039 82.2059C52.3039 82.2549 52.5981 85.7843 50.7843 89.7549C49.1667 93.3333 48.6765 97.2059 49.3138 101.275C49.7059 103.627 50.3922 106.324 51.1275 109.118C52.9412 116.029 55 123.873 53.4314 130.686C52.549 134.461 54.2647 140.637 56.7157 146.814C57.1079 146.863 57.451 146.912 57.8432 146.961C55.3432 140.784 53.5785 134.559 54.4118 130.931Z" fill="black"/>
<path d="M51.5687 80.6372C51.6177 81.7157 51.5687 82.451 51.5687 82.8921C51.5196 83.4314 51.8628 83.9216 52.353 84.1176C52.9412 84.3627 53.5785 84.1176 53.8726 83.5294C54.3138 82.7451 54.8039 81.6667 54.8039 80.7843C54.8039 80.7353 54.8039 80.6372 54.8039 80.5882C53.8236 80.9804 52.6471 81.2745 51.5687 80.6372Z" fill="white"/>
<path d="M51.7157 80.8333C51.7647 81.5196 51.8138 82.1569 51.8138 82.8431C51.7647 83.1372 51.8628 83.4314 52.0589 83.6765C52.6961 84.3137 53.5785 83.9216 53.8236 83.1372C54.2157 82.3529 54.5589 81.5196 54.5589 80.6373L54.902 80.8823C53.8236 81.0784 52.6961 81.3725 51.6667 80.9314C51.6667 80.9314 51.7157 80.8823 51.7157 80.8333ZM51.4706 80.3922C51.5687 80.3922 51.7647 80.4412 51.8628 80.5392C52.7451 81.1765 53.8726 80.8823 54.7549 80.3922C54.902 80.2941 55.1471 80.4412 55.0981 80.6373C55.0491 81.7647 54.6079 82.8431 54.0196 83.8235C53.4804 84.5588 52.353 84.6078 51.7157 83.9706C51.4216 83.6765 51.2745 83.1863 51.3236 82.7941C51.3236 81.9608 51.4216 81.1765 51.4706 80.3922Z" fill="black"/>
<path d="M97.7451 113.235C98.5785 107.451 97.7942 103.333 97.5 102.108C97.353 102.206 97.2549 102.353 97.1079 102.451C96.9608 102.598 96.8138 102.696 96.6667 102.843C96.9608 104.412 97.5 108.137 96.7647 113.088C96.4216 115.392 96.3236 119.02 96.2745 123.235C96.1765 127.304 94.902 137.451 93.3824 147.059C93.7255 146.961 94.0687 146.863 94.4118 146.814C95.9314 137.304 97.1569 127.353 97.2549 123.284C97.353 119.069 97.402 115.49 97.7451 113.235Z" fill="black"/>
<path d="M141.275 41.3235C171.029 98.6274 118.725 163.284 56.3725 147.5C28.3824 140.539 5.88235 116.275 1.22549 87.7941C-4.06863 59.4608 8.72549 29.0196 32.6471 12.9902C65.4412 -9.55883 110.882 -2.05883 134.363 30.1961C134.51 30.3431 134.461 30.5882 134.265 30.7353C134.118 30.8823 133.873 30.8333 133.725 30.6372C130.49 26.4706 126.814 22.6961 122.794 19.3137C116.176 13.6765 108.431 9.2647 100.245 6.27451C58.5784 -8.82353 12.8431 16.2745 3.72549 59.8529C-6.56863 108.676 34.951 153.627 84.4608 146.912C122.647 142.108 151.029 106.863 147.892 68.5294C147.206 59.2647 144.755 50.098 140.686 41.6667C140.588 41.5196 140.686 41.3235 140.833 41.2255C140.98 41.1274 141.176 41.1765 141.275 41.3235Z" fill="black"/>
</g>
</svg>
