<svg width="150" height="150" viewBox="0 0 150 150" fill="none" xmlns="http://www.w3.org/2000/svg">
<mask id="mask0_73_1506" style="mask-type:alpha" maskUnits="userSpaceOnUse" x="0" y="0" width="150" height="150">
<circle cx="74.7541" cy="74.7541" r="74.7541" fill="#D9D9D9"/>
</mask>
<g mask="url(#mask0_73_1506)">
<path d="M115.735 136.471C115.392 136.716 115 136.961 114.657 137.206C114.265 137.451 113.922 137.696 113.53 137.892C113.186 138.088 112.892 138.284 112.549 138.48C112.5 138.529 112.451 138.529 112.402 138.578C111.275 139.265 110.098 139.902 108.922 140.49C108.579 140.686 108.186 140.882 107.843 141.029C107.843 141.029 107.794 141.078 107.745 141.078C107.353 141.275 106.961 141.471 106.569 141.667C105.784 142.059 104.951 142.402 104.167 142.745C103.775 142.941 103.333 143.088 102.941 143.235C102.549 143.382 102.108 143.578 101.716 143.726C101.324 143.873 100.882 144.069 100.49 144.216C100.49 144.216 100.49 144.216 100.441 144.216C100.049 144.363 99.6079 144.51 99.2158 144.657C98.3334 144.951 97.4021 145.245 96.5197 145.539C96.2256 145.637 95.8825 145.735 95.5883 145.833C94.657 146.127 93.7256 146.373 92.7942 146.569C92.4511 146.667 92.1079 146.716 91.7158 146.814C90.8334 147.01 89.9021 147.206 89.0197 147.402C88.8236 147.451 88.6766 147.451 88.4805 147.5C88.1864 147.549 87.8432 147.598 87.5491 147.647C87.1079 147.696 86.7158 147.794 86.2746 147.843C86.0785 147.892 85.8825 147.892 85.6864 147.941C85.4413 147.99 85.1472 148.039 84.853 148.039C84.0687 148.137 83.2354 148.235 82.4511 148.333C82.206 148.382 81.9119 148.382 81.6668 148.431H81.6177C81.2746 148.48 80.9315 148.48 80.5883 148.529C80.2452 148.578 79.9021 148.578 79.5589 148.578C79.3628 148.578 79.1177 148.627 78.9217 148.627C78.5295 148.627 78.1864 148.676 77.8432 148.676C77.353 148.676 76.9119 148.726 76.4217 148.726C75.9315 148.726 75.4903 148.726 75.0001 148.726C74.657 148.726 74.3138 148.726 73.9707 148.726C53.2844 148.431 34.706 139.657 21.4217 125.735C21.4217 125.735 21.4217 125.686 21.3726 125.686C19.9021 124.363 21.1766 117.304 27.1079 112.843C34.5589 107.206 52.4021 103.676 52.4021 103.676C52.4021 103.676 59.3138 102.549 84.9511 107.892C99.9511 111.029 111.373 115.588 117.745 127.941C119.069 130.49 120.392 134.412 115.735 136.471Z" fill="white"/>
<path d="M85.0981 107.353C94.5099 109.265 104.559 111.324 112.304 117.549C114.902 119.657 116.618 122.745 118.039 125.735C118.726 127.206 119.412 128.726 119.951 130.343C120.245 131.422 120.686 132.647 120.441 133.922C120.392 134.265 120.098 134.706 119.853 134.951C118.726 136.078 117.5 136.765 116.275 137.647C109.069 142.647 100.784 146.177 92.206 148.039C73.0883 152.206 52.4021 148.971 35.5883 138.922C30.0001 135.539 24.853 131.422 20.4413 126.569C19.9511 125.98 19.9511 125 19.9511 124.363C20.0001 122.892 20.3923 121.471 20.8825 120.147C22.0589 117.108 23.5785 114.069 26.1766 111.961C28.0393 110.686 30.0491 109.608 32.1079 108.726C38.5785 105.98 45.3923 104.069 52.4021 103.284C52.9903 103.235 53.0883 104.069 52.5001 104.167C45.7844 105.539 39.1177 107.598 32.8923 110.392C30.6374 111.52 28.2354 112.5 26.4217 114.265C24.706 116.127 23.4805 118.431 22.5001 120.784C21.8628 122.206 21.4217 124.461 21.6177 125.588C24.706 129.265 28.3334 132.5 32.255 135.294C53.7256 150.294 86.3236 151.275 109.167 138.775C111.226 137.647 113.235 136.373 115.147 135.049C116.079 134.412 117.059 133.873 117.794 133.137C117.843 133.088 117.794 133.137 117.794 133.186C117.794 133.235 117.745 133.284 117.745 133.284C117.794 132.696 117.598 131.912 117.353 131.127C116.471 128.284 115.049 125.294 113.53 122.696C111.128 118.824 107.059 116.373 102.941 114.412C100.098 113.088 97.1079 112.059 94.0687 111.078C91.0295 110.098 87.9413 109.265 84.853 108.529C84.0687 108.333 84.3138 107.206 85.0981 107.353Z" fill="black"/>
<path d="M45.0491 94.951C45.0491 94.951 49.608 93.8726 51.5197 93.7255L52.108 99.0686C52.108 99.0196 45.0982 96.3235 45.0491 94.951Z" fill="black"/>
<path d="M122.647 166.863H8.03934C8.03934 166.863 15.3433 151.225 17.8923 133.578C19.657 121.275 21.7648 114.657 28.2844 110.735C35.6374 106.324 47.5001 104.314 52.304 103.039C52.304 103.284 52.3531 103.48 52.3531 103.725C52.3531 103.725 57.6472 119.461 71.4217 125.049C82.6472 129.608 89.3139 126.569 90.3433 121.52C90.9805 118.284 88.9707 112.99 87.9413 111.275C87.3531 110.784 86.9609 110.049 86.7648 109.314L86.3727 107.696C87.5982 107.451 88.7746 107.108 89.9021 106.667C96.2256 108.333 108.432 111.52 115.882 120.98C117.745 123.333 123.579 135.833 122.5 156.961C122.108 167.941 122.647 166.863 122.647 166.863Z" fill="black"/>
<path d="M32.304 166.863L30.0982 148.676" stroke="white" stroke-width="3" stroke-miterlimit="10" stroke-linecap="round" stroke-linejoin="round"/>
<path d="M117.942 142.5C117.942 142.5 116.471 146.078 116.912 149.657C117.353 153.235 118.628 158.48 116.814 166.863" stroke="white" stroke-width="3" stroke-miterlimit="10" stroke-linecap="round" stroke-linejoin="round"/>
<path d="M67.745 134.167C40.6372 126.324 33.8235 110.392 33.8235 110.392C33.8235 110.392 38.0882 107.745 40.098 105C41.3235 103.333 52.3529 101.422 52.3529 101.422C52.549 103.53 52.3529 101.422 52.4999 103.726C52.4999 103.726 57.7941 119.461 71.5686 125.049C82.7941 129.608 89.4607 126.569 90.4901 121.52C91.1274 118.284 89.1176 112.99 88.0882 111.275C87.4999 110.784 87.1078 110.049 86.9117 109.314L86.5195 107.696C89.3137 107.108 91.9607 106.03 94.2646 104.608C94.3627 104.755 94.4117 104.902 94.4607 105.049C95.4901 107.549 98.6274 109.804 98.6274 109.804C105.147 125.294 95.3431 142.157 67.745 134.167Z" fill="black"/>
<path d="M100.588 109.118C100.588 109.118 102.843 108.039 105.098 108.284C107.353 108.529 118.088 117.206 119.118 119.02C120.196 120.833 120.147 126.618 118.873 127.353C117.598 128.088 116.863 126.471 116.863 126.471C116.863 126.471 117.794 121.176 116.765 120.196C115.735 119.216 105.784 110.882 105.441 110.833C105.098 110.784 103.235 112.353 103.235 112.353L100.588 109.118Z" fill="black"/>
<path d="M41.1766 106.127C41.1766 106.127 36.0786 103.529 34.1668 103.529C32.255 103.529 21.1276 110.392 19.608 113.971C18.0884 117.549 20.1472 124.755 20.1472 124.755L22.8433 121.667C22.8433 121.667 22.108 116.275 22.8923 114.314C23.6766 112.353 32.5492 106.569 33.3335 106.716C34.1178 106.814 38.4805 109.608 38.4805 109.608L41.1766 106.127Z" fill="black"/>
<path d="M52.7452 115.588C57.4511 124.608 66.8629 136.618 82.5982 142.255C96.7648 147.353 95.8825 130.245 93.8236 120C79.706 123.088 65.5393 123.333 52.7452 115.588Z" fill="white"/>
<path d="M93.8234 120.049C93.2842 117.353 92.647 115.147 92.2058 113.922C91.2254 111.274 89.7548 108.922 88.4313 107.157C87.794 107.353 87.1568 107.5 86.5195 107.647L86.9117 109.265C87.1078 110.049 87.4999 110.735 88.0881 111.225C88.1862 111.422 88.3332 111.667 88.4803 111.961C77.3528 116.274 64.2156 110.588 64.2156 110.588C60.245 110.392 60.5391 114.314 62.4019 118.971C55.343 112.255 52.4509 103.725 52.4509 103.725C52.3529 102.255 52.2548 100.833 52.1078 99.4117C52.1078 99.4117 48.4803 101.422 49.1176 105.931C49.4117 107.843 50.5391 111.422 52.745 115.588C65.5391 123.333 79.7058 123.088 93.8234 120.049Z" fill="white"/>
<path d="M93.6274 119.902C93.4803 119.657 93.4313 119.51 93.3332 119.216C92.745 117.304 92.1078 115.294 91.2254 113.529C90.196 111.471 88.8725 109.608 87.4019 107.892L88.7744 108.333L86.7646 108.873L87.745 107.353C87.843 107.794 88.0881 108.824 88.1862 109.216C88.3332 109.804 88.7744 110.196 89.1176 110.637C89.0685 111.029 89.0195 111.422 88.9215 111.765C89.0195 112.059 88.9215 112.402 88.6274 112.549C87.2058 113.235 85.6372 113.774 84.0685 114.118C78.2842 115.294 72.4019 113.971 66.8627 112.353C65.7842 112.01 64.8038 111.765 63.6274 111.863L64.0685 111.961C63.7744 111.961 63.4313 111.961 63.1372 112.059C61.6666 112.5 62.3529 115.049 62.647 116.274C62.8921 117.059 63.1372 117.843 63.4803 118.627C63.7744 119.265 63.4313 120 62.794 120.294C62.3038 120.49 61.8136 120.343 61.4705 120C60.343 118.873 59.2646 117.745 58.2842 116.52C55.294 112.794 52.9411 108.725 51.2254 104.265L52.4019 105.098C51.7156 105.098 51.1764 104.559 51.1274 103.922L50.7842 99.6568L52.647 100.637C50.4411 101.961 49.8038 104.706 50.5391 107.059C51.2744 109.804 52.4509 112.549 53.7744 115.098L53.2842 114.608C65.196 122.598 80.0489 123.235 93.6274 119.902ZM94.0195 120.147C92.4019 121.324 89.6078 122.304 87.5489 122.745C82.696 123.824 77.5979 123.186 72.745 122.402C71.2254 122.157 69.0195 121.863 67.4509 121.618L64.8529 121.078C61.3725 120.245 57.9411 119.118 54.6078 117.745L53.3823 117.206L52.1078 116.667C51.9607 116.618 51.8136 116.471 51.7156 116.324C50.0979 113.186 48.6274 109.902 47.9411 106.373C47.3038 103.284 48.7744 99.9019 51.5195 98.2843C52.3038 97.8431 53.3332 98.3823 53.3823 99.2647L53.7254 103.578C53.7254 103.578 52.4509 102.402 52.4999 102.402C53.0391 102.402 53.5293 102.745 53.6764 103.235C55.196 107.353 57.4999 111.324 60.294 114.755C61.2254 115.931 62.2548 116.961 63.2842 118.039L61.2744 119.412C60.294 116.765 58.9705 113.382 60.7352 110.735C61.5685 109.657 62.9901 109.265 64.3136 109.314L64.7548 109.412C65.4411 110.294 66.4215 110.686 67.3528 110.98C72.1568 112.549 77.3529 112.843 82.4019 112.451C84.4117 112.255 86.3725 111.863 88.3332 111.373L88.0391 112.157C87.696 112.01 87.4019 111.912 87.0587 111.863L87.3038 112.157C86.3725 111.373 85.7842 110.049 85.5881 108.873L85.343 107.892C85.196 107.206 85.6372 106.52 86.3234 106.373L88.1372 105.931H88.2352C88.7254 105.784 89.2646 106.029 89.5097 106.422C91.4705 109.461 92.9411 112.892 93.5783 116.471C93.7744 117.304 93.8725 118.235 94.0195 119.118C93.9705 119.412 94.0195 119.853 94.0195 120.147Z" fill="black"/>
<path d="M45.0491 94.951C45.0491 94.951 57.157 95.3431 66.3727 97.7941C67.255 98.0392 67.255 103.726 67.3531 104.657C67.6962 107.99 60.7354 113.676 61.5197 116.667C62.5491 120.539 90.3433 142.304 90.5884 144.853C90.8335 147.402 70.4413 146.765 58.3335 132.255C46.1766 117.745 47.108 115.098 47.108 115.098C47.108 115.098 45.0491 101.176 45.0491 94.951Z" fill="black"/>
<path d="M99.4119 100.196L102.549 101.52C103.53 101.912 104.02 103.039 103.677 104.069C102.255 108.382 98.7256 119.118 98.5786 122.843C98.3825 127.549 88.6766 157.794 88.6766 157.794C88.6766 157.794 82.7452 150 87.108 142.304C90.5393 136.225 90.7354 123.235 90.3923 121.52C89.9511 119.265 88.0884 113.971 87.059 110.637C86.5197 108.824 86.4217 107.696 86.4217 107.696C86.4217 107.696 93.1864 106.569 99.4119 100.196Z" fill="black"/>
<path d="M62.9411 108.235C63.7262 108.235 64.3627 107.511 64.3627 106.618C64.3627 105.724 63.7262 105 62.9411 105C62.156 105 61.5195 105.724 61.5195 106.618C61.5195 107.511 62.156 108.235 62.9411 108.235Z" fill="white"/>
<path d="M88.1864 140.882C87.7943 143.529 87.4021 146.225 87.5982 148.922C88.2354 152.892 88.4805 156.863 88.8237 160.833C88.8727 161.814 87.4511 161.912 87.3531 160.931C87.206 156.961 87.108 152.941 86.6178 148.971C86.5197 146.176 87.0099 143.431 87.5492 140.735C87.6472 140.392 88.2354 140.49 88.1864 140.882Z" fill="white"/>
<path d="M101.765 111.372C100.882 115.735 99.9019 120.147 98.2843 124.314C95.8333 129.51 92.5 134.216 89.6568 139.118C89.4117 139.559 88.7254 139.216 88.9215 138.774C91.2745 133.235 94.7058 128.284 97.0098 122.794C97.2058 122.206 98.2843 118.97 98.4803 118.333C99.2647 115.931 100.098 113.529 101.029 111.176C101.225 110.735 101.863 110.882 101.765 111.372Z" fill="black"/>
<path d="M94.9999 140.147C95.8933 140.147 96.6176 139.423 96.6176 138.529C96.6176 137.636 95.8933 136.912 94.9999 136.912C94.1065 136.912 93.3823 137.636 93.3823 138.529C93.3823 139.423 94.1065 140.147 94.9999 140.147Z" fill="white"/>
<path d="M89.7056 120.392C88.6761 125.441 82.0095 128.48 70.784 123.922C59.1173 119.216 54.0683 107.99 52.7938 104.657C59.7056 91.7157 54.9016 82.7451 54.9016 82.7451C70.833 81.3726 84.7546 100 84.7546 100L86.9114 109.216C87.1075 110 87.4997 110.686 88.0879 111.176C89.1173 112.99 90.3428 117.157 89.7056 120.392Z" fill="white"/>
<path d="M52.5489 104.804C53.4803 103.382 54.0685 101.716 54.4607 100.098C55.196 96.7157 55.4411 93.2844 55.4901 89.853V88.5785C55.343 87.304 54.9019 85.9804 54.4117 84.804C53.7744 83.2353 56.0783 82.2549 56.8136 83.8236C56.9117 84.0196 56.9117 84.3628 56.9117 84.5589C57.0587 91.2255 57.3528 99.804 53.1371 105.343C52.843 105.637 52.2548 105.196 52.5489 104.804Z" fill="black"/>
<path d="M85.2938 99.902C86.0291 100.343 86.2742 100.931 86.3723 101.52C86.6664 102.696 86.5684 103.971 86.8625 105.196C87.1076 106.373 87.8429 107.5 88.0389 108.726C88.284 110 89.0193 112.696 89.3135 114.02C89.4115 114.314 89.2154 114.657 88.8723 114.706C88.6762 114.755 88.5291 114.706 88.3821 114.608C87.7448 114.069 87.4507 113.529 87.0586 112.843C86.4213 111.667 85.9801 110.588 85.588 109.265C85.2448 108.088 85.3919 106.814 85.0978 105.588C84.8527 104.412 84.1664 103.284 83.9213 102.059C83.7742 101.471 83.7252 100.833 84.1664 100.098C84.4605 99.804 84.9507 99.706 85.2938 99.902Z" fill="black"/>
<path d="M88.8234 112.843C79.4607 112.353 71.8136 109.412 64.3626 96.1275C70.6372 101.667 78.0391 103.775 85.8332 104.755L86.8626 109.265C87.0587 110.049 88.2352 112.353 88.8234 112.843Z" fill="black"/>
<path d="M88.4314 111.029C90.0981 114.167 91.0785 118.088 90.0491 121.569C89.2648 124.02 87.0099 125.833 84.5589 126.52C78.8726 128.039 72.304 125.637 67.255 122.941C61.0295 119.461 56.4216 113.627 53.4805 107.255C53.2844 106.765 53.9707 106.373 54.2648 106.863C55.2942 108.922 56.4707 110.931 57.7942 112.745C59.1177 114.608 60.6373 116.324 62.353 117.843C67.353 122.353 74.1177 125.147 80.8824 125.147C87.8432 124.951 90.4903 121.275 88.8726 114.51C88.6275 113.431 88.2354 112.304 87.6962 111.373C87.402 110.98 88.1373 110.539 88.4314 111.029Z" fill="black"/>
<path d="M107.402 52.1569C108.284 56.2745 108.725 59.6079 106.323 70.5883C103.97 81.5196 109.706 83.7745 96.1273 101.275C90.5881 108.431 77.1568 106.422 66.2744 99.0196C62.5979 96.5196 61.0293 90.0981 58.2842 85.5392C56.1273 81.9608 55.1469 85.6863 52.3038 82.5981C48.4313 78.3824 43.7744 69.902 46.0783 54.902C49.8038 30.5883 69.0685 27.7451 83.3332 30.4412C97.696 33.1863 105.049 41.3236 107.402 52.1569Z" fill="white"/>
<path d="M54.7548 86.9608C53.6274 85.049 52.1568 83.3824 50.7842 81.6177C49.4607 79.804 48.3823 77.7941 47.4999 75.7353C41.6666 61.4216 43.9215 41.2745 58.2352 32.8432C64.1666 29.4118 71.3234 28.5785 77.9901 29.1177C92.2548 30.1471 105.343 36.7157 108.431 51.8138C110.098 58.4804 107.843 65.3432 106.569 71.8628C105.98 75.0981 106.47 78.4314 106.421 81.7647C106.372 85.1471 105.441 88.5294 104.167 91.6667C103.382 93.8236 102.01 95.7353 100.588 97.5C98.2352 100.343 95.8823 103.235 92.8921 105.441C92.2058 105.931 90.9803 106.177 90.147 106.275C87.843 106.618 85.5881 106.716 83.2842 106.569C74.2646 106.176 64.6077 101.814 60.9803 93.0883C60.8332 92.7451 61.3234 92.5 61.5195 92.7941C66.2254 100.245 74.8528 103.922 83.4313 104.412C86.0783 104.559 88.7744 104.51 91.3724 103.971C92.647 103.333 93.7744 102.206 94.8528 101.176C97.4999 98.5294 100.196 95.6863 102.108 92.451C104.412 88.0883 105.686 83.3334 105.294 78.3824C105.196 76.1765 105.147 73.8726 105.588 71.6667C105.98 69.4608 106.47 67.353 106.765 65.0981C107.059 62.9412 107.206 60.7353 107.206 58.5785C106.961 52.2549 104.902 45.7353 100.882 40.8334C92.0097 29.804 71.0293 26.9118 59.2156 34.4608C51.7646 39.0687 48.2842 47.6961 47.1568 56.0785C45.4411 66.1275 45.9313 76.0294 53.9215 83.3334L56.2744 85.7843C57.2058 86.8628 55.5391 88.1373 54.7548 86.9608Z" fill="black"/>
<path d="M60.5389 71.3725C60.5389 71.3725 59.0193 64.0196 51.8625 64.9019C45.686 65.6862 43.5291 80.4902 57.5487 84.6078" fill="white"/>
<path d="M56.9117 78.1863C55.7842 77.549 54.9999 76.4706 54.9509 75.1471C54.9999 74.1667 55.147 73.0392 54.9019 72.0588C54.7548 71.1275 53.7744 70.8824 53.0391 70.9314C52.2548 71.0785 51.7646 72.0588 51.6176 72.8432C51.6176 72.8922 51.5685 73.0392 51.5685 73.0883C51.5195 73.3334 51.1274 73.3334 51.0293 73.0883C50.3921 71.1765 51.8136 69.0686 53.8725 69.3137C56.7646 69.5098 57.1568 72.549 56.6176 74.853C56.3234 75.8334 56.7156 76.7157 57.2548 77.549L57.3528 77.6961C57.5979 77.9902 57.2058 78.3824 56.9117 78.1863Z" fill="black"/>
<path d="M96.1272 66.1765C96.8625 69.6569 98.2351 72.8922 99.9508 75.9314C101.47 79.6569 97.5488 83.1863 94.0684 83.0392C93.6763 83.0392 93.6272 82.5 93.9704 82.402C96.1763 81.7157 98.1861 80.2451 98.5292 77.9902C98.6763 77.3039 98.4802 76.7157 98.137 76.1275C96.5194 73.0882 95.539 69.6078 95.7841 66.1765C95.7841 65.9314 96.1272 65.9314 96.1272 66.1765Z" fill="black"/>
<path d="M60.294 71.4216C59.1666 68.5294 56.7156 65.7843 53.4313 65.8334C53.1372 65.7843 52.647 65.8824 52.3528 65.8824C51.5195 65.9314 50.8332 66.2255 50.196 66.8138C47.0587 69.951 47.5979 75.4902 50.147 78.9706C51.0293 80.1961 52.1568 81.2745 53.4313 82.1569C54.7058 83.0393 56.1273 83.7255 57.647 84.3138C57.9901 84.4118 57.843 84.951 57.4999 84.902C54.2156 84.2157 51.0783 82.5981 48.9215 79.902C45.5881 75.8824 44.9019 69.1667 48.8724 65.2451C49.7548 64.4608 50.9803 63.8726 52.2058 63.8726C52.5979 63.8726 53.1862 63.7745 53.5783 63.8726C55.6372 63.9706 57.5979 65 58.8724 66.6177C59.9999 67.9902 60.6372 69.6569 60.8332 71.3236C60.8332 71.6177 60.3921 71.7157 60.294 71.4216Z" fill="black"/>
<path d="M92.4019 87.8922C90.8823 89.1177 88.7745 89.1667 86.9608 88.7255C86.3725 88.5785 85.6863 88.4804 85.3431 87.8432C85 87.304 85.3431 86.6177 85.9804 86.5197C86.6176 86.3726 87.0098 86.6667 87.549 86.8138C88.9706 87.304 90.5392 87.5981 92.0098 87.1079C92.4019 87.0099 92.7941 87.5981 92.4019 87.8922Z" fill="black"/>
<path d="M87.0098 84.7549C88.0392 86.5687 86.5686 88.7255 84.8039 89.4118C84.4117 89.6079 82.549 90 82.598 89.2648C82.598 89.1667 82.6961 89.0687 82.7941 89.0197C84.5588 88.2353 85.8333 86.6177 86.1274 84.7549C86.1765 84.3628 86.7157 84.2647 86.9117 84.6079L87.0098 84.7549Z" fill="black"/>
<path d="M77.8433 71.1765C76.6668 71.1275 75.7844 70.1471 75.8825 68.9706L75.9315 67.598C75.9805 66.4216 76.9609 65.5392 78.1374 65.6373C79.3138 65.6863 80.1962 66.6667 80.0982 67.8431L80.0491 69.2157C80.0001 70.3431 79.0197 71.2255 77.8433 71.1765Z" fill="black"/>
<path d="M98.4803 71.9118C97.4019 71.8628 96.5686 70.9314 96.6176 69.853L96.6666 68.5785C96.7156 67.5001 97.647 66.6667 98.7254 66.7158C99.8039 66.7648 100.637 67.6961 100.588 68.7746L100.539 70.0491C100.49 71.1275 99.5588 71.9609 98.4803 71.9118Z" fill="black"/>
<path d="M82.255 68.5294C80.6374 67.451 78.8726 66.7157 76.9119 67.1079C76.2746 67.2059 75.6374 67.402 75.2452 67.8431C75.0981 68.0392 74.755 67.9902 74.755 67.6961C74.804 66.7157 75.6374 66.0784 76.4217 65.6863C77.9413 64.902 80.0491 65.049 81.4217 66.0784C81.9119 66.3726 83.5785 68.1863 82.6962 68.5784C82.5001 68.6765 82.4021 68.6275 82.255 68.5294Z" fill="black"/>
<path d="M96.2746 68.7745C96.2746 66.7157 98.8237 65.9804 100.392 66.7157C101.275 67.1079 101.912 67.8922 102.157 68.8235C102.255 69.1177 101.814 69.3628 101.618 69.1177C100.784 68.1373 99.3629 67.6471 98.2354 68.2353C97.8923 68.4314 97.8433 68.5784 97.7452 68.7745C97.7452 69.7549 96.3236 69.7059 96.2746 68.7745Z" fill="black"/>
<path d="M84.608 60.4412C85.6374 60.7843 86.6668 59.853 86.4707 58.7255C86.3727 58.1373 86.1276 57.549 85.6374 57.1079C84.1668 55.7843 78.0883 54.6079 74.4119 56.3235C71.1766 57.8922 79.9021 58.8726 84.608 60.4412Z" fill="black"/>
<path d="M99.265 61.2255C98.4317 61.5196 97.5493 60.6373 97.6964 59.6079C97.7454 59.0687 97.9415 58.5294 98.3336 58.1373C99.5101 56.9608 103.53 56.0294 106.079 57.8432C108.285 59.3628 103.089 59.8039 99.265 61.2255Z" fill="black"/>
<path d="M101.667 37.8432C99.1668 35.5392 96.0296 33.2843 92.206 31.7647C80.8825 27.1569 70.3433 27.3039 62.059 30.8824C61.8139 26.0785 60.5394 18.7255 54.9021 17.5C46.3727 15.5883 49.3139 24.902 51.961 30.7353C51.961 30.7353 41.7649 21.6177 37.3041 27.7941C33.0394 33.7255 43.7257 40.1961 43.7257 40.1961C43.7257 40.1961 27.8923 41.4706 31.2257 50.4902C33.1864 55.6863 39.7551 53.9706 45.0002 51.6177C40.7355 68.5294 48.1374 80.049 51.961 84.6569C55.8825 89.3628 56.2257 92.9412 56.2257 92.9412C58.2355 91.8138 55.8335 86.7647 55.9315 84.1177C43.6766 79.4118 45.8825 65.7353 51.8629 64.951C58.1374 64.1667 60.0982 69.7549 60.4413 71.1275C62.6962 68.4314 62.6962 65.8334 62.2551 63.1373C60.5394 53.2843 61.5198 47.9412 67.4511 46.6667C76.9119 44.6079 85.4413 49.4118 96.7158 50.9314C100.883 51.5196 103.481 47.6961 106.569 49.0687C106.912 50.0981 107.206 51.1275 107.451 52.2059C107.647 53.0392 107.794 53.8236 107.892 54.6569C108.383 47.7941 106.961 42.7451 101.667 37.8432Z" fill="black"/>
<path d="M141.275 41.3235C171.029 98.6275 118.725 163.284 56.3725 147.5C28.3824 140.539 5.88235 116.275 1.22549 87.7941C-4.06863 59.4608 8.72549 29.0196 32.6471 12.9902C65.4412 -9.55882 110.882 -2.05882 134.363 30.1961C134.51 30.3431 134.461 30.5882 134.265 30.7353C134.118 30.8824 133.873 30.8333 133.725 30.6373C130.49 26.4706 126.814 22.6961 122.794 19.3137C116.176 13.6765 108.431 9.26471 100.245 6.27451C58.5784 -8.82353 12.8431 16.2745 3.72549 59.8529C-6.56863 108.676 34.951 153.627 84.4608 146.912C122.647 142.108 151.029 106.863 147.892 68.5294C147.206 59.2647 144.755 50.098 140.686 41.6667C140.588 41.5196 140.686 41.3235 140.833 41.2255C140.98 41.1275 141.176 41.1765 141.275 41.3235Z" fill="black"/>
</g>
</svg>
