<svg width="150" height="150" viewBox="0 0 150 150" fill="none" xmlns="http://www.w3.org/2000/svg">
<mask id="mask0_73_1180" style="mask-type:alpha" maskUnits="userSpaceOnUse" x="0" y="0" width="150" height="150">
<circle cx="74.7541" cy="74.7541" r="74.7541" fill="#D9D9D9"/>
</mask>
<g mask="url(#mask0_73_1180)">
<path d="M115.735 136.471C115.392 136.716 115 136.961 114.657 137.206C114.265 137.451 113.922 137.696 113.53 137.892C113.186 138.088 112.892 138.284 112.549 138.48C112.5 138.529 112.451 138.529 112.402 138.578C111.275 139.265 110.098 139.902 108.922 140.49C108.579 140.686 108.186 140.882 107.843 141.029C107.843 141.029 107.794 141.078 107.745 141.078C107.353 141.275 106.961 141.471 106.569 141.667C105.784 142.059 104.951 142.402 104.167 142.745C103.775 142.941 103.333 143.088 102.941 143.235C102.549 143.382 102.108 143.578 101.716 143.726C101.324 143.873 100.882 144.069 100.49 144.216C100.49 144.216 100.49 144.216 100.441 144.216C100.049 144.363 99.6079 144.51 99.2158 144.657C98.3334 144.951 97.4021 145.245 96.5197 145.539C96.2256 145.637 95.8825 145.735 95.5883 145.833C94.657 146.127 93.7256 146.373 92.7942 146.569C92.4511 146.667 92.1079 146.716 91.7158 146.814C90.8334 147.01 89.9021 147.206 89.0197 147.402C88.8236 147.451 88.6766 147.451 88.4805 147.5C88.1864 147.549 87.8432 147.598 87.5491 147.647C87.1079 147.696 86.7158 147.794 86.2746 147.843C86.0785 147.892 85.8825 147.892 85.6864 147.941C85.4413 147.99 85.1472 148.039 84.853 148.039C84.0687 148.137 83.2354 148.235 82.4511 148.333C82.206 148.382 81.9119 148.382 81.6668 148.431H81.6177C81.2746 148.48 80.9315 148.48 80.5883 148.529C80.2452 148.578 79.9021 148.578 79.5589 148.578C79.3629 148.578 79.1177 148.627 78.9217 148.627C78.5295 148.627 78.1864 148.676 77.8432 148.676C77.353 148.676 76.9119 148.726 76.4217 148.726C75.9315 148.726 75.4903 148.726 75.0001 148.726C74.657 148.726 74.3138 148.726 73.9707 148.726C53.2844 148.431 34.706 139.657 21.4217 125.735C21.4217 125.735 21.4217 125.686 21.3726 125.686C19.9021 124.363 21.1766 117.304 27.1079 112.843C34.5589 107.206 52.4021 103.676 52.4021 103.676C52.4021 103.676 59.3138 102.549 84.9511 107.892C99.9511 111.029 111.373 115.588 117.745 127.941C119.069 130.49 120.392 134.412 115.735 136.471Z" fill="white"/>
<path d="M85.0981 107.353C94.5099 109.265 104.559 111.324 112.304 117.549C114.902 119.657 116.618 122.745 118.039 125.735C118.726 127.206 119.412 128.726 119.951 130.343C120.245 131.422 120.686 132.647 120.441 133.922C120.392 134.265 120.098 134.706 119.853 134.951C118.726 136.078 117.5 136.765 116.275 137.647C109.069 142.647 100.784 146.176 92.206 148.039C73.0883 152.206 52.4021 148.971 35.5883 138.922C30.0001 135.539 24.853 131.422 20.4413 126.569C19.9511 125.98 19.9511 125 19.9511 124.363C20.0001 122.892 20.3923 121.471 20.8825 120.147C22.0589 117.108 23.5785 114.069 26.1766 111.961C28.0393 110.686 30.0491 109.608 32.1079 108.726C38.5785 105.98 45.3923 104.069 52.4021 103.284C52.9903 103.235 53.0883 104.069 52.5001 104.167C45.7844 105.539 39.1177 107.598 32.8923 110.392C30.6374 111.52 28.2354 112.5 26.4217 114.265C24.706 116.127 23.4805 118.431 22.5001 120.784C21.8628 122.206 21.4217 124.461 21.6177 125.588C24.706 129.265 28.3334 132.5 32.255 135.294C53.7256 150.294 86.3236 151.275 109.167 138.775C111.226 137.647 113.235 136.373 115.147 135.049C116.079 134.412 117.059 133.873 117.794 133.137C117.843 133.088 117.794 133.137 117.794 133.186C117.794 133.235 117.745 133.284 117.745 133.284C117.794 132.696 117.598 131.912 117.353 131.127C116.471 128.284 115.049 125.294 113.53 122.696C111.128 118.824 107.059 116.373 102.941 114.412C100.098 113.088 97.1079 112.059 94.0687 111.078C91.0295 110.098 87.9413 109.265 84.853 108.529C84.0687 108.333 84.3138 107.206 85.0981 107.353Z" fill="black"/>
<path d="M132.01 166.863H8.03951C8.03951 166.863 15.3434 151.471 18.5787 133.922C20.8336 121.765 22.5003 114.657 28.8238 110.735C33.2846 107.99 45.8336 104.02 54.7552 102.745C58.3826 102.255 65.5885 101.716 71.814 102.206C76.5199 102.794 86.2258 105.539 89.9513 106.569C95.5395 108.137 107.647 112.794 112.99 117.696C115.098 119.657 120.098 129.461 123.334 143.676C127.059 159.853 132.01 166.863 132.01 166.863Z" fill="white"/>
<path d="M133.137 167.451C96.2256 167.745 44.4609 168.431 8.08836 168.382C7.00993 168.431 6.22562 167.206 6.71582 166.226C7.59817 164.363 8.4315 162.451 9.21582 160.49C12.7452 151.765 15.7354 142.794 17.5491 133.578C19.0197 126.373 20.1962 118.333 25.6374 112.892C27.157 111.373 29.0197 110.196 30.9315 109.314C34.804 107.549 38.7746 106.078 42.7942 104.804C50.8825 102.157 59.4609 101.029 67.9903 101.176C72.255 101.176 76.5688 101.863 80.7354 102.843C82.5491 103.186 85.0982 103.971 86.8629 104.461L88.3825 104.902C88.6766 105.049 88.7746 105.637 88.9217 105.931C89.0197 106.127 89.1178 106.176 89.2648 106.225C89.5099 106.275 89.9021 105.931 90.1472 106.029C95.0982 107.5 99.8531 109.657 104.412 112.059C107.647 113.873 110.981 115.637 113.628 118.284C115.932 121.225 117.794 124.51 119.51 127.843C123.677 136.422 124.853 146.127 128.039 155C129.216 158.382 130.588 161.765 132.255 164.951L132.598 165.588L132.794 165.931L132.892 166.078L132.941 166.176C133.235 166.373 133.333 167.108 133.137 167.451ZM130.882 166.275C130.637 166.569 130.686 167.206 130.882 167.451L130.833 167.353L130.735 167.157L130.539 166.814C128.53 163.284 127.108 159.51 125.833 155.686C122.5 145.686 121.422 135 116.716 125.49C115.539 123.088 114.363 120.637 112.598 118.627C111.569 117.696 110.441 116.912 109.265 116.176C103.971 112.941 98.0393 110.735 92.206 108.627C91.7158 108.431 90.4903 108.039 90.0001 107.892C89.608 107.794 89.4609 107.745 89.3629 107.255C89.2648 106.863 89.1668 106.373 88.7256 106.569C88.4805 106.667 88.0393 107.255 87.7452 107.206C86.7648 106.961 84.1668 106.275 83.1864 106.029C79.4119 105.049 75.6864 103.824 71.8629 103.088C60.0982 102.059 48.3335 104.118 37.108 107.598C33.2354 108.922 28.9707 110.147 26.1766 113.333C21.3237 119.363 20.4903 129.51 18.9707 137.01C16.8629 147.451 13.6766 157.598 9.41189 167.451L8.03935 165.294C43.5295 165.441 94.9021 165.882 130.882 166.275Z" fill="black"/>
<path d="M53.2353 107.696C51.7157 107.843 50.0981 108.186 48.7255 108.971C48.5784 109.069 48.3824 108.824 48.5294 108.726C49.8039 107.598 51.4216 106.961 52.9902 106.471C53.3333 106.373 53.6765 106.569 53.7255 106.912C53.8726 107.304 53.6275 107.696 53.2353 107.696Z" fill="black"/>
<path d="M57.157 113.971C55.3923 114.363 53.6766 115.196 52.2551 116.373C51.1276 116.569 53.9707 114.265 54.1668 114.167C55.0001 113.579 55.8335 113.137 56.8139 112.745C57.108 112.647 57.5001 112.794 57.5982 113.088C57.7943 113.53 57.5492 113.922 57.157 113.971Z" fill="black"/>
<path d="M63.4802 120.245C62.0586 121.373 60.8331 122.892 60.0488 124.559C59.9998 124.657 59.8527 124.706 59.7547 124.657C59.6567 124.608 59.6076 124.51 59.6567 124.412C59.9508 123.48 60.3429 122.549 60.8822 121.716C61.4214 120.833 62.0096 120.049 62.6959 119.314C62.941 119.069 63.3331 119.069 63.5782 119.314C63.8233 119.559 63.8233 120.049 63.4802 120.245Z" fill="black"/>
<path d="M74.0686 125.098C73.2353 126.863 72.5981 128.775 72.5 130.735C72.5 131.078 71.9118 131.078 71.9118 130.735C71.8137 129.167 72.0588 127.598 72.5 126.127C72.7451 125.539 72.7941 123.971 73.7745 124.265C74.0686 124.363 74.2157 124.755 74.0686 125.098Z" fill="black"/>
<path d="M85.2939 125.294C85.588 125.981 87.8429 131.471 86.7645 131.52C86.6174 131.52 86.4704 131.422 86.4704 131.275C86.4214 130.784 86.2743 130.343 86.0782 129.853C85.588 128.48 84.9018 127.108 84.1665 125.833C83.8233 125.098 84.9508 124.51 85.2939 125.294Z" fill="black"/>
<path d="M89.951 114.461C91.7647 114.804 93.2843 115.882 94.4118 117.255C94.4608 117.304 94.4608 117.451 94.4118 117.5C94.3628 117.549 94.2647 117.549 94.1667 117.5C92.9902 116.471 91.4216 115.735 89.853 115.686C88.9216 115.637 89.0686 114.314 89.951 114.461Z" fill="black"/>
<path d="M88.1861 108.726C89.7058 109.118 91.1273 109.755 92.2548 110.833C92.3528 110.931 92.3528 111.079 92.2548 111.177C92.1567 111.275 92.0587 111.275 91.9607 111.226C90.7842 110.441 89.3626 110.049 87.9901 109.951C87.1077 109.853 87.3038 108.53 88.1861 108.726Z" fill="black"/>
<path d="M89.951 121.373C91.3235 122.5 92.6961 123.676 93.5784 125.245C93.6275 125.294 93.5784 125.392 93.5294 125.441C93.4804 125.49 93.3824 125.441 93.3333 125.392C92.2549 124.069 90.7843 123.186 89.3137 122.353C88.5294 121.961 89.2157 120.833 89.951 121.373Z" fill="black"/>
<path d="M89.7056 120.392C88.6762 125.441 82.0095 128.48 70.784 123.922C59.1174 119.216 54.0684 107.99 52.7939 104.657C59.7056 91.7157 54.9017 82.7451 54.9017 82.7451C70.8331 81.3726 84.7546 100 84.7546 100L86.9115 109.216C87.1076 110 87.4997 110.686 88.088 111.176C89.1174 112.99 90.3429 117.157 89.7056 120.392Z" fill="white"/>
<path d="M52.549 104.804C53.4803 103.382 54.0686 101.716 54.4607 100.098C55.196 96.7157 55.4411 93.2843 55.4901 89.853V88.5785C55.3431 87.3039 54.9019 85.9804 54.4117 84.8039C53.7745 83.2353 56.0784 82.2549 56.8137 83.8236C56.9117 84.0196 56.9117 84.3628 56.9117 84.5588C57.0588 91.2255 57.3529 99.8039 53.1372 105.343C52.8431 105.637 52.2549 105.196 52.549 104.804Z" fill="black"/>
<path d="M85.2939 99.902C86.0292 100.343 86.2743 100.931 86.3723 101.52C86.6665 102.696 86.5684 103.971 86.8625 105.196C87.1076 106.373 87.8429 107.5 88.039 108.726C88.2841 110 89.0194 112.696 89.3135 114.02C89.4116 114.314 89.2155 114.657 88.8723 114.706C88.6763 114.755 88.5292 114.706 88.3821 114.608C87.7449 114.069 87.4508 113.529 87.0586 112.843C86.4214 111.667 85.9802 110.588 85.588 109.265C85.2449 108.088 85.3919 106.814 85.0978 105.588C84.8527 104.412 84.1665 103.284 83.9214 102.059C83.7743 101.471 83.7253 100.833 84.1665 100.098C84.4606 99.804 84.9508 99.706 85.2939 99.902Z" fill="black"/>
<path d="M88.8235 112.843C79.4607 112.353 71.8137 109.412 64.3627 96.1275C70.6372 101.667 78.0392 103.775 85.8333 104.755L86.8627 109.265C87.0588 110.049 88.2352 112.353 88.8235 112.843Z" fill="black"/>
<path d="M88.4315 111.029C90.0982 114.167 91.0786 118.088 90.0492 121.569C89.2648 124.02 87.0099 125.833 84.559 126.52C78.8727 128.039 72.3041 125.637 67.255 122.941C61.0296 119.461 56.4217 113.627 53.4805 107.255C53.2845 106.765 53.9707 106.373 54.2648 106.863C55.2943 108.922 56.4707 110.931 57.7943 112.745C59.1178 114.608 60.6374 116.324 62.3531 117.843C67.3531 122.353 74.1178 125.147 80.8825 125.147C87.8433 124.951 90.4903 121.275 88.8727 114.51C88.6276 113.431 88.2354 112.304 87.6962 111.373C87.4021 110.98 88.1374 110.539 88.4315 111.029Z" fill="black"/>
<path d="M107.402 52.1569C108.284 56.2745 108.726 59.6079 106.324 70.5883C103.971 81.5196 108.529 92.549 96.9609 102.598C89.1667 109.363 75.5393 110.637 64.6569 103.235C60.9805 100.735 60.0001 89.0686 57.1079 84.6079C55.8824 82.7451 55.1471 85.7353 52.353 82.6471C48.4805 78.4314 43.8236 69.951 46.1275 54.951C49.853 30.6373 69.1177 27.7941 83.3824 30.4902C97.6962 33.1863 105.049 41.3235 107.402 52.1569Z" fill="white"/>
<path d="M54.7549 86.9608C53.6274 85.0981 52.2058 83.4804 50.8823 81.7647C48.9215 79.1177 47.4509 76.0785 46.4705 72.9412C42.2549 59.5098 44.5098 42.0098 56.9607 33.6275C68.4803 25.8334 90.4901 28.1863 100.588 37.5981C105.637 42.1569 108.431 48.7745 109.02 55.4412C109.314 59.902 108.235 64.2157 107.304 68.5294C106.225 72.7451 105.98 76.9608 105.98 81.3236C105.931 85.6863 105.735 90.2451 104.069 94.3628C101.52 100.637 96.1764 105.735 89.7549 107.892C81.3235 110.833 71.3725 109.167 64.4607 103.529C64.1666 103.284 64.4607 102.892 64.8039 103.039C73.8725 108.186 85.7843 109.069 94.6078 103.137C99.8529 99.6079 103.48 94.0196 104.314 87.7451C105 83.4804 104.804 79.1667 105.196 74.853C105.343 72.9412 105.882 70.2941 106.274 68.3824C106.863 65.1961 107.255 62.0098 107.206 58.8236C107.157 55.6863 106.471 52.5981 105.539 49.6079C102.304 38.9706 93.0392 32.6961 82.3529 30.9804C66.3725 28.1863 52.4019 34.1177 48.2352 50.7353C46.4215 58.8726 45 67.8432 48.4313 75.7353C49.6568 78.7255 51.6666 81.2745 53.9705 83.4804L56.2254 85.8824C57.2058 86.8628 55.5392 88.1373 54.7549 86.9608Z" fill="black"/>
<path d="M60.5389 71.3725C60.5389 71.3725 59.0193 64.0196 51.8625 64.9019C45.686 65.6862 43.5291 80.4902 57.5487 84.6078" fill="white"/>
<path d="M56.9116 78.1862C55.7841 77.549 54.9998 76.4706 54.9508 75.147C54.9998 74.1666 55.1469 73.0392 54.9018 72.0588C54.7547 71.1274 53.7743 70.8823 53.039 70.9313C52.2547 71.0784 51.7645 72.0588 51.6175 72.8431C51.6175 72.8921 51.5684 73.0392 51.5684 73.0882C51.5194 73.3333 51.1273 73.3333 51.0292 73.0882C50.392 71.1764 51.8135 69.0686 53.8724 69.3137C56.7645 69.5098 57.1567 72.549 56.6175 74.8529C56.3234 75.8333 56.7155 76.7157 57.2547 77.549L57.3528 77.696C57.5979 77.9902 57.2057 78.3823 56.9116 78.1862Z" fill="black"/>
<path d="M96.1272 66.1765C96.8625 69.6569 98.2351 72.8922 99.9508 75.9314C101.47 79.6569 97.5488 83.1863 94.0684 83.0392C93.6763 83.0392 93.6272 82.5 93.9704 82.402C96.1763 81.7157 98.1861 80.2451 98.5292 77.9902C98.6763 77.3039 98.4802 76.7157 98.137 76.1275C96.5194 73.0882 95.539 69.6078 95.7841 66.1765C95.7841 65.9314 96.1272 65.9314 96.1272 66.1765Z" fill="black"/>
<path d="M60.2941 71.4216C59.1666 68.5294 56.7156 65.7843 53.4313 65.8334C53.1372 65.7843 52.647 65.8824 52.3529 65.8824C51.5196 65.9314 50.8333 66.2255 50.196 66.8138C47.0588 69.951 47.598 75.4902 50.147 78.9706C51.0294 80.1961 52.1568 81.2745 53.4313 82.1569C54.7058 83.0392 56.1274 83.7255 57.647 84.3137C57.9901 84.4118 57.8431 84.951 57.5 84.902C54.2156 84.2157 51.0784 82.5981 48.9215 79.902C45.5882 75.8824 44.9019 69.1667 48.8725 65.2451C49.7549 64.4608 50.9803 63.8726 52.2058 63.8726C52.598 63.8726 53.1862 63.7745 53.5784 63.8726C55.6372 63.9706 57.598 65 58.8725 66.6177C59.9999 67.9902 60.6372 69.6569 60.8333 71.3236C60.8333 71.6177 60.3921 71.7157 60.2941 71.4216Z" fill="black"/>
<path d="M92.8429 87.6961C92.0096 88.2843 90.7841 87.7941 89.9018 88.1863C89.2645 88.3824 88.2351 89.2647 86.7645 89.1667C85.588 89.0686 84.9998 88.4804 84.0194 88.0392C82.99 87.6961 81.9116 87.0588 81.2253 86.2255C81.0782 86.0785 81.0782 85.8824 81.2253 85.7353C81.4214 85.5392 81.6175 85.6863 81.8135 85.7843C82.2547 86.0294 82.5978 86.2255 82.941 86.3236C83.2841 86.4216 83.6273 86.3236 84.1665 86.3236C84.7057 86.2745 85.49 86.5196 85.9802 86.9118C86.3233 87.1569 86.7155 87.3039 87.0096 87.353C87.7939 87.5 88.7743 86.8628 89.6077 86.7647C90.1959 86.6667 90.8331 86.7157 91.3233 86.8628C91.8135 87.0098 92.1567 87.1079 92.5488 87.0098C92.99 86.9118 93.2351 87.5 92.8429 87.6961Z" fill="black"/>
<path d="M85.0488 60.9804C86.1272 61.1275 86.9606 60 86.5684 58.9216C86.3723 58.3334 86.0292 57.7942 85.49 57.451C83.8233 56.4216 77.5978 56.3236 74.3135 58.6765C71.3723 60.8334 80.1469 60.2942 85.0488 60.9804Z" fill="black"/>
<path d="M98.6272 61.5197C97.7449 61.5197 97.2057 60.3922 97.6468 59.4608C97.8919 58.9706 98.2351 58.5295 98.7253 58.2844C100.245 57.5491 104.314 57.9902 106.127 60.4902C107.745 62.6961 102.696 61.4706 98.6272 61.5197Z" fill="black"/>
<path d="M83.4314 67.451C81.7157 68.9706 79.0686 68.9706 77.0098 68.1863C76.6667 68.0392 74.7059 67.1569 75.098 66.6667C75.1471 66.6177 75.2451 66.5686 75.2941 66.5686C76.6667 66.6177 77.9412 66.7647 79.2647 66.8628C80.5882 66.9608 81.7647 66.9118 83.1373 66.8628C83.4804 66.8628 83.6765 67.2549 83.4314 67.451Z" fill="black"/>
<path d="M102.794 68.2844C101.225 70.0981 98.039 69.853 96.5684 68.0883C96.4214 67.9412 96.5684 67.6471 96.7645 67.6961C97.3037 67.7451 97.7939 67.8432 98.2841 67.8922C99.7547 68.1373 100.98 68.0883 102.549 68.0393C102.794 67.9412 102.892 68.1863 102.794 68.2844Z" fill="black"/>
<path d="M113.725 55.4412C112.353 59.7059 109.069 63.2843 106.961 65.6863C107.451 63.3824 107.01 62.0098 107.108 60.3922C107.255 58.1863 108.039 55.7353 107.892 54.7549C107.794 53.8726 107.598 53.0392 107.402 52.1569C107.157 51.0784 106.863 50.049 106.52 49.0196C98.8235 56.5196 85.6372 49.1176 85.6372 49.1176C85.6372 49.1176 82.8431 51.4216 77.9412 50.8824C72.6961 50.3431 71.2745 47.1078 71.2745 47.1078C69.8529 57.0098 60.4902 53.2353 62.2059 63.0882C62.6961 65.7843 62.6961 68.3824 60.3921 71.0784C60 69.7059 58.0882 64.1176 51.8137 64.902C45.8823 65.6373 43.6274 79.3628 55.8823 84.0686C55.7353 88.6275 56.2255 94.8039 55.7353 93.1863C52.3039 82.598 45.4412 84.2647 42.2059 76.2745C40.6863 72.451 40.9314 69.0686 41.7157 66.5686C42.5 64.1667 42.451 61.5686 41.6667 59.1667C40.7843 56.3726 40.098 52.1569 41.7157 47.0588C44.4608 38.3333 50.3431 36.3235 51.8627 35.2941C53.3823 34.2647 52.647 24.8529 63.2843 21.9118C71.7647 19.5588 78.1372 24.5098 80 24.1667C81.8627 23.8235 94.902 15.2451 104.951 23.3333C114.657 31.1765 111.029 40.4412 111.029 40.4412C111.029 40.4412 117.059 45.098 113.725 55.4412Z" fill="black"/>
<path d="M55.049 72.8922C55.049 72.8922 51.1275 72.3039 51.4216 77.7941C51.5686 80.5882 51.5686 82.1078 51.5196 82.8922C51.4706 83.4314 51.8137 83.9216 52.3039 84.1176C52.8922 84.3627 53.5294 84.1176 53.8235 83.5294C54.2647 82.7451 54.7549 81.6667 54.7549 80.7843C54.7549 79.3137 56.3235 77.9902 56.3235 77.9902C56.3235 77.9902 54.902 76.7647 55.049 72.8922Z" fill="white"/>
<path d="M54.902 73.0392C54.902 73.0882 54.951 73.1372 55 73.1372C55 73.1372 55 73.1372 54.951 73.1372H54.853C52.5 73.3333 51.7647 75.3922 51.8628 77.5C51.9118 78.8725 52.0098 80.2451 51.9608 81.5686C52.0588 82.3039 51.6177 83.2843 52.353 83.6765C52.7941 83.9216 53.3824 83.7255 53.5784 83.2353C54.0196 82.3529 54.4608 81.4706 54.4608 80.4902C54.6569 79.3627 55.3922 78.4804 56.1765 77.7941V78.1863C55.1471 77.1078 54.902 75.6372 54.7549 74.2647C54.8039 73.9216 54.8039 73.3823 54.902 73.0392ZM55.2451 72.6961C55.3922 74.0686 55.3922 75.4902 55.9804 76.7157C56.1275 77.0588 56.3726 77.451 56.6667 77.6961C56.8628 77.8431 56.8628 78.1372 56.6667 78.2843C55.9804 78.9216 55.3922 79.7059 55.2941 80.5882C55.2941 81.6667 54.853 82.6961 54.3628 83.6274C53.9706 84.4608 52.8432 84.902 52.0098 84.4118C51.4706 84.1176 51.0784 83.5294 51.0784 82.8922C51.0784 82.402 51.1275 82.0098 51.1275 81.5196C51.1275 80.1471 51.0294 78.8235 50.9804 77.451C50.9804 76.5686 51.0294 75.5392 51.4216 74.6569C51.9118 73.2843 53.4314 72.3529 54.902 72.598C55.049 72.598 55.1961 72.6471 55.2451 72.6961Z" fill="black"/>
<path d="M54.4118 130.931C56.0294 123.873 53.9216 115.931 52.1079 108.873C51.3726 106.078 50.6373 103.431 50.2941 101.127C49.6569 97.2549 50.0981 93.5784 51.6667 90.1471C53.5784 85.8824 53.2843 82.2549 53.2843 82.1078L52.3039 82.2059C52.3039 82.2549 52.5981 85.7843 50.7843 89.7549C49.1667 93.3333 48.6765 97.2059 49.3137 101.275C49.7059 103.627 50.3922 106.324 51.1275 109.118C52.9412 116.029 55 123.873 53.4314 130.686C52.549 134.461 54.2647 140.637 56.7157 146.814C57.1079 146.863 57.451 146.912 57.8432 146.961C55.3432 140.784 53.5784 134.559 54.4118 130.931Z" fill="black"/>
<path d="M51.5686 80.6372C51.6177 81.7157 51.5686 82.451 51.5686 82.8921C51.5196 83.4314 51.8628 83.9216 52.353 84.1176C52.9412 84.3627 53.5784 84.1176 53.8726 83.5294C54.3137 82.7451 54.8039 81.6667 54.8039 80.7843C54.8039 80.7353 54.8039 80.6372 54.8039 80.5882C53.8235 80.9804 52.6471 81.2745 51.5686 80.6372Z" fill="white"/>
<path d="M51.7157 80.8333C51.7647 81.5196 51.8137 82.1569 51.8137 82.8431C51.7647 83.1372 51.8628 83.4314 52.0588 83.6765C52.6961 84.3137 53.5784 83.9216 53.8235 83.1372C54.2157 82.3529 54.5588 81.5196 54.5588 80.6373L54.902 80.8823C53.8235 81.0784 52.6961 81.3725 51.6667 80.9314C51.6667 80.9314 51.7157 80.8823 51.7157 80.8333ZM51.4706 80.3922C51.5686 80.3922 51.7647 80.4412 51.8628 80.5392C52.7451 81.1765 53.8726 80.8823 54.7549 80.3922C54.902 80.2941 55.1471 80.4412 55.0981 80.6373C55.049 81.7647 54.6079 82.8431 54.0196 83.8235C53.4804 84.5588 52.353 84.6078 51.7157 83.9706C51.4216 83.6765 51.2745 83.1863 51.3235 82.7941C51.3235 81.9608 51.4216 81.1765 51.4706 80.3922Z" fill="black"/>
<path d="M97.7451 113.235C98.5785 107.451 97.7941 103.333 97.5 102.108C97.353 102.206 97.2549 102.353 97.1079 102.451C96.9608 102.598 96.8137 102.696 96.6667 102.843C96.9608 104.412 97.5 108.137 96.7647 113.088C96.4216 115.392 96.3235 119.02 96.2745 123.235C96.1765 127.304 94.902 137.451 93.3824 147.059C93.7255 146.961 94.0686 146.863 94.4118 146.814C95.9314 137.304 97.1569 127.353 97.2549 123.284C97.353 119.069 97.402 115.49 97.7451 113.235Z" fill="black"/>
<path d="M141.275 41.3235C171.029 98.6274 118.725 163.284 56.3725 147.5C28.3824 140.539 5.88235 116.275 1.22549 87.7941C-4.06863 59.4608 8.72549 29.0196 32.6471 12.9902C65.4412 -9.55883 110.882 -2.05883 134.363 30.1961C134.51 30.3431 134.461 30.5882 134.265 30.7353C134.118 30.8823 133.873 30.8333 133.725 30.6372C130.49 26.4706 126.814 22.6961 122.794 19.3137C116.176 13.6765 108.431 9.2647 100.245 6.27451C58.5784 -8.82353 12.8431 16.2745 3.72549 59.8529C-6.56863 108.676 34.951 153.627 84.4608 146.912C122.647 142.108 151.029 106.863 147.892 68.5294C147.206 59.2647 144.755 50.098 140.686 41.6667C140.588 41.5196 140.686 41.3235 140.833 41.2255C140.98 41.1274 141.176 41.1765 141.275 41.3235Z" fill="black"/>
</g>
</svg>
